<svg width="340" height="78" viewBox="0 0 340 78" fill="none" xmlns="http://www.w3.org/2000/svg">
<path d="M33.6697 17.1388L31.4308 22.0554H0.800426L2.62393 17.1388H33.6697ZM29.3995 26.6719L27.022 31.6577H0.800426L2.62393 26.6719H29.3995ZM39.4865 4.55895L36.255 11.4375C35.5163 10.8527 34.6777 10.2834 33.739 9.7294C32.8003 9.17543 31.7616 8.71378 30.6229 8.34446C29.4841 7.97514 28.2377 7.79048 26.8835 7.79048C24.5907 7.79048 22.5671 8.39832 20.8129 9.61399C19.0586 10.8143 17.6813 12.6455 16.6811 15.1076C15.6963 17.5543 15.2038 20.6551 15.2038 24.4098C15.2038 28.1645 15.6963 31.2653 16.6811 33.712C17.6813 36.1587 19.0586 37.9745 20.8129 39.1594C22.5671 40.3443 24.5907 40.9368 26.8835 40.9368C28.2377 40.9368 29.4841 40.7598 30.6229 40.4059C31.7616 40.052 32.7849 39.6057 33.6928 39.0671C34.6161 38.5285 35.4086 37.9899 36.0703 37.4513L39.348 44.3299C37.7015 45.761 35.801 46.8382 33.6467 47.5614C31.5077 48.2847 29.2533 48.6463 26.8835 48.6463C22.9441 48.6463 19.451 47.6845 16.4041 45.761C13.3726 43.8221 10.9951 41.0445 9.27166 37.4283C7.54818 33.7966 6.68643 29.4571 6.68643 24.4098C6.68643 19.3471 7.54818 14.9999 9.27166 11.3683C10.9951 7.73662 13.3726 4.95135 16.4041 3.01243C19.451 1.05812 22.9441 0.0809641 26.8835 0.0809641C29.3456 0.0809641 31.6308 0.473365 33.739 1.25817C35.8626 2.02758 37.7784 3.12784 39.4865 4.55895ZM46.4632 39.2287V32.4194L66.5218 0.727271H72.2V10.4219H68.7377L55.2345 31.8192V32.1886H83.2334V39.2287H46.4632ZM69.0146 48V37.1513L69.107 34.1044V0.727271H77.1858V48H69.0146ZM99.1776 41.5369L98.8775 44.076C98.6621 46.0149 98.2773 47.9846 97.7234 49.9851C97.1848 52.0009 96.6154 53.8552 96.0153 55.5479C95.4151 57.2406 94.9304 58.5717 94.5611 59.5412H88.929C89.1444 58.6025 89.4368 57.3253 89.8061 55.7095C90.1908 54.0938 90.5601 52.2779 90.9141 50.2621C91.268 48.2462 91.5065 46.1996 91.6296 44.1222L91.7912 41.5369H99.1776ZM124.309 48.6463C121.231 48.6463 118.476 48.0692 116.045 46.9151C113.614 45.7456 111.682 44.1452 110.251 42.114C108.836 40.0827 108.082 37.7591 107.989 35.1431H116.299C116.453 37.082 117.291 38.667 118.815 39.8981C120.338 41.1138 122.17 41.7216 124.309 41.7216C125.986 41.7216 127.478 41.3369 128.786 40.5675C130.094 39.7981 131.126 38.7286 131.88 37.359C132.634 35.9895 133.003 34.4276 132.987 32.6733C133.003 30.8883 132.626 29.3033 131.856 27.9183C131.087 26.5334 130.033 25.4485 128.694 24.6637C127.355 23.8635 125.817 23.4634 124.078 23.4634C122.662 23.448 121.269 23.7096 119.9 24.2482C118.53 24.7868 117.445 25.4947 116.645 26.3718L108.913 25.1023L111.382 0.727271H138.804V7.88281H118.469L117.107 20.4165H117.384C118.261 19.3855 119.5 18.5315 121.1 17.8544C122.7 17.1619 124.455 16.8157 126.363 16.8157C129.225 16.8157 131.78 17.4928 134.026 18.8469C136.273 20.1857 138.043 22.0323 139.335 24.3867C140.628 26.7411 141.274 29.4341 141.274 32.4656C141.274 35.5894 140.551 38.3746 139.104 40.8214C137.673 43.2527 135.68 45.1686 133.126 46.5689C130.587 47.9538 127.648 48.6463 124.309 48.6463ZM166.48 48.9002C162.679 48.9002 159.417 47.9384 156.693 46.0149C153.985 44.076 151.9 41.283 150.438 37.636C148.991 33.9736 148.268 29.5649 148.268 24.4098C148.283 19.2547 149.014 14.8691 150.461 11.2528C151.923 7.62121 154.008 4.85132 156.716 2.94318C159.44 1.03504 162.695 0.0809641 166.48 0.0809641C170.266 0.0809641 173.52 1.03504 176.244 2.94318C178.968 4.85132 181.053 7.62121 182.499 11.2528C183.961 14.8845 184.692 19.2701 184.692 24.4098C184.692 29.5803 183.961 33.9967 182.499 37.6591C181.053 41.3061 178.968 44.0914 176.244 46.0149C173.536 47.9384 170.281 48.9002 166.48 48.9002ZM166.48 41.6754C169.435 41.6754 171.766 40.2212 173.474 37.3129C175.197 34.3891 176.059 30.0881 176.059 24.4098C176.059 20.6551 175.667 17.5005 174.882 14.946C174.097 12.3916 172.989 10.468 171.558 9.17543C170.127 7.86742 168.434 7.21342 166.48 7.21342C163.541 7.21342 161.217 8.67531 159.509 11.5991C157.801 14.5075 156.939 18.7777 156.924 24.4098C156.909 28.1799 157.286 31.3499 158.055 33.9197C158.84 36.4896 159.948 38.4285 161.379 39.7365C162.81 41.0291 164.51 41.6754 166.48 41.6754ZM209.835 48.9002C206.034 48.9002 202.771 47.9384 200.048 46.0149C197.339 44.076 195.254 41.283 193.792 37.636C192.346 33.9736 191.623 29.5649 191.623 24.4098C191.638 19.2547 192.369 14.8691 193.815 11.2528C195.277 7.62121 197.362 4.85132 200.071 2.94318C202.794 1.03504 206.049 0.0809641 209.835 0.0809641C213.62 0.0809641 216.875 1.03504 219.598 2.94318C222.322 4.85132 224.407 7.62121 225.854 11.2528C227.316 14.8845 228.047 19.2701 228.047 24.4098C228.047 29.5803 227.316 33.9967 225.854 37.6591C224.407 41.3061 222.322 44.0914 219.598 46.0149C216.89 47.9384 213.635 48.9002 209.835 48.9002ZM209.835 41.6754C212.789 41.6754 215.12 40.2212 216.828 37.3129C218.552 34.3891 219.414 30.0881 219.414 24.4098C219.414 20.6551 219.021 17.5005 218.237 14.946C217.452 12.3916 216.344 10.468 214.913 9.17543C213.482 7.86742 211.789 7.21342 209.835 7.21342C206.895 7.21342 204.572 8.67531 202.864 11.5991C201.156 14.5075 200.294 18.7777 200.278 24.4098C200.263 28.1799 200.64 31.3499 201.409 33.9197C202.194 36.4896 203.302 38.4285 204.733 39.7365C206.164 41.0291 207.865 41.6754 209.835 41.6754ZM239.115 48.5078C237.714 48.5078 236.514 48.0154 235.514 47.0305C234.513 46.0457 234.021 44.8454 234.036 43.4297C234.021 42.0447 234.513 40.8598 235.514 39.875C236.514 38.8902 237.714 38.3977 239.115 38.3977C240.469 38.3977 241.646 38.8902 242.646 39.875C243.662 40.8598 244.177 42.0447 244.193 43.4297C244.177 44.3684 243.931 45.2224 243.454 45.9918C242.992 46.7612 242.377 47.3768 241.607 47.8384C240.853 48.2847 240.022 48.5078 239.115 48.5078ZM267.754 48.6463C264.322 48.6463 261.276 48.0692 258.613 46.9151C255.967 45.761 253.889 44.1837 252.381 42.1832C250.888 40.1674 250.15 37.8822 250.165 35.3278C250.15 33.3427 250.581 31.5192 251.458 29.8572C252.335 28.1953 253.52 26.8104 255.013 25.7024C256.521 24.5791 258.198 23.8635 260.044 23.5558V23.2326C257.613 22.694 255.643 21.4553 254.135 19.5163C252.643 17.562 251.904 15.3076 251.919 12.7532C251.904 10.3218 252.581 8.15211 253.951 6.24396C255.32 4.33582 257.198 2.83546 259.583 1.7429C261.968 0.634942 264.692 0.0809641 267.754 0.0809641C270.785 0.0809641 273.486 0.634942 275.856 1.7429C278.241 2.83546 280.118 4.33582 281.488 6.24396C282.873 8.15211 283.565 10.3218 283.565 12.7532C283.565 15.3076 282.804 17.562 281.28 19.5163C279.772 21.4553 277.826 22.694 275.44 23.2326V23.5558C277.287 23.8635 278.949 24.5791 280.426 25.7024C281.919 26.8104 283.104 28.1953 283.981 29.8572C284.873 31.5192 285.32 33.3427 285.32 35.3278C285.32 37.8822 284.566 40.1674 283.058 42.1832C281.55 44.1837 279.472 45.761 276.825 46.9151C274.194 48.0692 271.17 48.6463 267.754 48.6463ZM267.754 42.0447C269.524 42.0447 271.062 41.7447 272.37 41.1445C273.678 40.529 274.694 39.6673 275.417 38.5593C276.141 37.4513 276.51 36.1741 276.525 34.7276C276.51 33.2196 276.118 31.8885 275.348 30.7344C274.594 29.5649 273.555 28.6493 272.232 27.9876C270.924 27.3259 269.431 26.995 267.754 26.995C266.061 26.995 264.553 27.3259 263.23 27.9876C261.906 28.6493 260.86 29.5649 260.091 30.7344C259.337 31.8885 258.967 33.2196 258.983 34.7276C258.967 36.1741 259.321 37.4513 260.044 38.5593C260.768 39.6519 261.783 40.5059 263.091 41.1214C264.415 41.737 265.969 42.0447 267.754 42.0447ZM267.754 20.5089C269.2 20.5089 270.478 20.2165 271.586 19.6317C272.709 19.047 273.594 18.2314 274.24 17.185C274.886 16.1386 275.217 14.9306 275.233 13.5611C275.217 12.2069 274.894 11.022 274.263 10.0064C273.632 8.97538 272.755 8.18288 271.632 7.62891C270.508 7.05954 269.216 6.77486 267.754 6.77486C266.261 6.77486 264.946 7.05954 263.807 7.62891C262.684 8.18288 261.806 8.97538 261.176 10.0064C260.56 11.022 260.26 12.2069 260.275 13.5611C260.26 14.9306 260.568 16.1386 261.199 17.185C261.845 18.216 262.73 19.0316 263.853 19.6317C264.992 20.2165 266.292 20.5089 267.754 20.5089ZM309.32 0.0809641C311.582 0.0963529 313.782 0.496448 315.921 1.28125C318.076 2.05066 320.014 3.3125 321.738 5.06676C323.461 6.80563 324.831 9.13695 325.847 12.0607C326.862 14.9845 327.37 18.6007 327.37 22.9094C327.385 26.9719 326.955 30.6036 326.077 33.8043C325.216 36.9897 323.977 39.6826 322.361 41.8832C320.745 44.0837 318.799 45.761 316.521 46.9151C314.244 48.0692 311.682 48.6463 308.835 48.6463C305.85 48.6463 303.203 48.0616 300.895 46.892C298.602 45.7225 296.747 44.1222 295.332 42.0909C293.916 40.0597 293.047 37.736 292.723 35.12H301.148C301.579 36.9974 302.456 38.4901 303.78 39.598C305.119 40.6906 306.804 41.2369 308.835 41.2369C312.113 41.2369 314.636 39.8134 316.406 36.9666C318.176 34.1198 319.06 30.165 319.06 25.1023H318.737C317.983 26.4564 317.006 27.6259 315.806 28.6108C314.605 29.5803 313.244 30.3266 311.72 30.8498C310.212 31.373 308.612 31.6346 306.919 31.6346C304.149 31.6346 301.656 30.9729 299.44 29.6495C297.24 28.3261 295.493 26.5103 294.201 24.2021C292.923 21.8938 292.277 19.2547 292.262 16.2848C292.262 13.2071 292.97 10.445 294.385 7.99822C295.816 5.5361 297.809 3.59718 300.364 2.18146C302.918 0.750353 305.903 0.0501867 309.32 0.0809641ZM309.343 7.00568C307.681 7.00568 306.18 7.41347 304.842 8.22905C303.518 9.02924 302.472 10.1218 301.702 11.5067C300.948 12.8763 300.571 14.4074 300.571 16.1001C300.587 17.7775 300.964 19.3009 301.702 20.6705C302.456 22.04 303.48 23.1249 304.772 23.9251C306.08 24.7253 307.573 25.1254 309.25 25.1254C310.497 25.1254 311.659 24.8868 312.736 24.4098C313.813 23.9328 314.752 23.2711 315.552 22.4247C316.367 21.563 316.998 20.5858 317.445 19.4933C317.906 18.4007 318.129 17.2466 318.114 16.0309C318.114 14.4151 317.729 12.9225 316.96 11.5529C316.206 10.1834 315.167 9.0831 313.844 8.25213C312.536 7.42116 311.035 7.00568 309.343 7.00568Z" fill="white"/>
</svg>
