<svg width="57" height="68" viewBox="0 0 57 68" fill="none" xmlns="http://www.w3.org/2000/svg">
<path d="M9.11346 64V55.2727H12.1646C12.7725 55.2727 13.274 55.3778 13.6689 55.5881C14.0637 55.7955 14.3578 56.0753 14.551 56.4276C14.7441 56.777 14.8407 57.1648 14.8407 57.5909C14.8407 57.9659 14.774 58.2756 14.6404 58.5199C14.5098 58.7642 14.3365 58.9574 14.1206 59.0994C13.9075 59.2415 13.676 59.3466 13.426 59.4148V59.5C13.693 59.517 13.9615 59.6108 14.2314 59.7812C14.5012 59.9517 14.7271 60.196 14.9089 60.5142C15.0907 60.8324 15.1816 61.2216 15.1816 61.6818C15.1816 62.1193 15.0822 62.5128 14.8833 62.8622C14.6845 63.2116 14.3706 63.4886 13.9416 63.6932C13.5126 63.8977 12.9544 64 12.2669 64H9.11346ZM10.1703 63.0625H12.2669C12.9572 63.0625 13.4473 62.929 13.737 62.6619C14.0297 62.392 14.176 62.0653 14.176 61.6818C14.176 61.3864 14.1007 61.1136 13.9501 60.8636C13.7995 60.6108 13.585 60.4091 13.3066 60.2585C13.0282 60.1051 12.6987 60.0284 12.318 60.0284H10.1703V63.0625ZM10.1703 59.108H12.1305C12.4487 59.108 12.7356 59.0455 12.9913 58.9205C13.2498 58.7955 13.4544 58.6193 13.6049 58.392C13.7583 58.1648 13.835 57.8977 13.835 57.5909C13.835 57.2074 13.7015 56.8821 13.4345 56.6151C13.1674 56.3452 12.7441 56.2102 12.1646 56.2102H10.1703V59.108ZM20.9068 61.3239V57.4545H21.9125V64H20.9068V62.892H20.8386C20.6852 63.2244 20.4466 63.5071 20.1227 63.7401C19.7988 63.9702 19.3897 64.0852 18.8954 64.0852C18.4863 64.0852 18.1227 63.9957 17.8045 63.8168C17.4863 63.6349 17.2363 63.3622 17.0545 62.9986C16.8727 62.6321 16.7818 62.1705 16.7818 61.6136V57.4545H17.7875V61.5455C17.7875 62.0227 17.921 62.4034 18.188 62.6875C18.4579 62.9716 18.8017 63.1136 19.2193 63.1136C19.4693 63.1136 19.7235 63.0497 19.9821 62.9219C20.2434 62.794 20.4622 62.598 20.6383 62.3338C20.8173 62.0696 20.9068 61.733 20.9068 61.3239ZM26.226 64.1364C25.6806 64.1364 25.199 63.9986 24.7814 63.723C24.3638 63.4446 24.0371 63.0526 23.8013 62.5469C23.5655 62.0384 23.4476 61.4375 23.4476 60.7443C23.4476 60.0568 23.5655 59.4602 23.8013 58.9545C24.0371 58.4489 24.3652 58.0582 24.7857 57.7827C25.2061 57.5071 25.6919 57.3693 26.2431 57.3693C26.6692 57.3693 27.0059 57.4403 27.253 57.5824C27.503 57.7216 27.6934 57.8807 27.824 58.0597C27.9576 58.2358 28.0613 58.3807 28.1351 58.4943H28.2203V55.2727H29.226V64H28.2544V62.9943H28.1351C28.0613 63.1136 27.9561 63.2642 27.8198 63.446C27.6834 63.625 27.4888 63.7855 27.236 63.9276C26.9831 64.0668 26.6465 64.1364 26.226 64.1364ZM26.3624 63.233C26.7658 63.233 27.1067 63.1278 27.3851 62.9176C27.6635 62.7045 27.8752 62.4105 28.0201 62.0355C28.165 61.6577 28.2374 61.2216 28.2374 60.7273C28.2374 60.2386 28.1664 59.8111 28.0243 59.4446C27.8823 59.0753 27.6721 58.7884 27.3936 58.5838C27.1152 58.3764 26.7715 58.2727 26.3624 58.2727C25.9363 58.2727 25.5811 58.3821 25.2971 58.6009C25.0158 58.8168 24.8042 59.1108 24.6621 59.483C24.5229 59.8523 24.4533 60.267 24.4533 60.7273C24.4533 61.1932 24.5243 61.6165 24.6664 61.9972C24.8113 62.375 25.0243 62.6761 25.3056 62.9006C25.5897 63.1222 25.9419 63.233 26.3624 63.233ZM33.8496 66.5909C33.3638 66.5909 32.9462 66.5284 32.5968 66.4034C32.2473 66.2812 31.9561 66.1193 31.7232 65.9176C31.4931 65.7188 31.3098 65.5057 31.1735 65.2784L31.9746 64.7159C32.0655 64.8352 32.1806 64.9716 32.3198 65.125C32.459 65.2812 32.6493 65.4162 32.8908 65.5298C33.1351 65.6463 33.4547 65.7045 33.8496 65.7045C34.378 65.7045 34.8141 65.5767 35.1578 65.321C35.5016 65.0653 35.6735 64.6648 35.6735 64.1193V62.7898H35.5882C35.5144 62.9091 35.4093 63.0568 35.2729 63.233C35.1394 63.4062 34.9462 63.5611 34.6934 63.6974C34.4434 63.831 34.1053 63.8977 33.6792 63.8977C33.1507 63.8977 32.6763 63.7727 32.2559 63.5227C31.8382 63.2727 31.5073 62.9091 31.263 62.4318C31.0215 61.9545 30.9007 61.375 30.9007 60.6932C30.9007 60.0227 31.0186 59.4389 31.2544 58.9418C31.4902 58.4418 31.8184 58.0554 32.2388 57.7827C32.6593 57.5071 33.1451 57.3693 33.6962 57.3693C34.1223 57.3693 34.4604 57.4403 34.7104 57.5824C34.9632 57.7216 35.1564 57.8807 35.29 58.0597C35.4263 58.2358 35.5314 58.3807 35.6053 58.4943H35.7076V57.4545H36.6792V64.1875C36.6792 64.75 36.5513 65.2074 36.2956 65.5597C36.0428 65.9148 35.7019 66.1747 35.2729 66.3395C34.8468 66.5071 34.3723 66.5909 33.8496 66.5909ZM33.8155 62.9943C34.2189 62.9943 34.5598 62.902 34.8382 62.7173C35.1167 62.5327 35.3283 62.267 35.4732 61.9205C35.6181 61.5739 35.6905 61.1591 35.6905 60.6761C35.6905 60.2045 35.6195 59.7884 35.4775 59.4276C35.3354 59.0668 35.1252 58.7841 34.8468 58.5795C34.5684 58.375 34.2246 58.2727 33.8155 58.2727C33.3894 58.2727 33.0343 58.3807 32.7502 58.5966C32.4689 58.8125 32.2573 59.1023 32.1152 59.4659C31.976 59.8295 31.9064 60.233 31.9064 60.6761C31.9064 61.1307 31.9775 61.5327 32.1195 61.8821C32.2644 62.2287 32.4775 62.5014 32.7587 62.7003C33.0428 62.8963 33.3951 62.9943 33.8155 62.9943ZM41.2644 64.1364C40.6337 64.1364 40.0897 63.9972 39.6323 63.7188C39.1777 63.4375 38.8269 63.0455 38.5797 62.5426C38.3354 62.0369 38.2132 61.4489 38.2132 60.7784C38.2132 60.108 38.3354 59.517 38.5797 59.0057C38.8269 58.4915 39.1706 58.0909 39.611 57.804C40.0542 57.5142 40.5712 57.3693 41.1621 57.3693C41.503 57.3693 41.8397 57.4261 42.1721 57.5398C42.5044 57.6534 42.807 57.8381 43.0797 58.0938C43.3525 58.3466 43.5698 58.6818 43.7317 59.0994C43.8936 59.517 43.9746 60.0312 43.9746 60.642V61.0682H38.9292V60.1989H42.9519C42.9519 59.8295 42.878 59.5 42.7303 59.2102C42.5854 58.9205 42.378 58.6918 42.1081 58.5241C41.8411 58.3565 41.5257 58.2727 41.1621 58.2727C40.7615 58.2727 40.415 58.3722 40.1223 58.571C39.8326 58.767 39.6096 59.0227 39.4533 59.3381C39.2971 59.6534 39.2189 59.9915 39.2189 60.3523V60.9318C39.2189 61.4261 39.3042 61.8452 39.4746 62.1889C39.6479 62.5298 39.888 62.7898 40.1948 62.9688C40.5016 63.1449 40.8581 63.233 41.2644 63.233C41.5286 63.233 41.7672 63.196 41.9803 63.1222C42.1962 63.0455 42.3823 62.9318 42.5385 62.7812C42.6948 62.6278 42.8155 62.4375 42.9007 62.2102L43.8723 62.483C43.7701 62.8125 43.5982 63.1023 43.3567 63.3523C43.1152 63.5994 42.8169 63.7926 42.4618 63.9318C42.1067 64.0682 41.7076 64.1364 41.2644 64.1364ZM48.351 57.4545V58.3068H44.959V57.4545H48.351ZM45.9476 55.8864H46.9533V62.125C46.9533 62.4091 46.9945 62.6222 47.0769 62.7642C47.1621 62.9034 47.2701 62.9972 47.4007 63.0455C47.5343 63.0909 47.6749 63.1136 47.8226 63.1136C47.9334 63.1136 48.0243 63.108 48.0953 63.0966C48.1664 63.0824 48.2232 63.071 48.2658 63.0625L48.4703 63.9659C48.4022 63.9915 48.307 64.017 48.1848 64.0426C48.0627 64.071 47.9078 64.0852 47.7203 64.0852C47.4363 64.0852 47.1578 64.0241 46.8851 63.902C46.6152 63.7798 46.3908 63.5938 46.2118 63.3438C46.0357 63.0938 45.9476 62.7784 45.9476 62.3977V55.8864Z" fill="white"/>
<path d="M27.404 0C25.0176 0 23.332 1.70845 22.4987 3.83922H6.57056V51.8295H48.2374V3.83922H32.3093C31.476 1.70845 29.7904 0 27.404 0ZM27.404 3.83922C28.4457 3.83922 29.2979 4.70305 29.2979 5.75883V7.67844H34.9798V11.5177H19.8282V7.67844H25.51V5.75883C25.51 4.70305 26.3623 3.83922 27.404 3.83922ZM10.3585 7.67844H16.0403V15.3569H38.7677V7.67844H44.4495V47.9903H10.3585V7.67844ZM14.1463 21.1157V24.9549H17.9342V21.1157H14.1463ZM21.7221 21.1157V24.9549H40.6616V21.1157H21.7221ZM14.1463 28.7942V32.6334H17.9342V28.7942H14.1463ZM21.7221 28.7942V32.6334H40.6616V28.7942H21.7221ZM14.1463 36.4726V40.3118H17.9342V36.4726H14.1463ZM21.7221 36.4726V40.3118H40.6616V36.4726H21.7221Z" fill="white"/>
</svg>
