<svg width="35" height="35" viewBox="0 0 35 35" fill="none" xmlns="http://www.w3.org/2000/svg">
<path fill-rule="evenodd" clip-rule="evenodd" d="M12.0312 24.0625H9.66656L8.91844 26.3069L8.57281 27.3438H4.375V20.825C5.46 21.1072 7.02844 21.3281 9.29688 21.3281C9.732 21.3281 10.1493 21.1553 10.457 20.8476C10.7646 20.5399 10.9375 20.1226 10.9375 19.6875C10.9375 19.2524 10.7646 18.8351 10.457 18.5274C10.1493 18.2197 9.732 18.0469 9.29688 18.0469C6.94969 18.0469 5.6175 17.7844 4.92625 17.5722C4.77464 17.5256 4.62567 17.4709 4.48 17.4081C4.64759 16.6866 5.01532 16.027 5.54094 15.505C5.70135 15.3446 5.8574 15.1783 6.00906 15.0063C9.345 15.9534 13.4531 16.4063 17.5 16.4063C21.5469 16.4063 25.655 15.9534 28.9909 15.0063C29.1411 15.1798 29.2972 15.3461 29.4591 15.505C29.9863 16.0344 30.3516 16.695 30.52 17.4081C30.4237 17.4548 30.275 17.5095 30.0738 17.5722C29.3825 17.7844 28.0503 18.0469 25.7031 18.0469C25.268 18.0469 24.8507 18.2197 24.543 18.5274C24.2354 18.8351 24.0625 19.2524 24.0625 19.6875C24.0625 20.1226 24.2354 20.5399 24.543 20.8476C24.8507 21.1553 25.268 21.3281 25.7031 21.3281C27.9716 21.3281 29.54 21.1072 30.625 20.825V27.3438H26.4272L26.0816 26.3069L25.3334 24.0625H12.0312ZM27.1775 12.0925C24.3775 12.7706 20.965 13.125 17.5 13.125C14.035 13.125 10.6225 12.7706 7.8225 12.0925C7.88958 11.9292 7.95375 11.7644 8.015 11.5981L8.995 8.84845C9.38875 7.74376 10.2419 7.08532 11.095 6.96064C15.3429 6.35675 19.6549 6.35675 23.9028 6.96064C24.7603 7.08532 25.6091 7.74376 26.0028 8.84845L26.9872 11.5981C27.0455 11.7644 27.109 11.9292 27.1775 12.0925ZM23.5638 29.1288L22.9688 27.3438H12.0312L11.4363 29.1288C11.2911 29.5645 11.0125 29.9435 10.6399 30.2121C10.2673 30.4807 9.81961 30.6251 9.36031 30.625H3.28125C2.70109 30.625 2.14469 30.3945 1.73445 29.9843C1.32422 29.5741 1.09375 29.0177 1.09375 28.4375V18.3203C1.09375 16.3953 1.85938 14.5469 3.22 13.1863C3.57253 12.8347 3.88775 12.4477 4.16062 12.0313H2.73438C2.29925 12.0313 1.88195 11.8584 1.57428 11.5507C1.2666 11.2431 1.09375 10.8258 1.09375 10.3906C1.09375 9.95552 1.2666 9.53822 1.57428 9.23054C1.88195 8.92286 2.29925 8.75001 2.73438 8.75001H5.5475L5.90625 7.74376C6.65656 5.64376 8.4175 4.03376 10.6247 3.71439C15.1852 3.06513 19.8148 3.06513 24.3753 3.71439C26.5825 4.03376 28.3434 5.64376 29.0938 7.74595L29.4525 8.75001H32.2656C32.7007 8.75001 33.118 8.92286 33.4257 9.23054C33.7334 9.53822 33.9062 9.95552 33.9062 10.3906C33.9062 10.8258 33.7334 11.2431 33.4257 11.5507C33.118 11.8584 32.7007 12.0313 32.2656 12.0313H30.8416C31.1143 12.4483 31.4271 12.8333 31.78 13.1863C33.1413 14.5481 33.9061 16.3948 33.9062 18.3203V28.4375C33.9062 29.0177 33.6758 29.5741 33.2655 29.9843C32.8553 30.3945 32.2989 30.625 31.7188 30.625H25.6375C25.1786 30.6247 24.7314 30.48 24.3592 30.2115C23.9871 29.9429 23.7088 29.5642 23.5638 29.1288Z" fill="#5F9AE1"/>
</svg>
