<svg width="47" height="40" viewBox="0 0 47 40" fill="none" xmlns="http://www.w3.org/2000/svg">
<path d="M23.5023 4.9978C22.8668 4.99766 22.2443 5.17679 21.7072 5.51435C21.1701 5.85191 20.7406 6.33402 20.4686 6.90458C20.1762 7.49328 19.6624 7.94412 19.0382 8.15975C18.414 8.37538 17.7294 8.33849 17.1324 8.05705C16.5353 7.77562 16.0736 7.27221 15.847 6.65554C15.6205 6.03888 15.6471 5.35842 15.9213 4.76111C16.4827 3.58584 17.3133 2.55745 18.3467 1.75824C19.38 0.959031 20.5873 0.411206 21.872 0.158613C23.1567 -0.0939797 24.4831 -0.0443253 25.745 0.303601C27.0069 0.651528 28.1693 1.28806 29.1391 2.16226C30.1089 3.03646 30.8593 4.12404 31.33 5.33795C31.8008 6.55187 31.979 7.8584 31.8503 9.15298C31.7216 10.4476 31.2895 11.6942 30.5888 12.7932C29.888 13.8922 28.938 14.8129 27.8147 15.4818C27.2776 15.7872 26.7909 16.1729 26.3717 16.6252C26.0562 16.9919 26.0193 17.2119 26.0193 17.3119C26.0193 17.5452 26.1468 17.7653 26.3549 17.8786L43.497 27.3392C44.8155 28.0651 45.8536 29.2056 46.4484 30.5815C47.0432 31.9574 47.1607 33.4906 46.7827 34.9401C46.4046 36.3896 45.5523 37.6732 44.3598 38.5891C43.1673 39.505 41.7022 40.0013 40.1948 40H6.79649C5.29101 39.9994 3.82829 39.5025 2.63773 38.5872C1.44716 37.672 0.596081 36.39 0.217955 34.9426C-0.160171 33.495 -0.0439575 31.9638 0.54837 30.589C1.1407 29.2142 2.17564 28.0735 3.49089 27.3459L16.4079 20.2121C16.6973 20.0433 17.0178 19.9337 17.3505 19.8898C17.6832 19.8458 18.0213 19.8684 18.3451 19.9562C18.6689 20.044 18.9717 20.1952 19.2357 20.401C19.4998 20.6068 19.7198 20.8629 19.8827 21.1543C20.0456 21.4458 20.1482 21.7667 20.1845 22.0981C20.2207 22.4295 20.1899 22.7648 20.0938 23.0842C19.9976 23.4036 19.8382 23.7007 19.6247 23.958C19.4113 24.2153 19.1483 24.4276 18.851 24.5824L5.93737 31.7161C5.59405 31.9037 5.32346 32.1996 5.16842 32.5571C5.01337 32.9145 4.9827 33.3131 5.08126 33.6898C5.17982 34.0665 5.40199 34.3998 5.71263 34.6371C6.02328 34.8743 6.40467 35.0019 6.79649 34.9997H40.1948C40.5862 35.0003 40.9668 34.8717 41.2766 34.6341C41.5865 34.3965 41.808 34.0632 41.9064 33.6869C42.0047 33.3105 41.9744 32.9124 41.8201 32.555C41.6658 32.1977 41.3962 31.9014 41.0539 31.7128L23.9051 22.2489C23.0208 21.7583 22.284 21.0427 21.7703 20.1756C21.2566 19.3086 20.9845 18.3213 20.982 17.3152C20.982 15.6785 21.7036 14.3551 22.5258 13.3917C23.3312 12.4416 24.338 11.7182 25.2206 11.1915C25.8501 10.8172 26.3388 10.2482 26.6118 9.57164C26.8848 8.89513 26.9271 8.14839 26.7322 7.44574C26.5372 6.74309 26.1159 6.12326 25.5325 5.68114C24.9492 5.23903 24.2361 4.999 23.5023 4.9978Z" fill="white"/>
</svg>
