<svg width="38" height="35" viewBox="0 0 38 35" fill="none" xmlns="http://www.w3.org/2000/svg">
<path d="M24.2307 0.253082C18.4221 0.253082 13.7132 2.84981 13.7132 6.0577C13.7132 9.26558 18.4234 11.8637 24.2307 11.8637C30.0394 11.8637 34.7482 9.26558 34.7482 6.0577C34.7482 2.84981 30.0381 0.253082 24.2307 0.253082ZM34.7482 7.78212C34.7456 10.99 30.0394 13.5881 24.2307 13.5881C18.4382 13.5881 13.7402 11.0183 13.7132 7.8252V10.0962C13.7132 11.4665 14.5909 12.7212 16.0286 13.7146C17.4825 14.1104 18.7775 14.6596 19.8557 15.3542C21.1925 15.6935 22.6625 15.9008 24.2307 15.9008C30.0394 15.9008 34.7482 13.304 34.7482 10.0962V7.78212ZM34.7482 11.8206C34.7482 15.0285 30.0394 17.6265 24.2307 17.6265C23.524 17.6265 22.8375 17.574 22.1698 17.5C22.6967 18.2096 23.0561 19.0292 23.2211 19.8975C23.5563 19.9164 23.8875 19.9392 24.2307 19.9392C30.0394 19.9392 34.7482 17.3425 34.7482 14.1346V11.8206ZM10.7692 15.0594C4.96056 15.0594 0.251709 17.6575 0.251709 20.8654C0.251709 24.0733 4.9619 26.6714 10.7692 26.6714C16.5779 26.6714 21.2867 24.0733 21.2867 20.8654C21.2867 17.6575 16.5765 15.0594 10.7692 15.0594ZM21.2867 22.5898C21.284 25.7977 16.5779 28.3958 10.7692 28.3958C4.97671 28.3958 0.278632 25.826 0.251709 22.6315V24.9039C0.251709 28.1117 4.95921 30.7098 10.7692 30.7098C16.5792 30.7098 21.2867 28.1117 21.2867 24.9039V22.5898ZM21.2867 26.6283C21.284 29.8362 16.5779 32.4342 10.7692 32.4342C4.97671 32.4342 0.278632 29.8644 0.251709 26.67V28.9423C0.251709 32.1502 4.95921 34.7483 10.7692 34.7483C16.5792 34.7483 21.2867 32.1502 21.2867 28.9423V26.6283Z" fill="#67D38B"/>
<path fill-rule="evenodd" clip-rule="evenodd" d="M37.6923 23.5C37.6923 28.3323 33.7746 32.25 28.9423 32.25C24.1099 32.25 20.1923 28.3323 20.1923 23.5C20.1923 18.6677 24.1099 14.75 28.9423 14.75C33.7746 14.75 37.6923 18.6677 37.6923 23.5ZM28.3589 20.5833C28.0495 20.5833 27.7528 20.7062 27.534 20.925C27.3152 21.1438 27.1923 21.4406 27.1923 21.75C27.1923 22.0594 27.3152 22.3562 27.534 22.575C27.7528 22.7937 28.0495 22.9167 28.3589 22.9167V20.5833ZM29.5256 19.4167V18.8333H28.3589V19.4167C27.7401 19.4167 27.1466 19.6625 26.709 20.1001C26.2714 20.5377 26.0256 21.1312 26.0256 21.75C26.0256 22.3688 26.2714 22.9623 26.709 23.3999C27.1466 23.8375 27.7401 24.0833 28.3589 24.0833V26.4167C27.8514 26.4167 27.4192 26.0929 27.2582 25.6391C27.2343 25.5648 27.1958 25.4961 27.1449 25.437C27.0939 25.3779 27.0317 25.3296 26.9618 25.295C26.8919 25.2604 26.8158 25.2401 26.7379 25.2355C26.6601 25.2308 26.5821 25.2417 26.5085 25.2677C26.435 25.2937 26.3674 25.3342 26.3098 25.3867C26.2522 25.4393 26.2057 25.5029 26.173 25.5737C26.1404 25.6446 26.1223 25.7212 26.1198 25.7992C26.1174 25.8771 26.1305 25.9548 26.1586 26.0276C26.3194 26.4826 26.6174 26.8766 27.0115 27.1552C27.4055 27.4338 27.8763 27.5834 28.3589 27.5833V28.1667H29.5256V27.5833C30.1444 27.5833 30.7379 27.3375 31.1755 26.8999C31.6131 26.4623 31.8589 25.8688 31.8589 25.25C31.8589 24.6312 31.6131 24.0377 31.1755 23.6001C30.7379 23.1625 30.1444 22.9167 29.5256 22.9167V20.5833C30.0331 20.5833 30.4653 20.9071 30.6263 21.3609C30.6502 21.4352 30.6888 21.5039 30.7397 21.563C30.7906 21.6221 30.8528 21.6704 30.9227 21.705C30.9926 21.7396 31.0687 21.7599 31.1466 21.7645C31.2244 21.7692 31.3024 21.7583 31.376 21.7323C31.4495 21.7063 31.5171 21.6658 31.5747 21.6133C31.6324 21.5607 31.6789 21.4971 31.7115 21.4263C31.7441 21.3554 31.7622 21.2788 31.7647 21.2008C31.7672 21.1229 31.754 21.0452 31.7259 20.9724C31.5651 20.5174 31.2671 20.1234 30.8731 19.8448C30.479 19.5662 30.0082 19.4166 29.5256 19.4167ZM29.5256 24.0833V26.4167C29.835 26.4167 30.1318 26.2937 30.3506 26.075C30.5693 25.8562 30.6923 25.5594 30.6923 25.25C30.6923 24.9406 30.5693 24.6438 30.3506 24.425C30.1318 24.2062 29.835 24.0833 29.5256 24.0833Z" fill="#67D38B"/>
</svg>
