<svg width="176" height="73" viewBox="0 0 176 73" fill="none" xmlns="http://www.w3.org/2000/svg">
<rect x="1.5" y="1.5" width="173" height="70" rx="8.5" stroke="#F56C6F" stroke-width="3"/>
<path d="M40.7614 32V17.4545H49.5398V19.017H42.5227V23.9318H49.0852V25.4943H42.5227V30.4375H49.6534V32H40.7614ZM53.7372 21.0909L56.3509 25.5511L58.9645 21.0909H60.8963L57.3736 26.5455L60.8963 32H58.9645L56.3509 27.767L53.7372 32H51.8054L55.2713 26.5455L51.8054 21.0909H53.7372ZM63.288 36.0909V21.0909H64.9073V22.8239H65.1062C65.2293 22.6345 65.3997 22.393 65.6175 22.0994C65.8401 21.8011 66.1573 21.536 66.5692 21.304C66.9859 21.0672 67.5494 20.9489 68.2596 20.9489C69.1781 20.9489 69.9878 21.1785 70.6886 21.6378C71.3893 22.0971 71.9362 22.7481 72.3292 23.5909C72.7222 24.4337 72.9187 25.428 72.9187 26.5739C72.9187 27.7292 72.7222 28.7306 72.3292 29.5781C71.9362 30.4209 71.3917 31.0743 70.6957 31.5384C69.9996 31.9976 69.1971 32.2273 68.288 32.2273C67.5872 32.2273 67.0262 32.1113 66.6048 31.8793C66.1834 31.6425 65.859 31.375 65.6317 31.0767C65.4045 30.7737 65.2293 30.5227 65.1062 30.3239H64.9641V36.0909H63.288ZM64.9357 26.5455C64.9357 27.3693 65.0565 28.0961 65.2979 28.7259C65.5394 29.3509 65.8922 29.8409 66.3562 30.196C66.8202 30.5464 67.3884 30.7216 68.0607 30.7216C68.7615 30.7216 69.3462 30.5369 69.815 30.1676C70.2885 29.7936 70.6436 29.2917 70.8803 28.6619C71.1218 28.0275 71.2425 27.322 71.2425 26.5455C71.2425 25.7784 71.1242 25.0871 70.8874 24.4716C70.6554 23.8513 70.3027 23.3613 69.8292 23.0014C69.3604 22.6368 68.771 22.4545 68.0607 22.4545C67.3789 22.4545 66.806 22.6274 66.342 22.973C65.878 23.3139 65.5276 23.7921 65.2908 24.4077C65.0541 25.0185 64.9357 25.7311 64.9357 26.5455ZM80.0494 32.2273C78.9982 32.2273 78.0915 31.9953 77.3292 31.5312C76.5716 31.0625 75.9869 30.4091 75.5749 29.571C75.1677 28.7282 74.9641 27.7481 74.9641 26.6307C74.9641 25.5133 75.1677 24.5284 75.5749 23.6761C75.9869 22.8191 76.5598 22.1515 77.2937 21.6733C78.0323 21.1903 78.8941 20.9489 79.8789 20.9489C80.4471 20.9489 81.0082 21.0436 81.5621 21.233C82.1161 21.4223 82.6204 21.7301 83.0749 22.1562C83.5295 22.5777 83.8917 23.1364 84.1616 23.8324C84.4315 24.5284 84.5664 25.3854 84.5664 26.4034V27.1136H76.1573V25.6648H82.8619C82.8619 25.0492 82.7388 24.5 82.4925 24.017C82.2511 23.5341 81.9054 23.1529 81.4556 22.8736C81.0105 22.5942 80.485 22.4545 79.8789 22.4545C79.2113 22.4545 78.6336 22.6203 78.146 22.9517C77.663 23.2784 77.2913 23.7045 77.0309 24.2301C76.7705 24.7557 76.6403 25.3191 76.6403 25.9205V26.8864C76.6403 27.7102 76.7823 28.4086 77.0664 28.9815C77.3552 29.5497 77.7553 29.983 78.2667 30.2812C78.7781 30.5748 79.3723 30.7216 80.0494 30.7216C80.4897 30.7216 80.8874 30.66 81.2425 30.5369C81.6024 30.4091 81.9125 30.2197 82.1729 29.9688C82.4334 29.7131 82.6346 29.3958 82.7766 29.017L84.396 29.4716C84.2255 30.0208 83.939 30.5038 83.5366 30.9205C83.1341 31.3324 82.637 31.6544 82.0451 31.8864C81.4532 32.1136 80.788 32.2273 80.0494 32.2273ZM88.7923 25.4375V32H87.1161V21.0909H88.7354V22.7955H88.8775C89.1332 22.2415 89.5214 21.7964 90.0423 21.4602C90.5631 21.1193 91.2354 20.9489 92.0593 20.9489C92.7979 20.9489 93.4442 21.1004 93.9982 21.4034C94.5522 21.7017 94.9831 22.1562 95.2908 22.767C95.5986 23.3731 95.7525 24.1402 95.7525 25.0682V32H94.0763V25.1818C94.0763 24.3248 93.8538 23.6572 93.4087 23.179C92.9637 22.696 92.3529 22.4545 91.5763 22.4545C91.0413 22.4545 90.5631 22.5705 90.1417 22.8026C89.725 23.0346 89.396 23.3731 89.1545 23.8182C88.913 24.2633 88.7923 24.803 88.7923 25.4375ZM106.543 23.5341L105.037 23.9602C104.942 23.7093 104.803 23.4654 104.618 23.2287C104.438 22.9872 104.192 22.7884 103.879 22.6321C103.567 22.4759 103.167 22.3977 102.679 22.3977C102.011 22.3977 101.455 22.5516 101.01 22.8594C100.57 23.1624 100.349 23.5483 100.349 24.017C100.349 24.4337 100.501 24.7628 100.804 25.0043C101.107 25.2457 101.58 25.447 102.224 25.608L103.844 26.0057C104.819 26.2424 105.546 26.6046 106.024 27.0923C106.502 27.5753 106.741 28.1979 106.741 28.9602C106.741 29.5852 106.562 30.1439 106.202 30.6364C105.847 31.1288 105.349 31.517 104.71 31.8011C104.071 32.0852 103.328 32.2273 102.48 32.2273C101.367 32.2273 100.446 31.9858 99.7173 31.5028C98.9882 31.0199 98.5265 30.3144 98.3324 29.3864L99.9233 28.9886C100.075 29.5758 100.361 30.0161 100.783 30.3097C101.209 30.6032 101.765 30.75 102.452 30.75C103.233 30.75 103.853 30.5843 104.312 30.2528C104.777 29.9167 105.009 29.5142 105.009 29.0455C105.009 28.6667 104.876 28.3494 104.611 28.0938C104.346 27.8333 103.938 27.6392 103.389 27.5114L101.571 27.0852C100.572 26.8485 99.8381 26.4815 99.3693 25.9844C98.9053 25.4825 98.6733 24.8551 98.6733 24.1023C98.6733 23.4867 98.8461 22.9422 99.1918 22.4688C99.5421 21.9953 100.018 21.6236 100.619 21.3537C101.225 21.0838 101.912 20.9489 102.679 20.9489C103.759 20.9489 104.606 21.1856 105.222 21.6591C105.842 22.1326 106.282 22.7576 106.543 23.5341ZM113.838 32.2273C112.787 32.2273 111.881 31.9953 111.118 31.5312C110.361 31.0625 109.776 30.4091 109.364 29.571C108.957 28.7282 108.753 27.7481 108.753 26.6307C108.753 25.5133 108.957 24.5284 109.364 23.6761C109.776 22.8191 110.349 22.1515 111.083 21.6733C111.821 21.1903 112.683 20.9489 113.668 20.9489C114.236 20.9489 114.797 21.0436 115.351 21.233C115.905 21.4223 116.409 21.7301 116.864 22.1562C117.319 22.5777 117.681 23.1364 117.951 23.8324C118.221 24.5284 118.355 25.3854 118.355 26.4034V27.1136H109.946V25.6648H116.651C116.651 25.0492 116.528 24.5 116.282 24.017C116.04 23.5341 115.694 23.1529 115.245 22.8736C114.8 22.5942 114.274 22.4545 113.668 22.4545C113 22.4545 112.423 22.6203 111.935 22.9517C111.452 23.2784 111.08 23.7045 110.82 24.2301C110.56 24.7557 110.429 25.3191 110.429 25.9205V26.8864C110.429 27.7102 110.571 28.4086 110.855 28.9815C111.144 29.5497 111.544 29.983 112.056 30.2812C112.567 30.5748 113.161 30.7216 113.838 30.7216C114.279 30.7216 114.676 30.66 115.032 30.5369C115.391 30.4091 115.702 30.2197 115.962 29.9688C116.222 29.7131 116.424 29.3958 116.566 29.017L118.185 29.4716C118.015 30.0208 117.728 30.5038 117.326 30.9205C116.923 31.3324 116.426 31.6544 115.834 31.8864C115.242 32.1136 114.577 32.2273 113.838 32.2273ZM128.632 23.5341L127.127 23.9602C127.032 23.7093 126.892 23.4654 126.708 23.2287C126.528 22.9872 126.282 22.7884 125.969 22.6321C125.657 22.4759 125.257 22.3977 124.769 22.3977C124.101 22.3977 123.545 22.5516 123.1 22.8594C122.659 23.1624 122.439 23.5483 122.439 24.017C122.439 24.4337 122.591 24.7628 122.894 25.0043C123.197 25.2457 123.67 25.447 124.314 25.608L125.934 26.0057C126.909 26.2424 127.636 26.6046 128.114 27.0923C128.592 27.5753 128.831 28.1979 128.831 28.9602C128.831 29.5852 128.651 30.1439 128.292 30.6364C127.936 31.1288 127.439 31.517 126.8 31.8011C126.161 32.0852 125.417 32.2273 124.57 32.2273C123.457 32.2273 122.536 31.9858 121.807 31.5028C121.078 31.0199 120.616 30.3144 120.422 29.3864L122.013 28.9886C122.165 29.5758 122.451 30.0161 122.873 30.3097C123.299 30.6032 123.855 30.75 124.542 30.75C125.323 30.75 125.943 30.5843 126.402 30.2528C126.866 29.9167 127.098 29.5142 127.098 29.0455C127.098 28.6667 126.966 28.3494 126.701 28.0938C126.435 27.8333 126.028 27.6392 125.479 27.5114L123.661 27.0852C122.662 26.8485 121.928 26.4815 121.459 25.9844C120.995 25.4825 120.763 24.8551 120.763 24.1023C120.763 23.4867 120.936 22.9422 121.282 22.4688C121.632 21.9953 122.108 21.6236 122.709 21.3537C123.315 21.0838 124.002 20.9489 124.769 20.9489C125.848 20.9489 126.696 21.1856 127.311 21.6591C127.932 22.1326 128.372 22.7576 128.632 23.5341ZM49.4261 46.5966L48.7727 48.017H39.5114L40.0227 46.5966H49.4261ZM48.2045 49.4375L47.5511 50.858H39.5114L40.0227 49.4375H48.2045ZM51.1023 42.7614L50.4205 44.2386C50.1174 43.964 49.7978 43.7273 49.4616 43.5284C49.1255 43.3295 48.7727 43.1757 48.4034 43.0668C48.0341 42.9579 47.6458 42.9034 47.2386 42.9034C46.4337 42.9034 45.7093 43.1259 45.0653 43.571C44.4214 44.0161 43.9124 44.6719 43.5384 45.5384C43.1643 46.4048 42.9773 47.4678 42.9773 48.7273C42.9773 49.9867 43.1643 51.0497 43.5384 51.9162C43.9124 52.7827 44.4214 53.4384 45.0653 53.8835C45.7093 54.3286 46.4337 54.5511 47.2386 54.5511C47.6553 54.5511 48.0483 54.4967 48.4176 54.3878C48.7917 54.2789 49.1397 54.1297 49.4616 53.9403C49.7884 53.7509 50.089 53.5379 50.3636 53.3011L51.0739 54.7784C50.5767 55.2472 49.9943 55.6023 49.3267 55.8438C48.6591 56.0805 47.9631 56.1989 47.2386 56.1989C46.0739 56.1989 45.0417 55.8958 44.142 55.2898C43.2472 54.6837 42.544 53.822 42.0327 52.7045C41.526 51.5871 41.2727 50.2614 41.2727 48.7273C41.2727 47.1932 41.526 45.8674 42.0327 44.75C42.544 43.6326 43.2472 42.7708 44.142 42.1648C45.0417 41.5587 46.0739 41.2557 47.2386 41.2557C47.9915 41.2557 48.6946 41.3859 49.348 41.6463C50.0062 41.9067 50.5909 42.2784 51.1023 42.7614ZM58.9201 41.4545V56H57.1587V43.3011H57.0735L53.5224 45.6591V43.8693L57.1587 41.4545H58.9201ZM64.7724 54.0114L64.6587 54.7784C64.5782 55.3182 64.4551 55.8958 64.2894 56.5114C64.1284 57.1269 63.9603 57.7069 63.7852 58.2514C63.61 58.7959 63.4656 59.2292 63.3519 59.5511H62.0735C62.1351 59.2481 62.2156 58.848 62.315 58.3509C62.4144 57.8537 62.5138 57.2973 62.6133 56.6818C62.7174 56.071 62.8027 55.446 62.869 54.8068L62.9542 54.0114H64.7724ZM72.2173 56.1989C71.2798 56.1989 70.4441 56.0379 69.7102 55.7159C68.9811 55.3939 68.401 54.9465 67.9702 54.3736C67.544 53.7959 67.312 53.1259 67.2741 52.3636H69.0639C69.1018 52.8324 69.2628 53.2372 69.5469 53.5781C69.831 53.9143 70.2027 54.1747 70.6619 54.3594C71.1212 54.544 71.6302 54.6364 72.1889 54.6364C72.8139 54.6364 73.3679 54.5275 73.8509 54.3097C74.3338 54.0919 74.7126 53.7888 74.9872 53.4006C75.2618 53.0123 75.3991 52.5625 75.3991 52.0511C75.3991 51.5161 75.2666 51.045 75.0014 50.6378C74.7363 50.2259 74.348 49.9039 73.8366 49.6719C73.3253 49.4399 72.7003 49.3239 71.9616 49.3239H70.7969V47.7614H71.9616C72.5393 47.7614 73.0459 47.6572 73.4815 47.4489C73.9219 47.2405 74.2652 46.947 74.5114 46.5682C74.7623 46.1894 74.8878 45.7443 74.8878 45.233C74.8878 44.7405 74.7789 44.312 74.5611 43.9474C74.3433 43.5829 74.0355 43.2988 73.6378 43.0952C73.2448 42.8916 72.7808 42.7898 72.2457 42.7898C71.7438 42.7898 71.2704 42.8821 70.8253 43.0668C70.3849 43.2467 70.0251 43.5095 69.7457 43.8551C69.4664 44.196 69.3149 44.608 69.2912 45.0909H67.5866C67.6151 44.3286 67.8447 43.661 68.2756 43.0881C68.7064 42.5104 69.2699 42.0606 69.9659 41.7386C70.6667 41.4167 71.4361 41.2557 72.2741 41.2557C73.1738 41.2557 73.9455 41.438 74.5895 41.8026C75.2334 42.1624 75.7282 42.6383 76.0739 43.2301C76.4195 43.822 76.5923 44.4612 76.5923 45.1477C76.5923 45.9669 76.3769 46.6652 75.946 47.2429C75.5199 47.8205 74.9399 48.2206 74.206 48.4432V48.5568C75.1245 48.7083 75.8419 49.099 76.358 49.7287C76.8741 50.3537 77.1321 51.1278 77.1321 52.0511C77.1321 52.8419 76.9167 53.5521 76.4858 54.1818C76.0597 54.8068 75.4773 55.2992 74.7386 55.6591C74 56.0189 73.1596 56.1989 72.2173 56.1989ZM84.7812 56.1989C83.7112 56.1989 82.7997 55.9077 82.0469 55.3253C81.294 54.7382 80.7188 53.8883 80.321 52.7756C79.9233 51.6581 79.7244 50.3087 79.7244 48.7273C79.7244 47.1553 79.9233 45.813 80.321 44.7003C80.7235 43.5829 81.3011 42.7306 82.054 42.1435C82.8116 41.5516 83.7206 41.2557 84.7812 41.2557C85.8419 41.2557 86.7486 41.5516 87.5014 42.1435C88.259 42.7306 88.8366 43.5829 89.2344 44.7003C89.6368 45.813 89.8381 47.1553 89.8381 48.7273C89.8381 50.3087 89.6392 51.6581 89.2415 52.7756C88.8438 53.8883 88.2685 54.7382 87.5156 55.3253C86.7628 55.9077 85.8513 56.1989 84.7812 56.1989ZM84.7812 54.6364C85.8419 54.6364 86.6657 54.125 87.2528 53.1023C87.84 52.0795 88.1335 50.6212 88.1335 48.7273C88.1335 47.4678 87.9986 46.3954 87.7287 45.5099C87.4635 44.6245 87.08 43.9498 86.5781 43.4858C86.081 43.0218 85.482 42.7898 84.7812 42.7898C83.7301 42.7898 82.9086 43.3082 82.3168 44.3452C81.7249 45.3774 81.429 46.8381 81.429 48.7273C81.429 49.9867 81.5616 51.0568 81.8267 51.9375C82.0919 52.8182 82.473 53.4882 82.9702 53.9474C83.4721 54.4067 84.0758 54.6364 84.7812 54.6364ZM97.2812 56.1989C96.2112 56.1989 95.2997 55.9077 94.5469 55.3253C93.794 54.7382 93.2188 53.8883 92.821 52.7756C92.4233 51.6581 92.2244 50.3087 92.2244 48.7273C92.2244 47.1553 92.4233 45.813 92.821 44.7003C93.2235 43.5829 93.8011 42.7306 94.554 42.1435C95.3116 41.5516 96.2206 41.2557 97.2812 41.2557C98.3419 41.2557 99.2486 41.5516 100.001 42.1435C100.759 42.7306 101.337 43.5829 101.734 44.7003C102.137 45.813 102.338 47.1553 102.338 48.7273C102.338 50.3087 102.139 51.6581 101.741 52.7756C101.344 53.8883 100.768 54.7382 100.016 55.3253C99.2628 55.9077 98.3513 56.1989 97.2812 56.1989ZM97.2812 54.6364C98.3419 54.6364 99.1657 54.125 99.7528 53.1023C100.34 52.0795 100.634 50.6212 100.634 48.7273C100.634 47.4678 100.499 46.3954 100.229 45.5099C99.9635 44.6245 99.58 43.9498 99.0781 43.4858C98.581 43.0218 97.982 42.7898 97.2812 42.7898C96.2301 42.7898 95.4086 43.3082 94.8168 44.3452C94.2249 45.3774 93.929 46.8381 93.929 48.7273C93.929 49.9867 94.0616 51.0568 94.3267 51.9375C94.5919 52.8182 94.973 53.4882 95.4702 53.9474C95.9721 54.4067 96.5758 54.6364 97.2812 54.6364ZM105.779 56.1136C105.429 56.1136 105.128 55.9882 104.877 55.7372C104.626 55.4863 104.501 55.1856 104.501 54.8352C104.501 54.4848 104.626 54.1842 104.877 53.9332C105.128 53.6823 105.429 53.5568 105.779 53.5568C106.129 53.5568 106.43 53.6823 106.681 53.9332C106.932 54.1842 107.058 54.4848 107.058 54.8352C107.058 55.0672 106.998 55.2803 106.88 55.4744C106.766 55.6686 106.612 55.8248 106.418 55.9432C106.229 56.0568 106.016 56.1136 105.779 56.1136ZM114.289 56.1989C113.456 56.1989 112.706 56.0331 112.038 55.7017C111.37 55.3703 110.835 54.9157 110.433 54.3381C110.03 53.7604 109.81 53.1023 109.772 52.3636H111.477C111.543 53.0218 111.842 53.5663 112.372 53.9972C112.907 54.4233 113.546 54.6364 114.289 54.6364C114.886 54.6364 115.416 54.4967 115.88 54.2173C116.349 53.938 116.716 53.5545 116.981 53.0668C117.251 52.5743 117.386 52.018 117.386 51.3977C117.386 50.7633 117.246 50.1974 116.967 49.7003C116.692 49.1984 116.314 48.803 115.831 48.5142C115.348 48.2254 114.796 48.0786 114.176 48.0739C113.731 48.0691 113.274 48.1378 112.805 48.2798C112.336 48.4171 111.95 48.5947 111.647 48.8125L110 48.6136L110.88 41.4545H118.437V43.017H112.358L111.846 47.3068H111.931C112.23 47.0701 112.604 46.8736 113.054 46.7173C113.503 46.5611 113.972 46.483 114.46 46.483C115.35 46.483 116.143 46.696 116.839 47.1222C117.54 47.5436 118.089 48.1212 118.487 48.8551C118.889 49.589 119.091 50.4271 119.091 51.3693C119.091 52.2973 118.882 53.1259 118.466 53.8551C118.054 54.5795 117.485 55.1525 116.761 55.5739C116.037 55.9905 115.213 56.1989 114.289 56.1989ZM126.656 56.1989C125.586 56.1989 124.675 55.9077 123.922 55.3253C123.169 54.7382 122.594 53.8883 122.196 52.7756C121.798 51.6581 121.599 50.3087 121.599 48.7273C121.599 47.1553 121.798 45.813 122.196 44.7003C122.598 43.5829 123.176 42.7306 123.929 42.1435C124.687 41.5516 125.596 41.2557 126.656 41.2557C127.717 41.2557 128.624 41.5516 129.376 42.1435C130.134 42.7306 130.712 43.5829 131.109 44.7003C131.512 45.813 131.713 47.1553 131.713 48.7273C131.713 50.3087 131.514 51.6581 131.116 52.7756C130.719 53.8883 130.143 54.7382 129.391 55.3253C128.638 55.9077 127.726 56.1989 126.656 56.1989ZM126.656 54.6364C127.717 54.6364 128.541 54.125 129.128 53.1023C129.715 52.0795 130.009 50.6212 130.009 48.7273C130.009 47.4678 129.874 46.3954 129.604 45.5099C129.339 44.6245 128.955 43.9498 128.453 43.4858C127.956 43.0218 127.357 42.7898 126.656 42.7898C125.605 42.7898 124.784 43.3082 124.192 44.3452C123.6 45.3774 123.304 46.8381 123.304 48.7273C123.304 49.9867 123.437 51.0568 123.702 51.9375C123.967 52.8182 124.348 53.4882 124.845 53.9474C125.347 54.4067 125.951 54.6364 126.656 54.6364Z" fill="#F56C6F"/>
</svg>
