<svg width="48" height="43" viewBox="0 0 48 43" fill="none" xmlns="http://www.w3.org/2000/svg">
<path d="M42.2222 17.0557C42.2222 13.4671 40.3918 9.92203 36.9439 7.24023C33.4871 4.55159 28.734 3 23.7222 3C18.7105 3 13.9574 4.55159 10.5005 7.24023C7.0527 9.92203 5.22223 13.4671 5.22223 17.0557L5.23688 17.3467C5.30383 18.0207 5.6014 18.6546 6.08453 19.1377C6.6367 19.6899 7.38569 20 8.16656 20C8.99499 20 9.66656 20.6716 9.66656 21.5C9.66656 22.3284 8.99499 23 8.16656 23C6.59004 23 5.07821 22.3736 3.96344 21.2588C2.91837 20.2137 2.30201 18.8197 2.22906 17.3506L2.22223 17.0557C2.22223 12.3932 4.60552 8.02469 8.65875 4.87207C12.7034 1.72625 18.1253 1.96095e-07 23.7222 0C29.3192 0 34.7411 1.72625 38.7857 4.87207C42.8389 8.02469 45.2222 12.3932 45.2222 17.0557C45.2222 18.6322 44.5958 20.144 43.481 21.2588C42.5401 22.1997 41.3161 22.7901 40.0093 22.9521L32.6412 31.585L32.6402 31.584C30.2831 34.4849 25.7956 34.6797 23.0074 32.4492C22.9929 32.4376 22.9785 32.4252 22.9644 32.4131L11.6314 22.6357C11.0043 22.0947 10.9343 21.1478 11.4752 20.5205C12.0163 19.8933 12.9641 19.8231 13.5914 20.3643L24.899 30.1201C26.5443 31.4202 29.1263 31.1768 30.3287 29.6738C30.3385 29.6616 30.3487 29.6497 30.3589 29.6377L38.1373 20.5264L38.2496 20.4072C38.5263 20.1468 38.8939 20 39.2779 20C40.0588 20 40.8078 19.6899 41.3599 19.1377C41.9121 18.5855 42.2222 17.8365 42.2222 17.0557Z" fill="white"/>
<path d="M44.4443 25.9443C44.4443 25.1635 44.1342 24.4145 43.582 23.8623C43.0298 23.3101 42.2809 23 41.5 23H5.94434C5.16346 23 4.41447 23.3101 3.8623 23.8623C3.31014 24.4145 3.00003 25.1635 3 25.9443C3 26.7252 3.31018 27.4742 3.8623 28.0264C4.41447 28.5785 5.16346 28.8886 5.94434 28.8887H23.0557C23.884 28.8887 24.5555 29.5604 24.5557 30.3887C24.5557 31.2171 23.884 31.8886 23.0557 31.8887H8.16699C7.38623 31.8887 6.63712 32.199 6.08496 32.751C5.53285 33.3031 5.22274 34.0522 5.22266 34.833C5.22266 37.7823 7.43943 39.9999 10.3887 40H37.0557C40.005 39.9999 42.2227 37.7823 42.2227 34.833C42.2226 34.0522 41.9115 33.3031 41.3594 32.751C40.8072 32.199 40.0581 31.8887 39.2773 31.8887H31.9443C31.116 31.8886 30.4443 31.2171 30.4443 30.3887C30.4445 29.5604 31.116 28.8887 31.9443 28.8887H41.5C42.2809 28.8887 43.0298 28.5786 43.582 28.0264C44.1342 27.4742 44.4443 26.7252 44.4443 25.9443ZM47.4443 25.9443C47.4443 27.5209 46.8179 29.0327 45.7031 30.1475C45.2216 30.629 44.6655 31.0185 44.0625 31.3066C44.8109 32.322 45.2226 33.5562 45.2227 34.833C45.2227 39.4392 41.6618 42.9999 37.0557 43H10.3887C5.78257 42.9999 2.22266 39.4391 2.22266 34.833C2.22273 33.5564 2.63267 32.3219 3.38086 31.3066C2.77821 31.0185 2.22254 30.6288 1.74121 30.1475C0.626479 29.0327 0 27.5208 0 25.9443C2.87917e-05 24.3678 0.626437 22.856 1.74121 21.7412C2.85598 20.6264 4.36781 20 5.94434 20H41.5C43.0765 20 44.5883 20.6264 45.7031 21.7412C46.8179 22.856 47.4443 24.3678 47.4443 25.9443Z" fill="white"/>
</svg>
