<svg width="43" height="43" viewBox="0 0 43 43" fill="none" xmlns="http://www.w3.org/2000/svg">
<path d="M24.916 0.638701C25.3915 -0.0391071 26.3267 -0.20352 27.0048 0.271514L37.9169 7.91605C38.595 8.39112 38.7596 9.32643 38.2851 10.0049L34.3066 15.6934C34.026 16.0943 33.5674 16.3329 33.0781 16.333H7.23333C6.67371 16.333 6.16043 16.0219 5.90228 15.5254C5.64416 15.0288 5.68426 14.4298 6.00579 13.9717L13.8066 2.86038L13.9003 2.73929C14.3941 2.16827 15.2483 2.04868 15.8837 2.48538L21.1025 6.07327L24.916 0.638701ZM22.8681 8.7803C22.8288 8.86793 22.7817 8.95266 22.7255 9.03226L19.6865 13.333H32.2968L34.9677 9.51272L26.5107 3.58792L22.8681 8.7803ZM10.1191 13.333H16.0097L19.3798 8.52835L15.4081 5.79886L10.1191 13.333Z" fill="white"/>
<path d="M40 17.055C39.9999 16.7067 39.7523 16.4155 39.4238 16.348L39.2783 16.3333H3.72168C3.32359 16.3334 3.0001 16.6569 3 17.055V39.2776L3.01465 39.4232C3.08191 39.752 3.3732 40.0002 3.72168 40.0003H39.2783C39.6765 40.0002 40 39.6758 40 39.2776V17.055ZM43 39.2776C43 41.3327 41.3333 43.0002 39.2783 43.0003H3.72168C1.73104 43.0002 0.104805 41.4359 0.00488281 39.47L0 39.2776V17.055C0.000101126 15 1.66673 13.3334 3.72168 13.3333H39.2783L39.4697 13.3382C41.4358 13.438 42.9999 15.0642 43 17.055V39.2776Z" fill="white"/>
<path d="M41.4997 22.2219C42.3281 22.2219 42.9997 22.8934 42.9997 23.7219V32.6115C42.9997 33.4399 42.3281 34.1115 41.4997 34.1115H30.3884C29.8995 34.1115 29.4152 34.0154 28.9636 33.8283C28.512 33.6412 28.1021 33.3664 27.7565 33.0207C27.4109 32.6749 27.1368 32.2644 26.9499 31.8127C26.763 31.3609 26.6665 30.8768 26.6667 30.3879V25.9445C26.6668 24.9575 27.0588 24.0108 27.7565 23.3127C28.4542 22.6147 29.4005 22.2225 30.3874 22.2219H41.4997ZM29.6667 30.3889L29.6804 30.5305C29.6895 30.5765 29.7034 30.6216 29.7214 30.6652C29.7576 30.7527 29.8107 30.8326 29.8776 30.8996C29.9446 30.9666 30.0244 31.0205 30.112 31.0568C30.1995 31.0931 30.2936 31.1115 30.3884 31.1115H39.9997V25.2219H30.3893L30.2477 25.2355C30.1088 25.2633 29.9803 25.3321 29.8786 25.4338C29.7432 25.5693 29.6668 25.7529 29.6667 25.9445V30.3889Z" fill="white"/>
</svg>
