<svg width="31" height="43" viewBox="0 0 31 43" fill="none" xmlns="http://www.w3.org/2000/svg">
<path d="M14 26.9152C7.27144 26.1636 2 20.4217 2 13.5002V3.50016C2 3.05079 2.20132 2.62491 2.54883 2.34C2.89631 2.05513 3.35334 1.94139 3.79395 2.02945L3.5 3.50016C3.78301 2.0851 3.79399 2.03139 3.79492 2.02945H3.79688C3.79769 2.02962 3.7988 2.03023 3.7998 2.03043C3.802 2.03087 3.80455 2.03175 3.80762 2.03238C3.8141 2.03372 3.82271 2.03509 3.83301 2.03727C3.8536 2.04161 3.8817 2.04795 3.91699 2.05582C3.9877 2.07159 4.08755 2.09404 4.21289 2.12516C4.46364 2.18741 4.81889 2.28232 5.25391 2.41617C6.12236 2.6834 7.31928 3.10974 8.64941 3.7482C11.2923 5.01686 14.5669 7.17634 16.7725 10.7052L17.5674 11.9767L15.0234 13.5675L14.2275 12.2951C12.4332 9.42429 9.70753 7.58364 7.35059 6.4523C6.47703 6.03301 5.66852 5.71797 5 5.48844V13.5002C5 19.2717 9.72843 24.0002 15.5 24.0002C16.3284 24.0002 17 24.6717 17 25.5002V43.0002H14V26.9152Z" fill="white"/>
<path d="M14.8291 0.158359C15.2514 -0.0527864 15.7486 -0.0527864 16.1709 0.158359L15.5 1.50016L16.1719 0.159336L16.1738 0.160312C16.1751 0.16095 16.177 0.161413 16.1787 0.162265C16.1824 0.164139 16.1877 0.16721 16.1934 0.170078C16.2046 0.175793 16.2199 0.182975 16.2383 0.192539C16.2754 0.211877 16.3267 0.239818 16.3906 0.27457C16.5185 0.344094 16.697 0.444323 16.9121 0.573398C17.341 0.830739 17.9248 1.2085 18.5459 1.69156C19.7417 2.62165 21.2803 4.09806 21.9229 6.02555L22.3975 7.4484L19.5518 8.39762L19.0771 6.97477C18.7197 5.9025 17.7582 4.87862 16.7041 4.05875C16.2603 3.71361 15.8356 3.43243 15.5 3.22574C15.1644 3.43243 14.7397 3.71361 14.2959 4.05875C13.2418 4.87862 12.2803 5.9025 11.9229 6.97477L11.4482 8.39762L8.60254 7.4484L9.07715 6.02555C9.71975 4.09806 11.2583 2.62165 12.4541 1.69156C13.0752 1.2085 13.659 0.830739 14.0879 0.573398C14.303 0.444323 14.4815 0.344094 14.6094 0.27457C14.6733 0.239818 14.7246 0.211877 14.7617 0.192539C14.7801 0.182975 14.7954 0.175793 14.8066 0.170078C14.8123 0.16721 14.8176 0.164139 14.8213 0.162265C14.823 0.161413 14.8249 0.16095 14.8262 0.160312L14.8281 0.159336C14.8284 0.159179 14.8287 0.158747 15.2734 1.04801L14.8291 0.158359Z" fill="white"/>
<path d="M29.5 30.0001C30.3284 30.0001 31 30.6717 31 31.5001C31 35.293 29.357 38.2571 26.4961 40.213C23.7067 42.12 19.8707 43.0001 15.5 43.0001C11.1293 43.0001 7.29329 42.12 4.50391 40.213C1.643 38.2571 0 35.293 0 31.5001C0 30.6717 0.671573 30.0001 1.5 30.0001C5.87066 30.0001 9.70671 30.8803 12.4961 32.7873C13.7387 33.6368 14.7518 34.6764 15.5 35.8918C16.2482 34.6764 17.2613 33.6368 18.5039 32.7873C21.2933 30.8803 25.1293 30.0001 29.5 30.0001ZM3.12988 33.048C3.48355 35.0728 4.55313 36.613 6.19629 37.7365C8.01325 38.9787 10.6109 39.7581 13.8691 39.9513C13.5153 37.9271 12.4466 36.3871 10.8037 35.2638C8.98656 34.0215 6.38856 33.2411 3.12988 33.048ZM27.8691 33.048C24.6109 33.2412 22.0133 34.0216 20.1963 35.2638C18.5534 36.3872 17.4837 37.927 17.1299 39.9513C20.3885 39.7582 22.9866 38.9788 24.8037 37.7365C26.4468 36.613 27.5154 35.0727 27.8691 33.048ZM26 5.37124C21.1587 6.83816 16.8591 11.3337 14.5908 15.8488C13.3254 18.3676 12.8389 20.6134 13.0645 22.089C13.1719 22.7919 13.423 23.2276 13.7314 23.4943C14.0373 23.7587 14.5646 24.0001 15.5 24.0001C21.2716 24.0001 26 19.2717 26 13.5001V5.37124ZM29 13.5001C29 20.9286 22.9284 27.0001 15.5 27.0001C14.0355 27.0001 12.7496 26.6111 11.7695 25.7638C10.792 24.9188 10.2849 23.7611 10.0986 22.5421C9.73678 20.1742 10.5248 17.258 11.9092 14.5021C14.676 8.99458 20.4095 3.01387 27.2842 2.01577C27.715 1.95324 28.1522 2.08063 28.4814 2.36538C28.8107 2.6503 29 3.06472 29 3.50015V13.5001Z" fill="white"/>
</svg>
