<svg width="45" height="40" viewBox="0 0 45 40" fill="none" xmlns="http://www.w3.org/2000/svg">
<path d="M44.0489 9.84669C43.8445 9.55129 43.5715 9.30985 43.2534 9.14304C42.9352 8.97623 42.5814 8.88903 42.2222 8.88891H11.8511L9.28666 2.73336C8.9514 1.92204 8.38226 1.22886 7.65172 0.742097C6.92118 0.255333 6.06229 -0.00299024 5.18444 2.61172e-05H0V4.44447H5.18444L15.7267 29.7445C15.8955 30.1492 16.1804 30.495 16.5454 30.7382C16.9104 30.9814 17.3392 31.1112 17.7778 31.1111H35.5555C36.4822 31.1111 37.3111 30.5356 37.6378 29.6711L44.3044 11.8934C44.4304 11.557 44.473 11.195 44.4285 10.8386C44.384 10.4821 44.2537 10.1418 44.0489 9.84669ZM34.0155 26.6667H19.26L13.7044 13.3334H39.0155L34.0155 26.6667Z" fill="white"/>
<path d="M18.8889 40C20.7298 40 22.2222 38.5076 22.2222 36.6667C22.2222 34.8257 20.7298 33.3333 18.8889 33.3333C17.0479 33.3333 15.5555 34.8257 15.5555 36.6667C15.5555 38.5076 17.0479 40 18.8889 40Z" fill="white"/>
<path d="M34.4444 40C36.2854 40 37.7777 38.5076 37.7777 36.6667C37.7777 34.8257 36.2854 33.3333 34.4444 33.3333C32.6035 33.3333 31.1111 34.8257 31.1111 36.6667C31.1111 38.5076 32.6035 40 34.4444 40Z" fill="white"/>
</svg>
