<svg width="35" height="31" viewBox="0 0 35 31" fill="none" xmlns="http://www.w3.org/2000/svg">
<path d="M0 15.2925C0 15.9956 0.55625 16.4206 1.245 16.4206C1.67 16.4206 2.00687 16.2156 2.3 15.9225L16.5969 2.9C16.7575 2.73875 16.9338 2.68 17.1238 2.68C17.3 2.68 17.4613 2.73875 17.6362 2.9L31.9188 15.9225C32.2262 16.2156 32.5631 16.4206 32.9738 16.4206C33.6619 16.4206 34.2188 15.9956 34.2188 15.2925C34.2188 14.8531 34.0575 14.575 33.7794 14.3256L28.7106 9.71187V1.05438C28.7106 0.41 28.3006 0 27.6562 0H25.7375C25.1075 0 24.6681 0.41 24.6681 1.05438V6.035L18.8669 0.731875C18.3544 0.24875 17.7244 0.0150001 17.1094 0.0150001C16.4937 0.0150001 15.8787 0.249375 15.3512 0.7325L0.439375 14.3256C0.175625 14.575 0 14.8531 0 15.2925ZM4.18937 27.5825C4.18937 29.6187 5.42 30.8056 7.485 30.8056H13.4181V20.39C13.4181 19.7162 13.8719 19.2775 14.5456 19.2775H19.7169C20.3906 19.2775 20.83 19.7162 20.83 20.39V30.8056H26.7481C28.8131 30.8056 30.0294 29.6187 30.0294 27.5825V16.86L17.5925 5.65375C17.4312 5.5075 17.2556 5.43437 17.08 5.43437C16.9187 5.43437 16.7575 5.5075 16.5819 5.66875L4.18937 16.9331V27.5825Z" fill="#9279D9"/>
</svg>
