<svg width="60" height="66" viewBox="0 0 60 66" fill="none" xmlns="http://www.w3.org/2000/svg">
<path d="M30 8.07L45 21.57V45H39V27H21V45H15V21.57L30 8.07ZM30 0L0 27H9V51H27V33H33V51H51V27H60" fill="white"/>
<path d="M14.0568 63V54.2727H15.1136V58.1591H19.767V54.2727H20.8239V63H19.767V59.0966H15.1136V63H14.0568ZM25.4624 63.1364C24.8714 63.1364 24.353 62.9957 23.907 62.7145C23.4638 62.4332 23.1172 62.0398 22.8672 61.5341C22.62 61.0284 22.4964 60.4375 22.4964 59.7614C22.4964 59.0795 22.62 58.4844 22.8672 57.9759C23.1172 57.4673 23.4638 57.0724 23.907 56.7912C24.353 56.5099 24.8714 56.3693 25.4624 56.3693C26.0533 56.3693 26.5703 56.5099 27.0135 56.7912C27.4595 57.0724 27.8061 57.4673 28.0533 57.9759C28.3033 58.4844 28.4283 59.0795 28.4283 59.7614C28.4283 60.4375 28.3033 61.0284 28.0533 61.5341C27.8061 62.0398 27.4595 62.4332 27.0135 62.7145C26.5703 62.9957 26.0533 63.1364 25.4624 63.1364ZM25.4624 62.233C25.9112 62.233 26.2805 62.1179 26.5703 61.8878C26.8601 61.6577 27.0746 61.3551 27.2138 60.9801C27.353 60.6051 27.4226 60.1989 27.4226 59.7614C27.4226 59.3239 27.353 58.9162 27.2138 58.5384C27.0746 58.1605 26.8601 57.8551 26.5703 57.6222C26.2805 57.3892 25.9112 57.2727 25.4624 57.2727C25.0135 57.2727 24.6442 57.3892 24.3544 57.6222C24.0646 57.8551 23.8501 58.1605 23.7109 58.5384C23.5717 58.9162 23.5021 59.3239 23.5021 59.7614C23.5021 60.1989 23.5717 60.6051 23.7109 60.9801C23.8501 61.3551 24.0646 61.6577 24.3544 61.8878C24.6442 62.1179 25.0135 62.233 25.4624 62.233ZM29.9634 63V56.4545H30.935V57.4773H31.0202C31.1566 57.1278 31.3768 56.8565 31.6808 56.6634C31.9847 56.4673 32.3498 56.3693 32.7759 56.3693C33.2077 56.3693 33.5671 56.4673 33.854 56.6634C34.1438 56.8565 34.3697 57.1278 34.5316 57.4773H34.5998C34.7674 57.1392 35.0188 56.8707 35.354 56.6719C35.6893 56.4702 36.0913 56.3693 36.56 56.3693C37.1452 56.3693 37.6239 56.5526 37.9961 56.919C38.3683 57.2827 38.5543 57.8494 38.5543 58.6193V63H37.5487V58.6193C37.5487 58.1364 37.4165 57.7912 37.1523 57.5838C36.8881 57.3764 36.5771 57.2727 36.2191 57.2727C35.7589 57.2727 35.4023 57.4119 35.1495 57.6903C34.8967 57.9659 34.7702 58.3153 34.7702 58.7386V63H33.7475V58.517C33.7475 58.1449 33.6268 57.8452 33.3853 57.6179C33.1438 57.3878 32.8327 57.2727 32.4521 57.2727C32.1907 57.2727 31.9464 57.3423 31.7191 57.4815C31.4947 57.6207 31.3129 57.8139 31.1737 58.0611C31.0373 58.3054 30.9691 58.5881 30.9691 58.9091V63H29.9634ZM43.1374 63.1364C42.5067 63.1364 41.9627 62.9972 41.5053 62.7188C41.0508 62.4375 40.6999 62.0455 40.4528 61.5426C40.2085 61.0369 40.0863 60.4489 40.0863 59.7784C40.0863 59.108 40.2085 58.517 40.4528 58.0057C40.6999 57.4915 41.0437 57.0909 41.484 56.804C41.9272 56.5142 42.4442 56.3693 43.0352 56.3693C43.3761 56.3693 43.7127 56.4261 44.0451 56.5398C44.3775 56.6534 44.68 56.8381 44.9528 57.0938C45.2255 57.3466 45.4428 57.6818 45.6048 58.0994C45.7667 58.517 45.8477 59.0312 45.8477 59.642V60.0682H40.8022V59.1989H44.8249C44.8249 58.8295 44.7511 58.5 44.6033 58.2102C44.4585 57.9205 44.2511 57.6918 43.9812 57.5241C43.7141 57.3565 43.3988 57.2727 43.0352 57.2727C42.6346 57.2727 42.288 57.3722 41.9954 57.571C41.7056 57.767 41.4826 58.0227 41.3263 58.3381C41.1701 58.6534 41.092 58.9915 41.092 59.3523V59.9318C41.092 60.4261 41.1772 60.8452 41.3477 61.1889C41.521 61.5298 41.761 61.7898 42.0678 61.9688C42.3746 62.1449 42.7312 62.233 43.1374 62.233C43.4016 62.233 43.6403 62.196 43.8533 62.1222C44.0692 62.0455 44.2553 61.9318 44.4116 61.7812C44.5678 61.6278 44.6886 61.4375 44.7738 61.2102L45.7454 61.483C45.6431 61.8125 45.4712 62.1023 45.2298 62.3523C44.9883 62.5994 44.69 62.7926 44.3349 62.9318C43.9798 63.0682 43.5806 63.1364 43.1374 63.1364Z" fill="white"/>
</svg>
