<svg width="176" height="73" viewBox="0 0 176 73" fill="none" xmlns="http://www.w3.org/2000/svg">
<g filter="url(#filter0_d_5_8)">
<rect x="5.5" y="1.5" width="165" height="62" rx="8.5" stroke="#67D38B" stroke-width="3" shape-rendering="crispEdges"/>
</g>
<path d="M46.5227 17.4545V32H44.7614V17.4545H46.5227ZM51.5032 25.4375V32H49.8271V21.0909H51.4464V22.7955H51.5884C51.8441 22.2415 52.2324 21.7964 52.7532 21.4602C53.274 21.1193 53.9464 20.9489 54.7702 20.9489C55.5089 20.9489 56.1552 21.1004 56.7092 21.4034C57.2631 21.7017 57.694 22.1562 58.0018 22.767C58.3095 23.3731 58.4634 24.1402 58.4634 25.0682V32H56.7873V25.1818C56.7873 24.3248 56.5647 23.6572 56.1197 23.179C55.6746 22.696 55.0638 22.4545 54.2873 22.4545C53.7522 22.4545 53.274 22.5705 52.8526 22.8026C52.436 23.0346 52.1069 23.3731 51.8654 23.8182C51.6239 24.2633 51.5032 24.803 51.5032 25.4375ZM65.9581 32.2273C64.9354 32.2273 64.0547 31.9858 63.3161 31.5028C62.5774 31.0199 62.0092 30.3546 61.6115 29.5071C61.2138 28.6596 61.0149 27.6913 61.0149 26.6023C61.0149 25.4943 61.2185 24.5166 61.6257 23.669C62.0376 22.8168 62.6106 22.1515 63.3445 21.6733C64.0831 21.1903 64.9448 20.9489 65.9297 20.9489C66.6967 20.9489 67.388 21.0909 68.0036 21.375C68.6191 21.6591 69.1233 22.0568 69.5163 22.5682C69.9093 23.0795 70.1532 23.6761 70.2479 24.358H68.5717C68.4439 23.8608 68.1598 23.4205 67.7195 23.0369C67.2839 22.6487 66.6967 22.4545 65.9581 22.4545C65.3047 22.4545 64.7318 22.625 64.2393 22.9659C63.7517 23.3021 63.3705 23.7779 63.0959 24.3935C62.826 25.0043 62.6911 25.7216 62.6911 26.5455C62.6911 27.3883 62.8236 28.1222 63.0888 28.7472C63.3587 29.3722 63.7375 29.8575 64.2251 30.2031C64.7176 30.5488 65.2952 30.7216 65.9581 30.7216C66.3937 30.7216 66.7891 30.6458 67.1442 30.4943C67.4993 30.3428 67.8 30.125 68.0462 29.8409C68.2924 29.5568 68.4676 29.2159 68.5717 28.8182H70.2479C70.1532 29.4621 69.9188 30.0421 69.5447 30.5582C69.1754 31.0696 68.6854 31.4768 68.0746 31.7798C67.4685 32.0781 66.763 32.2273 65.9581 32.2273ZM77.13 32.2273C76.1451 32.2273 75.281 31.9929 74.5376 31.5241C73.799 31.0554 73.2214 30.3996 72.8047 29.5568C72.3928 28.714 72.1868 27.7292 72.1868 26.6023C72.1868 25.4659 72.3928 24.474 72.8047 23.6264C73.2214 22.7789 73.799 22.1207 74.5376 21.652C75.281 21.1832 76.1451 20.9489 77.13 20.9489C78.1148 20.9489 78.9766 21.1832 79.7152 21.652C80.4586 22.1207 81.0362 22.7789 81.4482 23.6264C81.8648 24.474 82.0732 25.4659 82.0732 26.6023C82.0732 27.7292 81.8648 28.714 81.4482 29.5568C81.0362 30.3996 80.4586 31.0554 79.7152 31.5241C78.9766 31.9929 78.1148 32.2273 77.13 32.2273ZM77.13 30.7216C77.8781 30.7216 78.4936 30.5298 78.9766 30.1463C79.4595 29.7628 79.817 29.2585 80.049 28.6335C80.281 28.0085 80.397 27.3314 80.397 26.6023C80.397 25.8731 80.281 25.1937 80.049 24.5639C79.817 23.9342 79.4595 23.4252 78.9766 23.0369C78.4936 22.6487 77.8781 22.4545 77.13 22.4545C76.3819 22.4545 75.7663 22.6487 75.2834 23.0369C74.8004 23.4252 74.4429 23.9342 74.2109 24.5639C73.9789 25.1937 73.8629 25.8731 73.8629 26.6023C73.8629 27.3314 73.9789 28.0085 74.2109 28.6335C74.4429 29.2585 74.8004 29.7628 75.2834 30.1463C75.7663 30.5298 76.3819 30.7216 77.13 30.7216ZM84.6317 32V21.0909H86.2511V22.7955H86.3931C86.6204 22.2131 86.9873 21.7609 87.494 21.4389C88.0006 21.1122 88.609 20.9489 89.3192 20.9489C90.0389 20.9489 90.6379 21.1122 91.1161 21.4389C91.5991 21.7609 91.9755 22.2131 92.2454 22.7955H92.359C92.6384 22.232 93.0574 21.7846 93.6161 21.4531C94.1748 21.117 94.8448 20.9489 95.6261 20.9489C96.6014 20.9489 97.3993 21.2543 98.0195 21.8651C98.6398 22.4711 98.9499 23.4157 98.9499 24.6989V32H97.2738V24.6989C97.2738 23.8939 97.0536 23.3187 96.6133 22.973C96.1729 22.6274 95.6545 22.4545 95.0579 22.4545C94.2908 22.4545 93.6966 22.6866 93.2752 23.1506C92.8538 23.6098 92.6431 24.1922 92.6431 24.8977V32H90.9386V24.5284C90.9386 23.9081 90.7373 23.4086 90.3349 23.0298C89.9324 22.6463 89.4139 22.4545 88.7795 22.4545C88.3439 22.4545 87.9367 22.5705 87.5579 22.8026C87.1838 23.0346 86.8808 23.3565 86.6488 23.7685C86.4215 24.1757 86.3079 24.6468 86.3079 25.1818V32H84.6317ZM106.588 32.2273C105.537 32.2273 104.631 31.9953 103.868 31.5312C103.111 31.0625 102.526 30.4091 102.114 29.571C101.707 28.7282 101.503 27.7481 101.503 26.6307C101.503 25.5133 101.707 24.5284 102.114 23.6761C102.526 22.8191 103.099 22.1515 103.833 21.6733C104.571 21.1903 105.433 20.9489 106.418 20.9489C106.986 20.9489 107.547 21.0436 108.101 21.233C108.655 21.4223 109.159 21.7301 109.614 22.1562C110.069 22.5777 110.431 23.1364 110.701 23.8324C110.971 24.5284 111.105 25.3854 111.105 26.4034V27.1136H102.696V25.6648H109.401C109.401 25.0492 109.278 24.5 109.032 24.017C108.79 23.5341 108.444 23.1529 107.995 22.8736C107.55 22.5942 107.024 22.4545 106.418 22.4545C105.75 22.4545 105.173 22.6203 104.685 22.9517C104.202 23.2784 103.83 23.7045 103.57 24.2301C103.31 24.7557 103.179 25.3191 103.179 25.9205V26.8864C103.179 27.7102 103.321 28.4086 103.605 28.9815C103.894 29.5497 104.294 29.983 104.806 30.2812C105.317 30.5748 105.911 30.7216 106.588 30.7216C107.029 30.7216 107.426 30.66 107.782 30.5369C108.141 30.4091 108.452 30.2197 108.712 29.9688C108.972 29.7131 109.174 29.3958 109.316 29.017L110.935 29.4716C110.765 30.0208 110.478 30.5038 110.076 30.9205C109.673 31.3324 109.176 31.6544 108.584 31.8864C107.992 32.1136 107.327 32.2273 106.588 32.2273ZM53.4261 46.5966L52.7727 48.017H43.5114L44.0227 46.5966H53.4261ZM52.2045 49.4375L51.5511 50.858H43.5114L44.0227 49.4375H52.2045ZM55.1023 42.7614L54.4205 44.2386C54.1174 43.964 53.7978 43.7273 53.4616 43.5284C53.1255 43.3295 52.7727 43.1757 52.4034 43.0668C52.0341 42.9579 51.6458 42.9034 51.2386 42.9034C50.4337 42.9034 49.7093 43.1259 49.0653 43.571C48.4214 44.0161 47.9124 44.6719 47.5384 45.5384C47.1643 46.4048 46.9773 47.4678 46.9773 48.7273C46.9773 49.9867 47.1643 51.0497 47.5384 51.9162C47.9124 52.7827 48.4214 53.4384 49.0653 53.8835C49.7093 54.3286 50.4337 54.5511 51.2386 54.5511C51.6553 54.5511 52.0483 54.4967 52.4176 54.3878C52.7917 54.2789 53.1397 54.1297 53.4616 53.9403C53.7884 53.7509 54.089 53.5379 54.3636 53.3011L55.0739 54.7784C54.5767 55.2472 53.9943 55.6023 53.3267 55.8438C52.6591 56.0805 51.9631 56.1989 51.2386 56.1989C50.0739 56.1989 49.0417 55.8958 48.142 55.2898C47.2472 54.6837 46.544 53.822 46.0327 52.7045C45.526 51.5871 45.2727 50.2614 45.2727 48.7273C45.2727 47.1932 45.526 45.8674 46.0327 44.75C46.544 43.6326 47.2472 42.7708 48.142 42.1648C49.0417 41.5587 50.0739 41.2557 51.2386 41.2557C51.9915 41.2557 52.6946 41.3859 53.348 41.6463C54.0062 41.9067 54.5909 42.2784 55.1023 42.7614ZM57.8065 56V54.7216L62.6076 49.4659C63.171 48.8504 63.6351 48.3153 63.9996 47.8608C64.3642 47.4015 64.6341 46.9706 64.8093 46.5682C64.9892 46.161 65.0792 45.7348 65.0792 45.2898C65.0792 44.7784 64.9561 44.3357 64.7099 43.9616C64.4684 43.5876 64.137 43.2988 63.7156 43.0952C63.2942 42.8916 62.8207 42.7898 62.2951 42.7898C61.7364 42.7898 61.2487 42.9058 60.832 43.1378C60.4201 43.3651 60.1005 43.6847 59.8732 44.0966C59.6507 44.5085 59.5394 44.9915 59.5394 45.5455H57.8633C57.8633 44.6932 58.0598 43.9451 58.4528 43.3011C58.8458 42.6572 59.3808 42.1553 60.0579 41.7955C60.7397 41.4356 61.5044 41.2557 62.3519 41.2557C63.2042 41.2557 63.9594 41.4356 64.6175 41.7955C65.2757 42.1553 65.7918 42.6406 66.1658 43.2514C66.5399 43.8622 66.7269 44.5417 66.7269 45.2898C66.7269 45.8248 66.6299 46.348 66.4357 46.8594C66.2463 47.366 65.9149 47.9318 65.4414 48.5568C64.9727 49.1771 64.3216 49.9347 63.4883 50.8295L60.2212 54.3239V54.4375H66.9826V56H57.8065ZM72.4442 54.0114L72.3306 54.7784C72.2501 55.3182 72.127 55.8958 71.9613 56.5114C71.8003 57.1269 71.6322 57.7069 71.457 58.2514C71.2818 58.7959 71.1374 59.2292 71.0238 59.5511H69.7454C69.8069 59.2481 69.8874 58.848 69.9869 58.3509C70.0863 57.8537 70.1857 57.2973 70.2852 56.6818C70.3893 56.071 70.4746 55.446 70.5408 54.8068L70.6261 54.0114H72.4442ZM79.7312 56.1989C78.7558 56.1989 77.8941 56.026 77.146 55.6804C76.4026 55.33 75.8226 54.8494 75.4059 54.2386C74.9892 53.6231 74.7833 52.9223 74.788 52.1364C74.7833 51.5208 74.904 50.9527 75.1502 50.4318C75.3964 49.9062 75.7326 49.4683 76.1587 49.1179C76.5896 48.7628 77.0702 48.5379 77.6005 48.4432V48.358C76.9045 48.178 76.3505 47.7874 75.9386 47.1861C75.5266 46.58 75.323 45.8911 75.3278 45.1193C75.323 44.3807 75.5101 43.7202 75.8888 43.1378C76.2676 42.5554 76.7885 42.0961 77.4513 41.7599C78.119 41.4238 78.8789 41.2557 79.7312 41.2557C80.574 41.2557 81.3268 41.4238 81.9897 41.7599C82.6526 42.0961 83.1734 42.5554 83.5522 43.1378C83.9357 43.7202 84.1299 44.3807 84.1346 45.1193C84.1299 45.8911 83.9192 46.58 83.5025 47.1861C83.0906 47.7874 82.5437 48.178 81.8619 48.358V48.4432C82.3874 48.5379 82.8609 48.7628 83.2823 49.1179C83.7037 49.4683 84.0399 49.9062 84.2908 50.4318C84.5418 50.9527 84.6696 51.5208 84.6744 52.1364C84.6696 52.9223 84.4566 53.6231 84.0352 54.2386C83.6185 54.8494 83.0385 55.33 82.2951 55.6804C81.5565 56.026 80.7018 56.1989 79.7312 56.1989ZM79.7312 54.6364C80.3893 54.6364 80.9575 54.5298 81.4357 54.3168C81.9139 54.1037 82.2833 53.803 82.5437 53.4148C82.8041 53.0265 82.9367 52.572 82.9414 52.0511C82.9367 51.5019 82.7946 51.0166 82.5153 50.5952C82.2359 50.1738 81.8548 49.8423 81.3718 49.6009C80.8936 49.3594 80.3467 49.2386 79.7312 49.2386C79.1109 49.2386 78.5569 49.3594 78.0692 49.6009C77.5863 49.8423 77.2051 50.1738 76.9258 50.5952C76.6512 51.0166 76.5162 51.5019 76.521 52.0511C76.5162 52.572 76.6417 53.0265 76.8974 53.4148C77.1578 53.803 77.5295 54.1037 78.0124 54.3168C78.4954 54.5298 79.0683 54.6364 79.7312 54.6364ZM79.7312 47.733C80.252 47.733 80.7137 47.6288 81.1161 47.4205C81.5233 47.2121 81.8429 46.9209 82.0749 46.5469C82.3069 46.1728 82.4253 45.7348 82.43 45.233C82.4253 44.7405 82.3093 44.312 82.082 43.9474C81.8548 43.5781 81.5399 43.294 81.1374 43.0952C80.735 42.8916 80.2662 42.7898 79.7312 42.7898C79.1867 42.7898 78.7108 42.8916 78.3036 43.0952C77.8964 43.294 77.5816 43.5781 77.359 43.9474C77.1365 44.312 77.0276 44.7405 77.0323 45.233C77.0276 45.7348 77.1388 46.1728 77.3661 46.5469C77.5981 46.9209 77.9177 47.2121 78.3249 47.4205C78.7321 47.6288 79.2009 47.733 79.7312 47.733ZM92.1406 56.1989C91.0705 56.1989 90.1591 55.9077 89.4062 55.3253C88.6534 54.7382 88.0781 53.8883 87.6804 52.7756C87.2827 51.6581 87.0838 50.3087 87.0838 48.7273C87.0838 47.1553 87.2827 45.813 87.6804 44.7003C88.0829 43.5829 88.6605 42.7306 89.4134 42.1435C90.1709 41.5516 91.08 41.2557 92.1406 41.2557C93.2012 41.2557 94.108 41.5516 94.8608 42.1435C95.6184 42.7306 96.196 43.5829 96.5938 44.7003C96.9962 45.813 97.1974 47.1553 97.1974 48.7273C97.1974 50.3087 96.9986 51.6581 96.6009 52.7756C96.2031 53.8883 95.6278 54.7382 94.875 55.3253C94.1222 55.9077 93.2107 56.1989 92.1406 56.1989ZM92.1406 54.6364C93.2012 54.6364 94.0251 54.125 94.6122 53.1023C95.1993 52.0795 95.4929 50.6212 95.4929 48.7273C95.4929 47.4678 95.358 46.3954 95.0881 45.5099C94.8229 44.6245 94.4394 43.9498 93.9375 43.4858C93.4403 43.0218 92.8414 42.7898 92.1406 42.7898C91.0895 42.7898 90.268 43.3082 89.6761 44.3452C89.0843 45.3774 88.7884 46.8381 88.7884 48.7273C88.7884 49.9867 88.9209 51.0568 89.1861 51.9375C89.4512 52.8182 89.8324 53.4882 90.3295 53.9474C90.8314 54.4067 91.4351 54.6364 92.1406 54.6364ZM104.641 56.1989C103.571 56.1989 102.659 55.9077 101.906 55.3253C101.153 54.7382 100.578 53.8883 100.18 52.7756C99.7827 51.6581 99.5838 50.3087 99.5838 48.7273C99.5838 47.1553 99.7827 45.813 100.18 44.7003C100.583 43.5829 101.161 42.7306 101.913 42.1435C102.671 41.5516 103.58 41.2557 104.641 41.2557C105.701 41.2557 106.608 41.5516 107.361 42.1435C108.118 42.7306 108.696 43.5829 109.094 44.7003C109.496 45.813 109.697 47.1553 109.697 48.7273C109.697 50.3087 109.499 51.6581 109.101 52.7756C108.703 53.8883 108.128 54.7382 107.375 55.3253C106.622 55.9077 105.711 56.1989 104.641 56.1989ZM104.641 54.6364C105.701 54.6364 106.525 54.125 107.112 53.1023C107.699 52.0795 107.993 50.6212 107.993 48.7273C107.993 47.4678 107.858 46.3954 107.588 45.5099C107.323 44.6245 106.939 43.9498 106.438 43.4858C105.94 43.0218 105.341 42.7898 104.641 42.7898C103.589 42.7898 102.768 43.3082 102.176 44.3452C101.584 45.3774 101.288 46.8381 101.288 48.7273C101.288 49.9867 101.421 51.0568 101.686 51.9375C101.951 52.8182 102.332 53.4882 102.83 53.9474C103.331 54.4067 103.935 54.6364 104.641 54.6364ZM113.138 56.1136C112.788 56.1136 112.487 55.9882 112.237 55.7372C111.986 55.4863 111.86 55.1856 111.86 54.8352C111.86 54.4848 111.986 54.1842 112.237 53.9332C112.487 53.6823 112.788 53.5568 113.138 53.5568C113.489 53.5568 113.79 53.6823 114.04 53.9332C114.291 54.1842 114.417 54.4848 114.417 54.8352C114.417 55.0672 114.358 55.2803 114.239 55.4744C114.126 55.6686 113.972 55.8248 113.778 55.9432C113.588 56.0568 113.375 56.1136 113.138 56.1136ZM121.633 56.1989C120.563 56.1989 119.651 55.9077 118.898 55.3253C118.146 54.7382 117.57 53.8883 117.173 52.7756C116.775 51.6581 116.576 50.3087 116.576 48.7273C116.576 47.1553 116.775 45.813 117.173 44.7003C117.575 43.5829 118.153 42.7306 118.906 42.1435C119.663 41.5516 120.572 41.2557 121.633 41.2557C122.693 41.2557 123.6 41.5516 124.353 42.1435C125.111 42.7306 125.688 43.5829 126.086 44.7003C126.488 45.813 126.69 47.1553 126.69 48.7273C126.69 50.3087 126.491 51.6581 126.093 52.7756C125.695 53.8883 125.12 54.7382 124.367 55.3253C123.614 55.9077 122.703 56.1989 121.633 56.1989ZM121.633 54.6364C122.693 54.6364 123.517 54.125 124.104 53.1023C124.692 52.0795 124.985 50.6212 124.985 48.7273C124.985 47.4678 124.85 46.3954 124.58 45.5099C124.315 44.6245 123.932 43.9498 123.43 43.4858C122.933 43.0218 122.334 42.7898 121.633 42.7898C120.582 42.7898 119.76 43.3082 119.168 44.3452C118.576 45.3774 118.281 46.8381 118.281 48.7273C118.281 49.9867 118.413 51.0568 118.678 51.9375C118.943 52.8182 119.325 53.4882 119.822 53.9474C120.324 54.4067 120.927 54.6364 121.633 54.6364ZM134.133 56.1989C133.063 56.1989 132.151 55.9077 131.398 55.3253C130.646 54.7382 130.07 53.8883 129.673 52.7756C129.275 51.6581 129.076 50.3087 129.076 48.7273C129.076 47.1553 129.275 45.813 129.673 44.7003C130.075 43.5829 130.653 42.7306 131.406 42.1435C132.163 41.5516 133.072 41.2557 134.133 41.2557C135.193 41.2557 136.1 41.5516 136.853 42.1435C137.611 42.7306 138.188 43.5829 138.586 44.7003C138.988 45.813 139.19 47.1553 139.19 48.7273C139.19 50.3087 138.991 51.6581 138.593 52.7756C138.195 53.8883 137.62 54.7382 136.867 55.3253C136.114 55.9077 135.203 56.1989 134.133 56.1989ZM134.133 54.6364C135.193 54.6364 136.017 54.125 136.604 53.1023C137.192 52.0795 137.485 50.6212 137.485 48.7273C137.485 47.4678 137.35 46.3954 137.08 45.5099C136.815 44.6245 136.432 43.9498 135.93 43.4858C135.433 43.0218 134.834 42.7898 134.133 42.7898C133.082 42.7898 132.26 43.3082 131.668 44.3452C131.076 45.3774 130.781 46.8381 130.781 48.7273C130.781 49.9867 130.913 51.0568 131.178 51.9375C131.443 52.8182 131.825 53.4882 132.322 53.9474C132.824 54.4067 133.427 54.6364 134.133 54.6364Z" fill="#67D38B"/>
<defs>
<filter id="filter0_d_5_8" x="0" y="0" width="176" height="73" filterUnits="userSpaceOnUse" color-interpolation-filters="sRGB">
<feFlood flood-opacity="0" result="BackgroundImageFix"/>
<feColorMatrix in="SourceAlpha" type="matrix" values="0 0 0 0 0 0 0 0 0 0 0 0 0 0 0 0 0 0 127 0" result="hardAlpha"/>
<feOffset dy="4"/>
<feGaussianBlur stdDeviation="2"/>
<feComposite in2="hardAlpha" operator="out"/>
<feColorMatrix type="matrix" values="0 0 0 0 0 0 0 0 0 0 0 0 0 0 0 0 0 0 0.25 0"/>
<feBlend mode="normal" in2="BackgroundImageFix" result="effect1_dropShadow_5_8"/>
<feBlend mode="normal" in="SourceGraphic" in2="effect1_dropShadow_5_8" result="shape"/>
</filter>
</defs>
</svg>
