<svg width="35" height="35" viewBox="0 0 35 35" fill="none" xmlns="http://www.w3.org/2000/svg">
<path d="M6.82831 4.375C6.75579 4.375 6.68624 4.40381 6.63496 4.45509C6.58368 4.50637 6.55487 4.57592 6.55487 4.64844V19.4141C6.55487 19.565 6.67737 19.6875 6.82831 19.6875H28.1641C28.2366 19.6875 28.3062 19.6587 28.3574 19.6074C28.4087 19.5561 28.4375 19.4866 28.4375 19.4141V4.64844C28.4375 4.57592 28.4087 4.50637 28.3574 4.45509C28.3062 4.40381 28.2366 4.375 28.1641 4.375H6.82831ZM28.7317 23.275L29.5192 26.8297C29.5323 26.8902 29.5316 26.9528 29.5174 27.013C29.5031 27.0732 29.4756 27.1295 29.4368 27.1777C29.398 27.2259 29.349 27.2648 29.2932 27.2917C29.2375 27.3185 29.1764 27.3326 29.1146 27.3328H5.87675C5.61425 27.3328 5.41737 27.0813 5.47206 26.8297L6.25956 23.275C6.30331 23.0891 6.46737 22.9578 6.66425 22.9578H28.3282C28.525 22.9578 28.6891 23.0891 28.7328 23.275M11.8289 30.6141H23.1624C23.3374 30.6141 23.4686 30.45 23.4249 30.275L23.0092 28.6344C22.9939 28.576 22.96 28.5242 22.9127 28.4867C22.8653 28.4492 22.8071 28.4281 22.7468 28.4266H12.2446C12.1242 28.4266 12.0149 28.5141 11.9821 28.6344L11.5664 30.275C11.5227 30.45 11.6539 30.6141 11.8289 30.6141Z" fill="black"/>
<path d="M33.8691 31.3742L31.7188 21.2187V3.28125C31.7188 2.99389 31.6621 2.70935 31.5521 2.44388C31.4421 2.17841 31.2809 1.93721 31.0777 1.73407C30.8744 1.53092 30.6331 1.36982 30.3676 1.25995C30.1021 1.15008 29.8175 1.09361 29.5302 1.09375H5.4611C4.88094 1.09375 4.32454 1.32422 3.91431 1.73445C3.50407 2.14469 3.2736 2.70109 3.2736 3.28125V21.2187L1.13094 31.3742C1.10347 31.5206 1.091 31.6694 1.09376 31.8183C1.09404 32.3708 1.31322 32.9007 1.70331 33.2921C2.0934 33.6834 2.62263 33.9042 3.17516 33.9062H31.8172C32.3707 33.9051 32.9012 33.6848 33.2927 33.2935C33.6842 32.9022 33.9048 32.3718 33.9063 31.8183C33.9063 31.6761 33.8997 31.5131 33.8691 31.3742ZM29.5302 3.28125V20.7812H5.4611V3.28125H29.5302ZM31.698 31.7188H3.29219L5.36923 21.875H29.6209L31.698 31.7188Z" fill="black"/>
</svg>
