<svg width="40" height="40" viewBox="0 0 40 40" fill="none" xmlns="http://www.w3.org/2000/svg">
<path fill-rule="evenodd" clip-rule="evenodd" d="M13.3333 4.44444C13.3333 3.2657 13.8016 2.13524 14.6351 1.30175C15.4686 0.468252 16.599 0 17.7778 0H22.2222C23.401 0 24.5314 0.468252 25.3649 1.30175C26.1984 2.13524 26.6667 3.2657 26.6667 4.44444V13.3333H35.5556C36.7343 13.3333 37.8648 13.8016 38.6983 14.6351C39.5317 15.4686 40 16.599 40 17.7778V22.2222C40 23.401 39.5317 24.5314 38.6983 25.3649C37.8648 26.1984 36.7343 26.6667 35.5556 26.6667H26.6667V35.5556C26.6667 36.7343 26.1984 37.8648 25.3649 38.6983C24.5314 39.5317 23.401 40 22.2222 40H17.7778C16.599 40 15.4686 39.5317 14.6351 38.6983C13.8016 37.8648 13.3333 36.7343 13.3333 35.5556V26.6667H4.44444C3.2657 26.6667 2.13524 26.1984 1.30175 25.3649C0.468252 24.5314 0 23.401 0 22.2222V17.7778C0 16.599 0.468252 15.4686 1.30175 14.6351C2.13524 13.8016 3.2657 13.3333 4.44444 13.3333H13.3333V4.44444ZM22.2222 4.44444H17.7778V15.5556C17.7778 16.1449 17.5437 16.7102 17.1269 17.1269C16.7102 17.5437 16.1449 17.7778 15.5556 17.7778H4.44444V22.2222H15.5556C16.1449 22.2222 16.7102 22.4564 17.1269 22.8731C17.5437 23.2898 17.7778 23.8551 17.7778 24.4444V35.5556H22.2222V24.4444C22.2222 23.8551 22.4564 23.2898 22.8731 22.8731C23.2898 22.4564 23.8551 22.2222 24.4444 22.2222H35.5556V17.7778H24.4444C23.8551 17.7778 23.2898 17.5437 22.8731 17.1269C22.4564 16.7102 22.2222 16.1449 22.2222 15.5556V4.44444Z" fill="white"/>
</svg>
