<svg width="159" height="48" viewBox="0 0 159 48" fill="none" xmlns="http://www.w3.org/2000/svg">
<path d="M0.522727 0.90909H4.72727L14.6136 25.0568H14.9545L24.8409 0.90909H29.0455V30H25.75V7.89773H25.4659L16.375 30H13.1932L4.10227 7.89773H3.81818V30H0.522727V0.90909ZM44.5178 30.4545C42.5481 30.4545 40.8198 29.9858 39.3331 29.0483C37.8558 28.1108 36.7005 26.7992 35.8672 25.1136C35.0433 23.428 34.6314 21.4583 34.6314 19.2045C34.6314 16.9318 35.0433 14.9479 35.8672 13.2528C36.7005 11.5578 37.8558 10.2415 39.3331 9.30398C40.8198 8.36648 42.5481 7.89773 44.5178 7.89773C46.4875 7.89773 48.2109 8.36648 49.6882 9.30398C51.175 10.2415 52.3303 11.5578 53.1541 13.2528C53.9875 14.9479 54.4041 16.9318 54.4041 19.2045C54.4041 21.4583 53.9875 23.428 53.1541 25.1136C52.3303 26.7992 51.175 28.1108 49.6882 29.0483C48.2109 29.9858 46.4875 30.4545 44.5178 30.4545ZM44.5178 27.4432C46.014 27.4432 47.245 27.0597 48.2109 26.2926C49.1768 25.5256 49.8918 24.517 50.3558 23.267C50.8198 22.017 51.0518 20.6629 51.0518 19.2045C51.0518 17.7462 50.8198 16.3873 50.3558 15.1278C49.8918 13.8684 49.1768 12.8504 48.2109 12.0739C47.245 11.2973 46.014 10.9091 44.5178 10.9091C43.0215 10.9091 41.7905 11.2973 40.8246 12.0739C39.8587 12.8504 39.1437 13.8684 38.6797 15.1278C38.2157 16.3873 37.9837 17.7462 37.9837 19.2045C37.9837 20.6629 38.2157 22.017 38.6797 23.267C39.1437 24.517 39.8587 25.5256 40.8246 26.2926C41.7905 27.0597 43.0215 27.4432 44.5178 27.4432ZM62.8736 16.875V30H59.5213V8.18182H62.7599V11.5909H63.044C63.5554 10.483 64.3319 9.5928 65.3736 8.92045C66.4152 8.23864 67.7599 7.89773 69.4077 7.89773C70.8849 7.89773 72.1776 8.20076 73.2855 8.80682C74.3935 9.40341 75.2552 10.3125 75.8707 11.5341C76.4863 12.7462 76.794 14.2803 76.794 16.1364V30H73.4418V16.3636C73.4418 14.6496 72.9967 13.3144 72.1065 12.358C71.2164 11.392 69.9948 10.9091 68.4418 10.9091C67.3717 10.9091 66.4152 11.1411 65.5724 11.6051C64.7391 12.0691 64.081 12.7462 63.598 13.6364C63.1151 14.5265 62.8736 15.6061 62.8736 16.875ZM92.0675 30.4545C89.9652 30.4545 88.1518 29.9905 86.6271 29.0625C85.112 28.125 83.9425 26.8182 83.1186 25.142C82.3042 23.4564 81.897 21.4962 81.897 19.2614C81.897 17.0265 82.3042 15.0568 83.1186 13.3523C83.9425 11.6383 85.0883 10.303 86.5561 9.34659C88.0334 8.38068 89.7569 7.89773 91.7266 7.89773C92.8629 7.89773 93.9851 8.08712 95.093 8.46591C96.201 8.8447 97.2095 9.46023 98.1186 10.3125C99.0277 11.1553 99.7521 12.2727 100.292 13.6648C100.832 15.0568 101.102 16.7708 101.102 18.8068V20.2273H84.2834V17.3295H97.6925C97.6925 16.0985 97.4463 15 96.9538 14.0341C96.4709 13.0682 95.7796 12.3059 94.88 11.7472C93.9898 11.1884 92.9387 10.9091 91.7266 10.9091C90.3913 10.9091 89.236 11.2405 88.2607 11.9034C87.2947 12.5568 86.5514 13.4091 86.0305 14.4602C85.5097 15.5114 85.2493 16.6383 85.2493 17.8409V19.7727C85.2493 21.4205 85.5334 22.8172 86.1016 23.9631C86.6792 25.0994 87.4794 25.9659 88.5021 26.5625C89.5249 27.1496 90.7133 27.4432 92.0675 27.4432C92.9482 27.4432 93.7436 27.3201 94.4538 27.0739C95.1735 26.8182 95.7938 26.4394 96.3146 25.9375C96.8355 25.4261 97.2379 24.7917 97.522 24.0341L100.761 24.9432C100.42 26.0417 99.8468 27.0076 99.0419 27.8409C98.237 28.6648 97.2427 29.3087 96.0589 29.7727C94.8752 30.2273 93.5447 30.4545 92.0675 30.4545ZM115.69 8.18182V11.0227H104.383V8.18182H115.69ZM107.678 2.95455H111.031V23.75C111.031 24.697 111.168 25.4072 111.442 25.8807C111.727 26.3447 112.086 26.6572 112.522 26.8182C112.967 26.9697 113.436 27.0455 113.928 27.0455C114.298 27.0455 114.601 27.0265 114.837 26.9886C115.074 26.9413 115.263 26.9034 115.406 26.875L116.087 29.8864C115.86 29.9716 115.543 30.0568 115.136 30.142C114.728 30.2367 114.212 30.2841 113.587 30.2841C112.64 30.2841 111.712 30.0805 110.803 29.6733C109.904 29.2661 109.156 28.6458 108.559 27.8125C107.972 26.9792 107.678 25.928 107.678 24.6591V2.95455ZM130.221 8.18182V11.0227H118.914V8.18182H130.221ZM122.21 2.95455H125.562V23.75C125.562 24.697 125.699 25.4072 125.974 25.8807C126.258 26.3447 126.618 26.6572 127.053 26.8182C127.498 26.9697 127.967 27.0455 128.46 27.0455C128.829 27.0455 129.132 27.0265 129.369 26.9886C129.605 26.9413 129.795 26.9034 129.937 26.875L130.619 29.8864C130.391 29.9716 130.074 30.0568 129.667 30.142C129.26 30.2367 128.744 30.2841 128.119 30.2841C127.172 30.2841 126.244 30.0805 125.335 29.6733C124.435 29.2661 123.687 28.6458 123.09 27.8125C122.503 26.9792 122.21 25.928 122.21 24.6591V2.95455ZM143.893 30.4545C141.923 30.4545 140.195 29.9858 138.708 29.0483C137.231 28.1108 136.076 26.7992 135.242 25.1136C134.418 23.428 134.006 21.4583 134.006 19.2045C134.006 16.9318 134.418 14.9479 135.242 13.2528C136.076 11.5578 137.231 10.2415 138.708 9.30398C140.195 8.36648 141.923 7.89773 143.893 7.89773C145.862 7.89773 147.586 8.36648 149.063 9.30398C150.55 10.2415 151.705 11.5578 152.529 13.2528C153.362 14.9479 153.779 16.9318 153.779 19.2045C153.779 21.4583 153.362 23.428 152.529 25.1136C151.705 26.7992 150.55 28.1108 149.063 29.0483C147.586 29.9858 145.862 30.4545 143.893 30.4545ZM143.893 27.4432C145.389 27.4432 146.62 27.0597 147.586 26.2926C148.552 25.5256 149.267 24.517 149.731 23.267C150.195 22.017 150.427 20.6629 150.427 19.2045C150.427 17.7462 150.195 16.3873 149.731 15.1278C149.267 13.8684 148.552 12.8504 147.586 12.0739C146.62 11.2973 145.389 10.9091 143.893 10.9091C142.397 10.9091 141.165 11.2973 140.2 12.0739C139.234 12.8504 138.519 13.8684 138.055 15.1278C137.591 16.3873 137.359 17.7462 137.359 19.2045C137.359 20.6629 137.591 22.017 138.055 23.267C138.519 24.517 139.234 25.5256 140.2 26.2926C141.165 27.0597 142.397 27.4432 143.893 27.4432Z" fill="white"/>
</svg>
