<svg width="48" height="48" viewBox="0 0 48 48" fill="none" xmlns="http://www.w3.org/2000/svg">
<path d="M24 0C10.7448 0 0 10.7448 0 24C0 37.2552 10.7448 48 24 48C37.2552 48 48 37.2552 48 24C48 10.7448 37.2552 0 24 0ZM24 44.4C21.3209 44.3998 18.668 43.872 16.1929 42.8466C13.7178 41.8212 11.4688 40.3183 9.57452 38.4238C7.68021 36.5292 6.1776 34.2801 5.15249 31.8049C4.12738 29.3296 3.59984 26.6767 3.6 23.9976C3.60016 21.3185 4.12801 18.6656 5.15341 16.1905C6.17881 13.7154 7.68168 11.4664 9.57622 9.57212C11.4708 7.67781 13.7199 6.1752 16.1951 5.15009C18.6704 4.12498 21.3233 3.59744 24.0024 3.5976C29.4131 3.59792 34.6021 5.74763 38.4279 9.57382C42.2536 13.4 44.4027 18.5893 44.4024 24C44.4021 29.4107 42.2524 34.5997 38.4262 38.4255C34.6 42.2512 29.4107 44.4003 24 44.4ZM24 25.2C16.7088 25.2 10.8 29.3472 10.8 33.6C10.8 37.8528 16.7088 42 24 42C31.2912 42 37.2 37.8528 37.2 33.6C37.2 29.3472 31.2912 25.2 24 25.2ZM24 24C25.9096 24 27.7409 23.2414 29.0912 21.8912C30.4414 20.5409 31.2 18.7096 31.2 16.8C31.2 14.8904 30.4414 13.0591 29.0912 11.7088C27.7409 10.3586 25.9096 9.6 24 9.6C22.0904 9.6 20.2591 10.3586 18.9088 11.7088C17.5586 13.0591 16.8 14.8904 16.8 16.8C16.8 18.7096 17.5586 20.5409 18.9088 21.8912C20.2591 23.2414 22.0904 24 24 24Z" fill="white"/>
</svg>
