<svg width="44.2" height="60" viewBox="0 0 44.2 60" fill="none" xmlns="http://www.w3.org/2000/svg">
<path opacity="0.16" d="M2 40.675C2 37.7444 3.16419 34.9337 5.23647 32.8615C7.30875 30.7892 10.1194 29.625 13.05 29.625H35.15C38.0806 29.625 40.8913 30.7892 42.9635 32.8615C45.0358 34.9337 46.2 37.7444 46.2 40.675C46.2 42.1403 45.6179 43.5456 44.5818 44.5818C43.5456 45.6179 42.1403 46.2 40.675 46.2H7.525C6.05968 46.2 4.65437 45.6179 3.61823 44.5818C2.5821 43.5456 2 42.1403 2 40.675Z" stroke="white" stroke-width="3"/>
<path d="M2 38.675C2 35.7444 3.16419 32.9337 5.23647 30.8615C7.30875 28.7892 10.1194 27.625 13.05 27.625H35.15C38.0806 27.625 40.8913 28.7892 42.9635 30.8615C45.0358 32.9337 46.2 35.7444 46.2 38.675C46.2 40.1403 45.6179 41.5456 44.5818 42.5818C43.5456 43.6179 42.1403 44.2 40.675 44.2H7.525C6.05968 44.2 4.65437 43.6179 3.61823 42.5818C2.5821 41.5456 2 40.1403 2 38.675Z" stroke="white" stroke-width="3"/>
<path d="M24.1 18.575C28.6771 18.575 32.3875 14.8646 32.3875 10.2875C32.3875 5.71044 28.6771 2 24.1 2C19.5229 2 15.8125 5.71044 15.8125 10.2875C15.8125 14.8646 19.5229 18.575 24.1 18.575Z" stroke="white" stroke-width="3"/>
<path d="M7.05682 59V50.2727H10.0057C10.6903 50.2727 11.25 50.3963 11.6847 50.6435C12.1222 50.8878 12.446 51.2188 12.6562 51.6364C12.8665 52.054 12.9716 52.5199 12.9716 53.0341C12.9716 53.5483 12.8665 54.0156 12.6562 54.4361C12.4489 54.8565 12.1278 55.1918 11.6932 55.4418C11.2585 55.6889 10.7017 55.8125 10.0227 55.8125H7.90909V54.875H9.98864C10.4574 54.875 10.8338 54.794 11.1179 54.6321C11.402 54.4702 11.608 54.2514 11.7358 53.9759C11.8665 53.6974 11.9318 53.3835 11.9318 53.0341C11.9318 52.6847 11.8665 52.3722 11.7358 52.0966C11.608 51.821 11.4006 51.6051 11.1136 51.4489C10.8267 51.2898 10.446 51.2102 9.97159 51.2102H8.11364V59H7.05682ZM14.5376 59V52.4545H15.5092V53.4432H15.5774C15.6967 53.1193 15.9126 52.8565 16.2251 52.6548C16.5376 52.4531 16.8899 52.3523 17.282 52.3523C17.3558 52.3523 17.4482 52.3537 17.5589 52.3565C17.6697 52.3594 17.7536 52.3636 17.8104 52.3693V53.392C17.7763 53.3835 17.6982 53.3707 17.576 53.3537C17.4567 53.3338 17.3303 53.3239 17.1967 53.3239C16.8786 53.3239 16.5945 53.3906 16.3445 53.5241C16.0973 53.6548 15.9013 53.8366 15.7564 54.0696C15.6143 54.2997 15.5433 54.5625 15.5433 54.858V59H14.5376ZM21.4624 59.1364C20.8714 59.1364 20.353 58.9957 19.907 58.7145C19.4638 58.4332 19.1172 58.0398 18.8672 57.5341C18.62 57.0284 18.4964 56.4375 18.4964 55.7614C18.4964 55.0795 18.62 54.4844 18.8672 53.9759C19.1172 53.4673 19.4638 53.0724 19.907 52.7912C20.353 52.5099 20.8714 52.3693 21.4624 52.3693C22.0533 52.3693 22.5703 52.5099 23.0135 52.7912C23.4595 53.0724 23.8061 53.4673 24.0533 53.9759C24.3033 54.4844 24.4283 55.0795 24.4283 55.7614C24.4283 56.4375 24.3033 57.0284 24.0533 57.5341C23.8061 58.0398 23.4595 58.4332 23.0135 58.7145C22.5703 58.9957 22.0533 59.1364 21.4624 59.1364ZM21.4624 58.233C21.9112 58.233 22.2805 58.1179 22.5703 57.8878C22.8601 57.6577 23.0746 57.3551 23.2138 56.9801C23.353 56.6051 23.4226 56.1989 23.4226 55.7614C23.4226 55.3239 23.353 54.9162 23.2138 54.5384C23.0746 54.1605 22.8601 53.8551 22.5703 53.6222C22.2805 53.3892 21.9112 53.2727 21.4624 53.2727C21.0135 53.2727 20.6442 53.3892 20.3544 53.6222C20.0646 53.8551 19.8501 54.1605 19.7109 54.5384C19.5717 54.9162 19.5021 55.3239 19.5021 55.7614C19.5021 56.1989 19.5717 56.6051 19.7109 56.9801C19.8501 57.3551 20.0646 57.6577 20.3544 57.8878C20.6442 58.1179 21.0135 58.233 21.4624 58.233ZM28.8782 52.4545V53.3068H25.3498V52.4545H28.8782ZM26.4066 59V51.5511C26.4066 51.1761 26.4947 50.8636 26.6708 50.6136C26.8469 50.3636 27.0756 50.1761 27.3569 50.0511C27.6381 49.9261 27.935 49.8636 28.2475 49.8636C28.4947 49.8636 28.6964 49.8835 28.8526 49.9233C29.0089 49.9631 29.1254 50 29.2021 50.0341L28.9123 50.9034C28.8612 50.8864 28.7901 50.8651 28.6992 50.8395C28.6112 50.8139 28.4947 50.8011 28.3498 50.8011C28.0174 50.8011 27.7773 50.8849 27.6296 51.0526C27.4847 51.2202 27.4123 51.4659 27.4123 51.7898V59H26.4066ZM30.2876 59V52.4545H31.2933V59H30.2876ZM30.799 51.3636C30.603 51.3636 30.4339 51.2969 30.2919 51.1634C30.1527 51.0298 30.0831 50.8693 30.0831 50.6818C30.0831 50.4943 30.1527 50.3338 30.2919 50.2003C30.4339 50.0668 30.603 50 30.799 50C30.995 50 31.1626 50.0668 31.3018 50.2003C31.4439 50.3338 31.5149 50.4943 31.5149 50.6818C31.5149 50.8693 31.4439 51.0298 31.3018 51.1634C31.1626 51.2969 30.995 51.3636 30.799 51.3636ZM34.141 50.2727V59H33.1353V50.2727H34.141ZM38.7273 59.1364C38.0966 59.1364 37.5526 58.9972 37.0952 58.7188C36.6406 58.4375 36.2898 58.0455 36.0426 57.5426C35.7983 57.0369 35.6761 56.4489 35.6761 55.7784C35.6761 55.108 35.7983 54.517 36.0426 54.0057C36.2898 53.4915 36.6335 53.0909 37.0739 52.804C37.517 52.5142 38.0341 52.3693 38.625 52.3693C38.9659 52.3693 39.3026 52.4261 39.6349 52.5398C39.9673 52.6534 40.2699 52.8381 40.5426 53.0938C40.8153 53.3466 41.0327 53.6818 41.1946 54.0994C41.3565 54.517 41.4375 55.0312 41.4375 55.642V56.0682H36.392V55.1989H40.4148C40.4148 54.8295 40.3409 54.5 40.1932 54.2102C40.0483 53.9205 39.8409 53.6918 39.571 53.5241C39.304 53.3565 38.9886 53.2727 38.625 53.2727C38.2244 53.2727 37.8778 53.3722 37.5852 53.571C37.2955 53.767 37.0724 54.0227 36.9162 54.3381C36.7599 54.6534 36.6818 54.9915 36.6818 55.3523V55.9318C36.6818 56.4261 36.767 56.8452 36.9375 57.1889C37.1108 57.5298 37.3509 57.7898 37.6577 57.9688C37.9645 58.1449 38.321 58.233 38.7273 58.233C38.9915 58.233 39.2301 58.196 39.4432 58.1222C39.6591 58.0455 39.8452 57.9318 40.0014 57.7812C40.1577 57.6278 40.2784 57.4375 40.3636 57.2102L41.3352 57.483C41.233 57.8125 41.0611 58.1023 40.8196 58.3523C40.5781 58.5994 40.2798 58.7926 39.9247 58.9318C39.5696 59.0682 39.1705 59.1364 38.7273 59.1364Z" fill="white"/>
</svg>
