<svg width="257" height="101" viewBox="0 0 257 101" fill="none" xmlns="http://www.w3.org/2000/svg">
<path d="M0.761364 15V0.454545H5.67614C6.8125 0.454545 7.74527 0.648674 8.47443 1.03693C9.2036 1.42045 9.74337 1.94839 10.0938 2.62074C10.4441 3.29309 10.6193 4.05777 10.6193 4.91477C10.6193 5.77178 10.4441 6.53172 10.0938 7.1946C9.74337 7.85748 9.20597 8.37831 8.48153 8.7571C7.7571 9.13116 6.83144 9.31818 5.70455 9.31818H1.72727V7.72727H5.64773C6.42424 7.72727 7.04924 7.61364 7.52273 7.38636C8.00095 7.15909 8.34659 6.83712 8.55966 6.42045C8.77746 5.99905 8.88636 5.49716 8.88636 4.91477C8.88636 4.33239 8.77746 3.82339 8.55966 3.38778C8.34186 2.95218 7.99384 2.616 7.51562 2.37926C7.03741 2.13778 6.4053 2.01705 5.61932 2.01705H2.52273V15H0.761364ZM7.60795 8.46591L11.1875 15H9.14205L5.61932 8.46591H7.60795ZM17.7837 15.2273C16.7326 15.2273 15.8259 14.9953 15.0636 14.5312C14.306 14.0625 13.7212 13.4091 13.3093 12.571C12.9021 11.7282 12.6985 10.7481 12.6985 9.63068C12.6985 8.51326 12.9021 7.52841 13.3093 6.67614C13.7212 5.81913 14.2942 5.15152 15.0281 4.6733C15.7667 4.19034 16.6284 3.94886 17.6133 3.94886C18.1815 3.94886 18.7425 4.04356 19.2965 4.23295C19.8505 4.42235 20.3548 4.73011 20.8093 5.15625C21.2638 5.57765 21.6261 6.13636 21.896 6.83239C22.1658 7.52841 22.3008 8.38542 22.3008 9.40341V10.1136H13.8917V8.66477H20.5962C20.5962 8.04924 20.4731 7.5 20.2269 7.01705C19.9854 6.53409 19.6398 6.15294 19.19 5.87358C18.7449 5.59422 18.2193 5.45455 17.6133 5.45455C16.9457 5.45455 16.368 5.62026 15.8803 5.9517C15.3974 6.27841 15.0257 6.70455 14.7653 7.23011C14.5049 7.75568 14.3746 8.31913 14.3746 8.92045V9.88636C14.3746 10.7102 14.5167 11.4086 14.8008 11.9815C15.0896 12.5497 15.4897 12.983 16.0011 13.2812C16.5124 13.5748 17.1067 13.7216 17.7837 13.7216C18.2241 13.7216 18.6218 13.66 18.9769 13.5369C19.3368 13.4091 19.6469 13.2197 19.9073 12.9688C20.1677 12.7131 20.369 12.3958 20.511 12.017L22.1303 12.4716C21.9599 13.0208 21.6734 13.5038 21.271 13.9205C20.8685 14.3324 20.3713 14.6544 19.7795 14.8864C19.1876 15.1136 18.5224 15.2273 17.7837 15.2273ZM29.2823 15.2273C28.2596 15.2273 27.3789 14.9858 26.6403 14.5028C25.9016 14.0199 25.3335 13.3546 24.9357 12.5071C24.538 11.6596 24.3391 10.6913 24.3391 9.60227C24.3391 8.49432 24.5427 7.51657 24.9499 6.66903C25.3619 5.81676 25.9348 5.15152 26.6687 4.6733C27.4073 4.19034 28.2691 3.94886 29.2539 3.94886C30.021 3.94886 30.7122 4.09091 31.3278 4.375C31.9433 4.65909 32.4476 5.05682 32.8406 5.56818C33.2335 6.07955 33.4774 6.67614 33.5721 7.35795H31.896C31.7681 6.8608 31.484 6.42045 31.0437 6.03693C30.6081 5.64867 30.021 5.45455 29.2823 5.45455C28.6289 5.45455 28.056 5.625 27.5636 5.96591C27.0759 6.30208 26.6947 6.77794 26.4201 7.39347C26.1502 8.00426 26.0153 8.72159 26.0153 9.54545C26.0153 10.3883 26.1478 11.1222 26.413 11.7472C26.6829 12.3722 27.0617 12.8575 27.5494 13.2031C28.0418 13.5488 28.6194 13.7216 29.2823 13.7216C29.7179 13.7216 30.1133 13.6458 30.4684 13.4943C30.8235 13.3428 31.1242 13.125 31.3704 12.8409C31.6166 12.5568 31.7918 12.2159 31.896 11.8182H33.5721C33.4774 12.4621 33.243 13.0421 32.869 13.5582C32.4996 14.0696 32.0096 14.4768 31.3988 14.7798C30.7927 15.0781 30.0872 15.2273 29.2823 15.2273ZM40.5962 15.2273C39.5451 15.2273 38.6384 14.9953 37.8761 14.5312C37.1185 14.0625 36.5337 13.4091 36.1218 12.571C35.7146 11.7282 35.511 10.7481 35.511 9.63068C35.511 8.51326 35.7146 7.52841 36.1218 6.67614C36.5337 5.81913 37.1067 5.15152 37.8406 4.6733C38.5792 4.19034 39.4409 3.94886 40.4258 3.94886C40.994 3.94886 41.555 4.04356 42.109 4.23295C42.663 4.42235 43.1673 4.73011 43.6218 5.15625C44.0763 5.57765 44.4386 6.13636 44.7085 6.83239C44.9783 7.52841 45.1133 8.38542 45.1133 9.40341V10.1136H36.7042V8.66477H43.4087C43.4087 8.04924 43.2856 7.5 43.0394 7.01705C42.7979 6.53409 42.4523 6.15294 42.0025 5.87358C41.5574 5.59422 41.0318 5.45455 40.4258 5.45455C39.7582 5.45455 39.1805 5.62026 38.6928 5.9517C38.2099 6.27841 37.8382 6.70455 37.5778 7.23011C37.3174 7.75568 37.1871 8.31913 37.1871 8.92045V9.88636C37.1871 10.7102 37.3292 11.4086 37.6133 11.9815C37.9021 12.5497 38.3022 12.983 38.8136 13.2812C39.3249 13.5748 39.9192 13.7216 40.5962 13.7216C41.0366 13.7216 41.4343 13.66 41.7894 13.5369C42.1493 13.4091 42.4594 13.2197 42.7198 12.9688C42.9802 12.7131 43.1815 12.3958 43.3235 12.017L44.9428 12.4716C44.7724 13.0208 44.4859 13.5038 44.0835 13.9205C43.681 14.3324 43.1838 14.6544 42.592 14.8864C42.0001 15.1136 41.3349 15.2273 40.5962 15.2273ZM49.3391 8.4375V15H47.663V4.09091H49.2823V5.79545H49.4244C49.68 5.24148 50.0683 4.7964 50.5891 4.46023C51.11 4.11932 51.7823 3.94886 52.6062 3.94886C53.3448 3.94886 53.9911 4.10038 54.5451 4.40341C55.0991 4.7017 55.5299 5.15625 55.8377 5.76705C56.1455 6.37311 56.2994 7.14015 56.2994 8.06818V15H54.6232V8.18182C54.6232 7.32481 54.4007 6.6572 53.9556 6.17898C53.5105 5.69602 52.8997 5.45455 52.1232 5.45455C51.5882 5.45455 51.11 5.57055 50.6886 5.80256C50.2719 6.03456 49.9428 6.37311 49.7013 6.81818C49.4599 7.26326 49.3391 7.80303 49.3391 8.4375ZM64.1065 4.09091V5.51136H58.4531V4.09091H64.1065ZM60.1009 1.47727H61.777V11.875C61.777 12.3485 61.8456 12.7036 61.983 12.9403C62.125 13.1723 62.3049 13.3286 62.5227 13.4091C62.7453 13.4848 62.9796 13.5227 63.2259 13.5227C63.4105 13.5227 63.562 13.5133 63.6804 13.4943C63.7988 13.4706 63.8935 13.4517 63.9645 13.4375L64.3054 14.9432C64.1918 14.9858 64.0331 15.0284 63.8295 15.071C63.6259 15.1184 63.3679 15.142 63.0554 15.142C62.5819 15.142 62.1179 15.0402 61.6634 14.8366C61.2135 14.633 60.8395 14.3229 60.5412 13.9062C60.2476 13.4896 60.1009 12.964 60.1009 12.3295V1.47727ZM76.9972 4.09091V5.51136H71.3438V4.09091H76.9972ZM72.9915 1.47727H74.6676V11.875C74.6676 12.3485 74.7363 12.7036 74.8736 12.9403C75.0156 13.1723 75.1955 13.3286 75.4134 13.4091C75.6359 13.4848 75.8703 13.5227 76.1165 13.5227C76.3011 13.5227 76.4527 13.5133 76.571 13.4943C76.6894 13.4706 76.7841 13.4517 76.8551 13.4375L77.196 14.9432C77.0824 14.9858 76.9238 15.0284 76.7202 15.071C76.5166 15.1184 76.2585 15.142 75.946 15.142C75.4725 15.142 75.0085 15.0402 74.554 14.8366C74.1042 14.633 73.7301 14.3229 73.4318 13.9062C73.1383 13.4896 72.9915 12.964 72.9915 12.3295V1.47727ZM79.5185 15V4.09091H81.1378V5.73864H81.2514C81.4503 5.19886 81.8101 4.76089 82.331 4.42472C82.8518 4.08854 83.4389 3.92045 84.0923 3.92045C84.2154 3.92045 84.3693 3.92282 84.554 3.92756C84.7386 3.93229 84.8783 3.93939 84.973 3.94886V5.65341C84.9162 5.6392 84.786 5.6179 84.5824 5.58949C84.3835 5.55634 84.1728 5.53977 83.9503 5.53977C83.42 5.53977 82.9465 5.65104 82.5298 5.87358C82.1179 6.09138 81.7912 6.39441 81.5497 6.78267C81.313 7.16619 81.1946 7.60417 81.1946 8.09659V15H79.5185ZM90.1701 15.2557C89.4788 15.2557 88.8514 15.1255 88.288 14.8651C87.7246 14.5999 87.2771 14.2188 86.9457 13.7216C86.6142 13.2197 86.4485 12.6136 86.4485 11.9034C86.4485 11.2784 86.5716 10.7718 86.8178 10.3835C87.064 9.99053 87.3931 9.68276 87.805 9.46023C88.217 9.23769 88.6715 9.07197 89.1687 8.96307C89.6706 8.84943 90.1748 8.75947 90.6815 8.69318C91.3443 8.60795 91.8817 8.54403 92.2937 8.50142C92.7103 8.45407 93.0134 8.37595 93.2028 8.26705C93.3969 8.15814 93.494 7.96875 93.494 7.69886V7.64205C93.494 6.94129 93.3022 6.39678 92.9187 6.00852C92.5399 5.62027 91.9646 5.42614 91.1928 5.42614C90.3926 5.42614 89.7653 5.60133 89.3107 5.9517C88.8562 6.30208 88.5366 6.67614 88.3519 7.07386L86.761 6.50568C87.0451 5.8428 87.4239 5.3267 87.8974 4.95739C88.3756 4.58333 88.8964 4.32292 89.4599 4.17614C90.0281 4.02462 90.5868 3.94886 91.136 3.94886C91.4864 3.94886 91.8888 3.99148 92.3434 4.0767C92.8027 4.1572 93.2454 4.32528 93.6715 4.58097C94.1024 4.83665 94.4599 5.22254 94.744 5.73864C95.0281 6.25473 95.1701 6.94602 95.1701 7.8125V15H93.494V13.5227H93.4087C93.2951 13.7595 93.1057 14.0128 92.8406 14.2827C92.5754 14.5526 92.2227 14.7822 91.7823 14.9716C91.342 15.161 90.8046 15.2557 90.1701 15.2557ZM90.4258 13.75C91.0887 13.75 91.6474 13.6198 92.1019 13.3594C92.5612 13.099 92.9068 12.7628 93.1388 12.3509C93.3756 11.9389 93.494 11.5057 93.494 11.0511V9.51705C93.4229 9.60227 93.2667 9.6804 93.0252 9.75142C92.7885 9.81771 92.5138 9.87689 92.2013 9.92898C91.8936 9.97633 91.5929 10.0189 91.2994 10.0568C91.0105 10.09 90.7762 10.1184 90.5962 10.142C90.1606 10.1989 89.7534 10.2912 89.3746 10.419C89.0006 10.5421 88.6976 10.7292 88.4656 10.9801C88.2383 11.2263 88.1246 11.5625 88.1246 11.9886C88.1246 12.571 88.3401 13.0114 88.771 13.3097C89.2066 13.6032 89.7582 13.75 90.4258 13.75ZM99.9055 8.4375V15H98.2294V4.09091H99.8487V5.79545H99.9908C100.246 5.24148 100.635 4.7964 101.156 4.46023C101.676 4.11932 102.349 3.94886 103.173 3.94886C103.911 3.94886 104.558 4.10038 105.112 4.40341C105.665 4.7017 106.096 5.15625 106.404 5.76705C106.712 6.37311 106.866 7.14015 106.866 8.06818V15H105.19V8.18182C105.19 7.32481 104.967 6.6572 104.522 6.17898C104.077 5.69602 103.466 5.45455 102.69 5.45455C102.155 5.45455 101.676 5.57055 101.255 5.80256C100.838 6.03456 100.509 6.37311 100.268 6.81818C100.026 7.26326 99.9055 7.80303 99.9055 8.4375ZM117.656 6.53409L116.15 6.96023C116.056 6.70928 115.916 6.46544 115.731 6.22869C115.551 5.98722 115.305 5.78835 114.993 5.6321C114.68 5.47585 114.28 5.39773 113.792 5.39773C113.125 5.39773 112.568 5.55161 112.123 5.85938C111.683 6.16241 111.463 6.5483 111.463 7.01705C111.463 7.43371 111.614 7.76278 111.917 8.00426C112.22 8.24574 112.694 8.44697 113.338 8.60795L114.957 9.00568C115.932 9.24242 116.659 9.60464 117.137 10.0923C117.616 10.5753 117.855 11.1979 117.855 11.9602C117.855 12.5852 117.675 13.1439 117.315 13.6364C116.96 14.1288 116.463 14.517 115.824 14.8011C115.184 15.0852 114.441 15.2273 113.593 15.2273C112.481 15.2273 111.56 14.9858 110.831 14.5028C110.101 14.0199 109.64 13.3144 109.446 12.3864L111.037 11.9886C111.188 12.5758 111.475 13.0161 111.896 13.3097C112.322 13.6032 112.878 13.75 113.565 13.75C114.346 13.75 114.967 13.5843 115.426 13.2528C115.89 12.9167 116.122 12.5142 116.122 12.0455C116.122 11.6667 115.989 11.3494 115.724 11.0938C115.459 10.8333 115.052 10.6392 114.502 10.5114L112.684 10.0852C111.685 9.84848 110.951 9.48153 110.483 8.98438C110.019 8.48248 109.787 7.85511 109.787 7.10227C109.787 6.48674 109.959 5.94223 110.305 5.46875C110.655 4.99527 111.131 4.62358 111.733 4.35369C112.339 4.08381 113.025 3.94886 113.792 3.94886C114.872 3.94886 115.719 4.18561 116.335 4.65909C116.955 5.13258 117.395 5.75758 117.656 6.53409ZM123.588 15.2557C122.897 15.2557 122.269 15.1255 121.706 14.8651C121.143 14.5999 120.695 14.2188 120.364 13.7216C120.032 13.2197 119.866 12.6136 119.866 11.9034C119.866 11.2784 119.99 10.7718 120.236 10.3835C120.482 9.99053 120.811 9.68276 121.223 9.46023C121.635 9.23769 122.089 9.07197 122.587 8.96307C123.089 8.84943 123.593 8.75947 124.099 8.69318C124.762 8.60795 125.3 8.54403 125.712 8.50142C126.128 8.45407 126.431 8.37595 126.621 8.26705C126.815 8.15814 126.912 7.96875 126.912 7.69886V7.64205C126.912 6.94129 126.72 6.39678 126.337 6.00852C125.958 5.62027 125.383 5.42614 124.611 5.42614C123.811 5.42614 123.183 5.60133 122.729 5.9517C122.274 6.30208 121.955 6.67614 121.77 7.07386L120.179 6.50568C120.463 5.8428 120.842 5.3267 121.315 4.95739C121.794 4.58333 122.314 4.32292 122.878 4.17614C123.446 4.02462 124.005 3.94886 124.554 3.94886C124.904 3.94886 125.307 3.99148 125.761 4.0767C126.221 4.1572 126.663 4.32528 127.089 4.58097C127.52 4.83665 127.878 5.22254 128.162 5.73864C128.446 6.25473 128.588 6.94602 128.588 7.8125V15H126.912V13.5227H126.827C126.713 13.7595 126.524 14.0128 126.259 14.2827C125.993 14.5526 125.641 14.7822 125.2 14.9716C124.76 15.161 124.223 15.2557 123.588 15.2557ZM123.844 13.75C124.507 13.75 125.065 13.6198 125.52 13.3594C125.979 13.099 126.325 12.7628 126.557 12.3509C126.794 11.9389 126.912 11.5057 126.912 11.0511V9.51705C126.841 9.60227 126.685 9.6804 126.443 9.75142C126.206 9.81771 125.932 9.87689 125.619 9.92898C125.312 9.97633 125.011 10.0189 124.717 10.0568C124.429 10.09 124.194 10.1184 124.014 10.142C123.579 10.1989 123.171 10.2912 122.793 10.419C122.419 10.5421 122.116 10.7292 121.884 10.9801C121.656 11.2263 121.543 11.5625 121.543 11.9886C121.543 12.571 121.758 13.0114 122.189 13.3097C122.625 13.6032 123.176 13.75 123.844 13.75ZM136.079 15.2273C135.056 15.2273 134.176 14.9858 133.437 14.5028C132.699 14.0199 132.13 13.3546 131.733 12.5071C131.335 11.6596 131.136 10.6913 131.136 9.60227C131.136 8.49432 131.34 7.51657 131.747 6.66903C132.159 5.81676 132.732 5.15152 133.466 4.6733C134.204 4.19034 135.066 3.94886 136.051 3.94886C136.818 3.94886 137.509 4.09091 138.125 4.375C138.74 4.65909 139.244 5.05682 139.637 5.56818C140.03 6.07955 140.274 6.67614 140.369 7.35795H138.693C138.565 6.8608 138.281 6.42045 137.841 6.03693C137.405 5.64867 136.818 5.45455 136.079 5.45455C135.426 5.45455 134.853 5.625 134.36 5.96591C133.873 6.30208 133.492 6.77794 133.217 7.39347C132.947 8.00426 132.812 8.72159 132.812 9.54545C132.812 10.3883 132.945 11.1222 133.21 11.7472C133.48 12.3722 133.859 12.8575 134.346 13.2031C134.839 13.5488 135.416 13.7216 136.079 13.7216C136.515 13.7216 136.91 13.6458 137.265 13.4943C137.62 13.3428 137.921 13.125 138.167 12.8409C138.413 12.5568 138.589 12.2159 138.693 11.8182H140.369C140.274 12.4621 140.04 13.0421 139.666 13.5582C139.297 14.0696 138.806 14.4768 138.196 14.7798C137.59 15.0781 136.884 15.2273 136.079 15.2273ZM147.564 4.09091V5.51136H141.91V4.09091H147.564ZM143.558 1.47727H145.234V11.875C145.234 12.3485 145.303 12.7036 145.44 12.9403C145.582 13.1723 145.762 13.3286 145.98 13.4091C146.202 13.4848 146.437 13.5227 146.683 13.5227C146.868 13.5227 147.019 13.5133 147.137 13.4943C147.256 13.4706 147.35 13.4517 147.422 13.4375L147.762 14.9432C147.649 14.9858 147.49 15.0284 147.287 15.071C147.083 15.1184 146.825 15.142 146.512 15.142C146.039 15.142 145.575 15.0402 145.12 14.8366C144.671 14.633 144.297 14.3229 143.998 13.9062C143.705 13.4896 143.558 12.964 143.558 12.3295V1.47727ZM150.085 15V4.09091H151.761V15H150.085ZM150.937 2.27273C150.61 2.27273 150.329 2.16146 150.092 1.93892C149.86 1.71638 149.744 1.44886 149.744 1.13636C149.744 0.823864 149.86 0.556345 150.092 0.333806C150.329 0.111269 150.61 0 150.937 0C151.264 0 151.543 0.111269 151.775 0.333806C152.012 0.556345 152.13 0.823864 152.13 1.13636C152.13 1.44886 152.012 1.71638 151.775 1.93892C151.543 2.16146 151.264 2.27273 150.937 2.27273ZM159.263 15.2273C158.278 15.2273 157.414 14.9929 156.67 14.5241C155.932 14.0554 155.354 13.3996 154.938 12.5568C154.526 11.714 154.32 10.7292 154.32 9.60227C154.32 8.46591 154.526 7.47396 154.938 6.62642C155.354 5.77888 155.932 5.12074 156.67 4.65199C157.414 4.18324 158.278 3.94886 159.263 3.94886C160.248 3.94886 161.109 4.18324 161.848 4.65199C162.591 5.12074 163.169 5.77888 163.581 6.62642C163.998 7.47396 164.206 8.46591 164.206 9.60227C164.206 10.7292 163.998 11.714 163.581 12.5568C163.169 13.3996 162.591 14.0554 161.848 14.5241C161.109 14.9929 160.248 15.2273 159.263 15.2273ZM159.263 13.7216C160.011 13.7216 160.626 13.5298 161.109 13.1463C161.592 12.7628 161.95 12.2585 162.182 11.6335C162.414 11.0085 162.53 10.3314 162.53 9.60227C162.53 8.87311 162.414 8.19366 162.182 7.56392C161.95 6.93419 161.592 6.42519 161.109 6.03693C160.626 5.64867 160.011 5.45455 159.263 5.45455C158.515 5.45455 157.899 5.64867 157.416 6.03693C156.933 6.42519 156.576 6.93419 156.344 7.56392C156.112 8.19366 155.996 8.87311 155.996 9.60227C155.996 10.3314 156.112 11.0085 156.344 11.6335C156.576 12.2585 156.933 12.7628 157.416 13.1463C157.899 13.5298 158.515 13.7216 159.263 13.7216ZM168.441 8.4375V15H166.765V4.09091H168.384V5.79545H168.526C168.782 5.24148 169.17 4.7964 169.691 4.46023C170.212 4.11932 170.884 3.94886 171.708 3.94886C172.446 3.94886 173.093 4.10038 173.647 4.40341C174.201 4.7017 174.632 5.15625 174.939 5.76705C175.247 6.37311 175.401 7.14015 175.401 8.06818V15H173.725V8.18182C173.725 7.32481 173.502 6.6572 173.057 6.17898C172.612 5.69602 172.001 5.45455 171.225 5.45455C170.69 5.45455 170.212 5.57055 169.79 5.80256C169.373 6.03456 169.044 6.37311 168.803 6.81818C168.561 7.26326 168.441 7.80303 168.441 8.4375ZM186.191 6.53409L184.685 6.96023C184.591 6.70928 184.451 6.46544 184.266 6.22869C184.086 5.98722 183.84 5.78835 183.528 5.6321C183.215 5.47585 182.815 5.39773 182.327 5.39773C181.66 5.39773 181.103 5.55161 180.658 5.85938C180.218 6.16241 179.998 6.5483 179.998 7.01705C179.998 7.43371 180.149 7.76278 180.452 8.00426C180.755 8.24574 181.229 8.44697 181.873 8.60795L183.492 9.00568C184.468 9.24242 185.194 9.60464 185.673 10.0923C186.151 10.5753 186.39 11.1979 186.39 11.9602C186.39 12.5852 186.21 13.1439 185.85 13.6364C185.495 14.1288 184.998 14.517 184.359 14.8011C183.719 15.0852 182.976 15.2273 182.129 15.2273C181.016 15.2273 180.095 14.9858 179.366 14.5028C178.637 14.0199 178.175 13.3144 177.981 12.3864L179.572 11.9886C179.723 12.5758 180.01 13.0161 180.431 13.3097C180.857 13.6032 181.414 13.75 182.1 13.75C182.881 13.75 183.502 13.5843 183.961 13.2528C184.425 12.9167 184.657 12.5142 184.657 12.0455C184.657 11.6667 184.524 11.3494 184.259 11.0938C183.994 10.8333 183.587 10.6392 183.038 10.5114L181.219 10.0852C180.22 9.84848 179.487 9.48153 179.018 8.98438C178.554 8.48248 178.322 7.85511 178.322 7.10227C178.322 6.48674 178.495 5.94223 178.84 5.46875C179.191 4.99527 179.666 4.62358 180.268 4.35369C180.874 4.08381 181.56 3.94886 182.327 3.94886C183.407 3.94886 184.254 4.18561 184.87 4.65909C185.49 5.13258 185.931 5.75758 186.191 6.53409ZM190.135 15.1136C189.784 15.1136 189.484 14.9882 189.233 14.7372C188.982 14.4863 188.856 14.1856 188.856 13.8352C188.856 13.4848 188.982 13.1842 189.233 12.9332C189.484 12.6823 189.784 12.5568 190.135 12.5568C190.485 12.5568 190.786 12.6823 191.037 12.9332C191.288 13.1842 191.413 13.4848 191.413 13.8352C191.413 14.0672 191.354 14.2803 191.235 14.4744C191.122 14.6686 190.968 14.8248 190.774 14.9432C190.584 15.0568 190.371 15.1136 190.135 15.1136ZM190.135 7.01705C189.784 7.01705 189.484 6.89157 189.233 6.64062C188.982 6.38968 188.856 6.08902 188.856 5.73864C188.856 5.38826 188.982 5.08759 189.233 4.83665C189.484 4.5857 189.784 4.46023 190.135 4.46023C190.485 4.46023 190.786 4.5857 191.037 4.83665C191.288 5.08759 191.413 5.38826 191.413 5.73864C191.413 5.97064 191.354 6.18371 191.235 6.37784C191.122 6.57197 190.968 6.72822 190.774 6.84659C190.584 6.96023 190.371 7.01705 190.135 7.01705ZM0.761364 49V34.4545H5.67614C6.8125 34.4545 7.74527 34.6487 8.47443 35.0369C9.2036 35.4205 9.74337 35.9484 10.0938 36.6207C10.4441 37.2931 10.6193 38.0578 10.6193 38.9148C10.6193 39.7718 10.4441 40.5317 10.0938 41.1946C9.74337 41.8575 9.20597 42.3783 8.48153 42.7571C7.7571 43.1312 6.83144 43.3182 5.70455 43.3182H1.72727V41.7273H5.64773C6.42424 41.7273 7.04924 41.6136 7.52273 41.3864C8.00095 41.1591 8.34659 40.8371 8.55966 40.4205C8.77746 39.9991 8.88636 39.4972 8.88636 38.9148C8.88636 38.3324 8.77746 37.8234 8.55966 37.3878C8.34186 36.9522 7.99384 36.616 7.51562 36.3793C7.03741 36.1378 6.4053 36.017 5.61932 36.017H2.52273V49H0.761364ZM7.60795 42.4659L11.1875 49H9.14205L5.61932 42.4659H7.60795ZM17.7837 49.2273C16.7326 49.2273 15.8259 48.9953 15.0636 48.5312C14.306 48.0625 13.7212 47.4091 13.3093 46.571C12.9021 45.7282 12.6985 44.7481 12.6985 43.6307C12.6985 42.5133 12.9021 41.5284 13.3093 40.6761C13.7212 39.8191 14.2942 39.1515 15.0281 38.6733C15.7667 38.1903 16.6284 37.9489 17.6133 37.9489C18.1815 37.9489 18.7425 38.0436 19.2965 38.233C19.8505 38.4223 20.3548 38.7301 20.8093 39.1562C21.2638 39.5777 21.6261 40.1364 21.896 40.8324C22.1658 41.5284 22.3008 42.3854 22.3008 43.4034V44.1136H13.8917V42.6648H20.5962C20.5962 42.0492 20.4731 41.5 20.2269 41.017C19.9854 40.5341 19.6398 40.1529 19.19 39.8736C18.7449 39.5942 18.2193 39.4545 17.6133 39.4545C16.9457 39.4545 16.368 39.6203 15.8803 39.9517C15.3974 40.2784 15.0257 40.7045 14.7653 41.2301C14.5049 41.7557 14.3746 42.3191 14.3746 42.9205V43.8864C14.3746 44.7102 14.5167 45.4086 14.8008 45.9815C15.0896 46.5497 15.4897 46.983 16.0011 47.2812C16.5124 47.5748 17.1067 47.7216 17.7837 47.7216C18.2241 47.7216 18.6218 47.66 18.9769 47.5369C19.3368 47.4091 19.6469 47.2197 19.9073 46.9688C20.1677 46.7131 20.369 46.3958 20.511 46.017L22.1303 46.4716C21.9599 47.0208 21.6734 47.5038 21.271 47.9205C20.8685 48.3324 20.3713 48.6544 19.7795 48.8864C19.1876 49.1136 18.5224 49.2273 17.7837 49.2273ZM26.5266 42.4375V49H24.8505V38.0909H26.4698V39.7955H26.6119C26.8675 39.2415 27.2558 38.7964 27.7766 38.4602C28.2975 38.1193 28.9698 37.9489 29.7937 37.9489C30.5323 37.9489 31.1786 38.1004 31.7326 38.4034C32.2866 38.7017 32.7174 39.1562 33.0252 39.767C33.333 40.3731 33.4869 41.1402 33.4869 42.0682V49H31.8107V42.1818C31.8107 41.3248 31.5882 40.6572 31.1431 40.179C30.698 39.696 30.0872 39.4545 29.3107 39.4545C28.7757 39.4545 28.2975 39.5705 27.8761 39.8026C27.4594 40.0346 27.1303 40.3731 26.8888 40.8182C26.6474 41.2633 26.5266 41.803 26.5266 42.4375ZM41.294 38.0909V39.5114H35.6406V38.0909H41.294ZM37.2884 35.4773H38.9645V45.875C38.9645 46.3485 39.0331 46.7036 39.1705 46.9403C39.3125 47.1723 39.4924 47.3286 39.7102 47.4091C39.9328 47.4848 40.1671 47.5227 40.4134 47.5227C40.598 47.5227 40.7495 47.5133 40.8679 47.4943C40.9863 47.4706 41.081 47.4517 41.152 47.4375L41.4929 48.9432C41.3793 48.9858 41.2206 49.0284 41.017 49.071C40.8134 49.1184 40.5554 49.142 40.2429 49.142C39.7694 49.142 39.3054 49.0402 38.8509 48.8366C38.401 48.633 38.027 48.3229 37.7287 47.9062C37.4351 47.4896 37.2884 46.964 37.2884 46.3295V35.4773ZM61.3153 40.946V42.5085H54.9517V40.946H61.3153ZM69.8612 49V47.7216L74.6623 42.4659C75.2257 41.8504 75.6897 41.3153 76.0543 40.8608C76.4189 40.4015 76.6888 39.9706 76.864 39.5682C77.0439 39.161 77.1339 38.7348 77.1339 38.2898C77.1339 37.7784 77.0108 37.3357 76.7646 36.9616C76.5231 36.5876 76.1916 36.2988 75.7702 36.0952C75.3488 35.8916 74.8754 35.7898 74.3498 35.7898C73.7911 35.7898 73.3034 35.9058 72.8867 36.1378C72.4748 36.3651 72.1552 36.6847 71.9279 37.0966C71.7054 37.5085 71.5941 37.9915 71.5941 38.5455H69.918C69.918 37.6932 70.1145 36.9451 70.5075 36.3011C70.9004 35.6572 71.4355 35.1553 72.1126 34.7955C72.7944 34.4356 73.5591 34.2557 74.4066 34.2557C75.2589 34.2557 76.0141 34.4356 76.6722 34.7955C77.3304 35.1553 77.8465 35.6406 78.2205 36.2514C78.5946 36.8622 78.7816 37.5417 78.7816 38.2898C78.7816 38.8248 78.6845 39.348 78.4904 39.8594C78.301 40.366 77.9696 40.9318 77.4961 41.5568C77.0273 42.1771 76.3763 42.9347 75.543 43.8295L72.2759 47.3239V47.4375H79.0373V49H69.8612ZM86.7148 49.1989C85.6448 49.1989 84.7333 48.9077 83.9805 48.3253C83.2276 47.7382 82.6523 46.8883 82.2546 45.7756C81.8569 44.6581 81.658 43.3087 81.658 41.7273C81.658 40.1553 81.8569 38.813 82.2546 37.7003C82.6571 36.5829 83.2347 35.7306 83.9876 35.1435C84.7451 34.5516 85.6542 34.2557 86.7148 34.2557C87.7754 34.2557 88.6822 34.5516 89.435 35.1435C90.1926 35.7306 90.7702 36.5829 91.168 37.7003C91.5704 38.813 91.7717 40.1553 91.7717 41.7273C91.7717 43.3087 91.5728 44.6581 91.1751 45.7756C90.7773 46.8883 90.2021 47.7382 89.4492 48.3253C88.6964 48.9077 87.7849 49.1989 86.7148 49.1989ZM86.7148 47.6364C87.7754 47.6364 88.5993 47.125 89.1864 46.1023C89.7736 45.0795 90.0671 43.6212 90.0671 41.7273C90.0671 40.4678 89.9322 39.3954 89.6623 38.5099C89.3971 37.6245 89.0136 36.9498 88.5117 36.4858C88.0146 36.0218 87.4156 35.7898 86.7148 35.7898C85.6637 35.7898 84.8422 36.3082 84.2504 37.3452C83.6585 38.3774 83.3626 39.8381 83.3626 41.7273C83.3626 42.9867 83.4951 44.0568 83.7603 44.9375C84.0254 45.8182 84.4066 46.4882 84.9038 46.9474C85.4057 47.4067 86.0094 47.6364 86.7148 47.6364ZM99.641 33.7727L94.9535 51.1875H93.4194L98.1069 33.7727H99.641ZM106.713 34.4545V49H104.952V36.3011H104.866L101.315 38.6591V36.8693L104.952 34.4545H106.713ZM116.067 33.7727L111.379 51.1875H109.845L114.533 33.7727H116.067ZM118.025 49V47.7216L122.826 42.4659C123.39 41.8504 123.854 41.3153 124.218 40.8608C124.583 40.4015 124.853 39.9706 125.028 39.5682C125.208 39.161 125.298 38.7348 125.298 38.2898C125.298 37.7784 125.175 37.3357 124.929 36.9616C124.687 36.5876 124.356 36.2988 123.934 36.0952C123.513 35.8916 123.039 35.7898 122.514 35.7898C121.955 35.7898 121.467 35.9058 121.051 36.1378C120.639 36.3651 120.319 36.6847 120.092 37.0966C119.869 37.5085 119.758 37.9915 119.758 38.5455H118.082C118.082 37.6932 118.279 36.9451 118.672 36.3011C119.065 35.6572 119.6 35.1553 120.277 34.7955C120.958 34.4356 121.723 34.2557 122.571 34.2557C123.423 34.2557 124.178 34.4356 124.836 34.7955C125.494 35.1553 126.011 35.6406 126.385 36.2514C126.759 36.8622 126.946 37.5417 126.946 38.2898C126.946 38.8248 126.849 39.348 126.654 39.8594C126.465 40.366 126.134 40.9318 125.66 41.5568C125.191 42.1771 124.54 42.9347 123.707 43.8295L120.44 47.3239V47.4375H127.201V49H118.025ZM129.481 46.017V44.5682L135.873 34.4545H136.924V36.6989H136.214L131.385 44.3409V44.4545H139.993V46.017H129.481ZM136.328 49V45.5767V44.902V34.4545H138.004V49H136.328ZM154.558 40.946V42.5085H148.194V40.946H154.558ZM172.024 39.5966L171.37 41.017H162.109L162.62 39.5966H172.024ZM170.802 42.4375L170.149 43.858H162.109L162.62 42.4375H170.802ZM173.7 35.7614L173.018 37.2386C172.715 36.964 172.395 36.7273 172.059 36.5284C171.723 36.3295 171.37 36.1757 171.001 36.0668C170.632 35.9579 170.243 35.9034 169.836 35.9034C169.031 35.9034 168.307 36.1259 167.663 36.571C167.019 37.0161 166.51 37.6719 166.136 38.5384C165.762 39.4048 165.575 40.4678 165.575 41.7273C165.575 42.9867 165.762 44.0497 166.136 44.9162C166.51 45.7827 167.019 46.4384 167.663 46.8835C168.307 47.3286 169.031 47.5511 169.836 47.5511C170.253 47.5511 170.646 47.4967 171.015 47.3878C171.389 47.2789 171.737 47.1297 172.059 46.9403C172.386 46.7509 172.687 46.5379 172.961 46.3011L173.672 47.7784C173.174 48.2472 172.592 48.6023 171.924 48.8438C171.257 49.0805 170.561 49.1989 169.836 49.1989C168.672 49.1989 167.639 48.8958 166.74 48.2898C165.845 47.6837 165.142 46.822 164.63 45.7045C164.124 44.5871 163.87 43.2614 163.87 41.7273C163.87 40.1932 164.124 38.8674 164.63 37.75C165.142 36.6326 165.845 35.7708 166.74 35.1648C167.639 34.5587 168.672 34.2557 169.836 34.2557C170.589 34.2557 171.292 34.3859 171.946 34.6463C172.604 34.9067 173.189 35.2784 173.7 35.7614ZM181.518 34.4545V49H179.756V36.3011H179.671L176.12 38.6591V36.8693L179.756 34.4545H181.518ZM187.37 47.0114L187.256 47.7784C187.176 48.3182 187.053 48.8958 186.887 49.5114C186.726 50.1269 186.558 50.7069 186.383 51.2514C186.208 51.7959 186.063 52.2292 185.95 52.5511H184.671C184.733 52.2481 184.813 51.848 184.913 51.3509C185.012 50.8537 185.112 50.2973 185.211 49.6818C185.315 49.071 185.4 48.446 185.467 47.8068L185.552 47.0114H187.37ZM194.815 49.1989C193.877 49.1989 193.042 49.0379 192.308 48.7159C191.579 48.3939 190.999 47.9465 190.568 47.3736C190.142 46.7959 189.91 46.1259 189.872 45.3636H191.662C191.699 45.8324 191.86 46.2372 192.145 46.5781C192.429 46.9143 192.8 47.1747 193.26 47.3594C193.719 47.544 194.228 47.6364 194.787 47.6364C195.412 47.6364 195.966 47.5275 196.449 47.3097C196.931 47.0919 197.31 46.7888 197.585 46.4006C197.859 46.0123 197.997 45.5625 197.997 45.0511C197.997 44.5161 197.864 44.045 197.599 43.6378C197.334 43.2259 196.946 42.9039 196.434 42.6719C195.923 42.4399 195.298 42.3239 194.559 42.3239H193.395V40.7614H194.559C195.137 40.7614 195.644 40.6572 196.079 40.4489C196.52 40.2405 196.863 39.947 197.109 39.5682C197.36 39.1894 197.485 38.7443 197.485 38.233C197.485 37.7405 197.377 37.312 197.159 36.9474C196.941 36.5829 196.633 36.2988 196.235 36.0952C195.842 35.8916 195.378 35.7898 194.843 35.7898C194.342 35.7898 193.868 35.8821 193.423 36.0668C192.983 36.2467 192.623 36.5095 192.343 36.8551C192.064 37.196 191.913 37.608 191.889 38.0909H190.184C190.213 37.3286 190.442 36.661 190.873 36.0881C191.304 35.5104 191.868 35.0606 192.564 34.7386C193.264 34.4167 194.034 34.2557 194.872 34.2557C195.771 34.2557 196.543 34.438 197.187 34.8026C197.831 35.1624 198.326 35.6383 198.672 36.2301C199.017 36.822 199.19 37.4612 199.19 38.1477C199.19 38.9669 198.975 39.6652 198.544 40.2429C198.118 40.8205 197.538 41.2206 196.804 41.4432V41.5568C197.722 41.7083 198.44 42.099 198.956 42.7287C199.472 43.3537 199.73 44.1278 199.73 45.0511C199.73 45.8419 199.514 46.5521 199.083 47.1818C198.657 47.8068 198.075 48.2992 197.336 48.6591C196.598 49.0189 195.757 49.1989 194.815 49.1989ZM207.379 49.1989C206.309 49.1989 205.397 48.9077 204.645 48.3253C203.892 47.7382 203.316 46.8883 202.919 45.7756C202.521 44.6581 202.322 43.3087 202.322 41.7273C202.322 40.1553 202.521 38.813 202.919 37.7003C203.321 36.5829 203.899 35.7306 204.652 35.1435C205.409 34.5516 206.318 34.2557 207.379 34.2557C208.44 34.2557 209.346 34.5516 210.099 35.1435C210.857 35.7306 211.434 36.5829 211.832 37.7003C212.234 38.813 212.436 40.1553 212.436 41.7273C212.436 43.3087 212.237 44.6581 211.839 45.7756C211.441 46.8883 210.866 47.7382 210.113 48.3253C209.36 48.9077 208.449 49.1989 207.379 49.1989ZM207.379 47.6364C208.44 47.6364 209.263 47.125 209.85 46.1023C210.438 45.0795 210.731 43.6212 210.731 41.7273C210.731 40.4678 210.596 39.3954 210.326 38.5099C210.061 37.6245 209.678 36.9498 209.176 36.4858C208.679 36.0218 208.08 35.7898 207.379 35.7898C206.328 35.7898 205.506 36.3082 204.914 37.3452C204.323 38.3774 204.027 39.8381 204.027 41.7273C204.027 42.9867 204.159 44.0568 204.424 44.9375C204.69 45.8182 205.071 46.4882 205.568 46.9474C206.07 47.4067 206.673 47.6364 207.379 47.6364ZM219.879 49.1989C218.809 49.1989 217.897 48.9077 217.145 48.3253C216.392 47.7382 215.816 46.8883 215.419 45.7756C215.021 44.6581 214.822 43.3087 214.822 41.7273C214.822 40.1553 215.021 38.813 215.419 37.7003C215.821 36.5829 216.399 35.7306 217.152 35.1435C217.909 34.5516 218.818 34.2557 219.879 34.2557C220.94 34.2557 221.846 34.5516 222.599 35.1435C223.357 35.7306 223.934 36.5829 224.332 37.7003C224.734 38.813 224.936 40.1553 224.936 41.7273C224.936 43.3087 224.737 44.6581 224.339 45.7756C223.941 46.8883 223.366 47.7382 222.613 48.3253C221.86 48.9077 220.949 49.1989 219.879 49.1989ZM219.879 47.6364C220.94 47.6364 221.763 47.125 222.35 46.1023C222.938 45.0795 223.231 43.6212 223.231 41.7273C223.231 40.4678 223.096 39.3954 222.826 38.5099C222.561 37.6245 222.178 36.9498 221.676 36.4858C221.179 36.0218 220.58 35.7898 219.879 35.7898C218.828 35.7898 218.006 36.3082 217.414 37.3452C216.823 38.3774 216.527 39.8381 216.527 41.7273C216.527 42.9867 216.659 44.0568 216.924 44.9375C217.19 45.8182 217.571 46.4882 218.068 46.9474C218.57 47.4067 219.173 47.6364 219.879 47.6364ZM228.377 49.1136C228.026 49.1136 227.726 48.9882 227.475 48.7372C227.224 48.4863 227.098 48.1856 227.098 47.8352C227.098 47.4848 227.224 47.1842 227.475 46.9332C227.726 46.6823 228.026 46.5568 228.377 46.5568C228.727 46.5568 229.028 46.6823 229.279 46.9332C229.53 47.1842 229.655 47.4848 229.655 47.8352C229.655 48.0672 229.596 48.2803 229.478 48.4744C229.364 48.6686 229.21 48.8248 229.016 48.9432C228.827 49.0568 228.614 49.1136 228.377 49.1136ZM236.871 49.1989C235.801 49.1989 234.89 48.9077 234.137 48.3253C233.384 47.7382 232.809 46.8883 232.411 45.7756C232.013 44.6581 231.814 43.3087 231.814 41.7273C231.814 40.1553 232.013 38.813 232.411 37.7003C232.813 36.5829 233.391 35.7306 234.144 35.1435C234.901 34.5516 235.81 34.2557 236.871 34.2557C237.932 34.2557 238.838 34.5516 239.591 35.1435C240.349 35.7306 240.926 36.5829 241.324 37.7003C241.727 38.813 241.928 40.1553 241.928 41.7273C241.928 43.3087 241.729 44.6581 241.331 45.7756C240.934 46.8883 240.358 47.7382 239.605 48.3253C238.853 48.9077 237.941 49.1989 236.871 49.1989ZM236.871 47.6364C237.932 47.6364 238.756 47.125 239.343 46.1023C239.93 45.0795 240.223 43.6212 240.223 41.7273C240.223 40.4678 240.088 39.3954 239.819 38.5099C239.553 37.6245 239.17 36.9498 238.668 36.4858C238.171 36.0218 237.572 35.7898 236.871 35.7898C235.82 35.7898 234.998 36.3082 234.407 37.3452C233.815 38.3774 233.519 39.8381 233.519 41.7273C233.519 42.9867 233.651 44.0568 233.917 44.9375C234.182 45.8182 234.563 46.4882 235.06 46.9474C235.562 47.4067 236.166 47.6364 236.871 47.6364ZM249.371 49.1989C248.301 49.1989 247.39 48.9077 246.637 48.3253C245.884 47.7382 245.309 46.8883 244.911 45.7756C244.513 44.6581 244.314 43.3087 244.314 41.7273C244.314 40.1553 244.513 38.813 244.911 37.7003C245.313 36.5829 245.891 35.7306 246.644 35.1435C247.401 34.5516 248.31 34.2557 249.371 34.2557C250.432 34.2557 251.338 34.5516 252.091 35.1435C252.849 35.7306 253.426 36.5829 253.824 37.7003C254.227 38.813 254.428 40.1553 254.428 41.7273C254.428 43.3087 254.229 44.6581 253.831 45.7756C253.434 46.8883 252.858 47.7382 252.105 48.3253C251.353 48.9077 250.441 49.1989 249.371 49.1989ZM249.371 47.6364C250.432 47.6364 251.256 47.125 251.843 46.1023C252.43 45.0795 252.723 43.6212 252.723 41.7273C252.723 40.4678 252.588 39.3954 252.319 38.5099C252.053 37.6245 251.67 36.9498 251.168 36.4858C250.671 36.0218 250.072 35.7898 249.371 35.7898C248.32 35.7898 247.498 36.3082 246.907 37.3452C246.315 38.3774 246.019 39.8381 246.019 41.7273C246.019 42.9867 246.151 44.0568 246.417 44.9375C246.682 45.8182 247.063 46.4882 247.56 46.9474C248.062 47.4067 248.666 47.6364 249.371 47.6364ZM0.761364 83V68.4545H5.67614C6.8125 68.4545 7.74527 68.6487 8.47443 69.0369C9.2036 69.4205 9.74337 69.9484 10.0938 70.6207C10.4441 71.2931 10.6193 72.0578 10.6193 72.9148C10.6193 73.7718 10.4441 74.5317 10.0938 75.1946C9.74337 75.8575 9.20597 76.3783 8.48153 76.7571C7.7571 77.1312 6.83144 77.3182 5.70455 77.3182H1.72727V75.7273H5.64773C6.42424 75.7273 7.04924 75.6136 7.52273 75.3864C8.00095 75.1591 8.34659 74.8371 8.55966 74.4205C8.77746 73.9991 8.88636 73.4972 8.88636 72.9148C8.88636 72.3324 8.77746 71.8234 8.55966 71.3878C8.34186 70.9522 7.99384 70.616 7.51562 70.3793C7.03741 70.1378 6.4053 70.017 5.61932 70.017H2.52273V83H0.761364ZM7.60795 76.4659L11.1875 83H9.14205L5.61932 76.4659H7.60795ZM17.7837 83.2273C16.7326 83.2273 15.8259 82.9953 15.0636 82.5312C14.306 82.0625 13.7212 81.4091 13.3093 80.571C12.9021 79.7282 12.6985 78.7481 12.6985 77.6307C12.6985 76.5133 12.9021 75.5284 13.3093 74.6761C13.7212 73.8191 14.2942 73.1515 15.0281 72.6733C15.7667 72.1903 16.6284 71.9489 17.6133 71.9489C18.1815 71.9489 18.7425 72.0436 19.2965 72.233C19.8505 72.4223 20.3548 72.7301 20.8093 73.1562C21.2638 73.5777 21.6261 74.1364 21.896 74.8324C22.1658 75.5284 22.3008 76.3854 22.3008 77.4034V78.1136H13.8917V76.6648H20.5962C20.5962 76.0492 20.4731 75.5 20.2269 75.017C19.9854 74.5341 19.6398 74.1529 19.19 73.8736C18.7449 73.5942 18.2193 73.4545 17.6133 73.4545C16.9457 73.4545 16.368 73.6203 15.8803 73.9517C15.3974 74.2784 15.0257 74.7045 14.7653 75.2301C14.5049 75.7557 14.3746 76.3191 14.3746 76.9205V77.8864C14.3746 78.7102 14.5167 79.4086 14.8008 79.9815C15.0896 80.5497 15.4897 80.983 16.0011 81.2812C16.5124 81.5748 17.1067 81.7216 17.7837 81.7216C18.2241 81.7216 18.6218 81.66 18.9769 81.5369C19.3368 81.4091 19.6469 81.2197 19.9073 80.9688C20.1677 80.7131 20.369 80.3958 20.511 80.017L22.1303 80.4716C21.9599 81.0208 21.6734 81.5038 21.271 81.9205C20.8685 82.3324 20.3713 82.6544 19.7795 82.8864C19.1876 83.1136 18.5224 83.2273 17.7837 83.2273ZM26.5266 76.4375V83H24.8505V72.0909H26.4698V73.7955H26.6119C26.8675 73.2415 27.2558 72.7964 27.7766 72.4602C28.2975 72.1193 28.9698 71.9489 29.7937 71.9489C30.5323 71.9489 31.1786 72.1004 31.7326 72.4034C32.2866 72.7017 32.7174 73.1562 33.0252 73.767C33.333 74.3731 33.4869 75.1402 33.4869 76.0682V83H31.8107V76.1818C31.8107 75.3248 31.5882 74.6572 31.1431 74.179C30.698 73.696 30.0872 73.4545 29.3107 73.4545C28.7757 73.4545 28.2975 73.5705 27.8761 73.8026C27.4594 74.0346 27.1303 74.3731 26.8888 74.8182C26.6474 75.2633 26.5266 75.803 26.5266 76.4375ZM41.294 72.0909V73.5114H35.6406V72.0909H41.294ZM37.2884 69.4773H38.9645V79.875C38.9645 80.3485 39.0331 80.7036 39.1705 80.9403C39.3125 81.1723 39.4924 81.3286 39.7102 81.4091C39.9328 81.4848 40.1671 81.5227 40.4134 81.5227C40.598 81.5227 40.7495 81.5133 40.8679 81.4943C40.9863 81.4706 41.081 81.4517 41.152 81.4375L41.4929 82.9432C41.3793 82.9858 41.2206 83.0284 41.017 83.071C40.8134 83.1184 40.5554 83.142 40.2429 83.142C39.7694 83.142 39.3054 83.0402 38.8509 82.8366C38.401 82.633 38.027 82.3229 37.7287 81.9062C37.4351 81.4896 37.2884 80.964 37.2884 80.3295V69.4773ZM61.3153 74.946V76.5085H54.9517V74.946H61.3153ZM69.8612 83V81.7216L74.6623 76.4659C75.2257 75.8504 75.6897 75.3153 76.0543 74.8608C76.4189 74.4015 76.6888 73.9706 76.864 73.5682C77.0439 73.161 77.1339 72.7348 77.1339 72.2898C77.1339 71.7784 77.0108 71.3357 76.7646 70.9616C76.5231 70.5876 76.1916 70.2988 75.7702 70.0952C75.3488 69.8916 74.8754 69.7898 74.3498 69.7898C73.7911 69.7898 73.3034 69.9058 72.8867 70.1378C72.4748 70.3651 72.1552 70.6847 71.9279 71.0966C71.7054 71.5085 71.5941 71.9915 71.5941 72.5455H69.918C69.918 71.6932 70.1145 70.9451 70.5075 70.3011C70.9004 69.6572 71.4355 69.1553 72.1126 68.7955C72.7944 68.4356 73.5591 68.2557 74.4066 68.2557C75.2589 68.2557 76.0141 68.4356 76.6722 68.7955C77.3304 69.1553 77.8465 69.6406 78.2205 70.2514C78.5946 70.8622 78.7816 71.5417 78.7816 72.2898C78.7816 72.8248 78.6845 73.348 78.4904 73.8594C78.301 74.366 77.9696 74.9318 77.4961 75.5568C77.0273 76.1771 76.3763 76.9347 75.543 77.8295L72.2759 81.3239V81.4375H79.0373V83H69.8612ZM86.7148 83.1989C85.6448 83.1989 84.7333 82.9077 83.9805 82.3253C83.2276 81.7382 82.6523 80.8883 82.2546 79.7756C81.8569 78.6581 81.658 77.3087 81.658 75.7273C81.658 74.1553 81.8569 72.813 82.2546 71.7003C82.6571 70.5829 83.2347 69.7306 83.9876 69.1435C84.7451 68.5516 85.6542 68.2557 86.7148 68.2557C87.7754 68.2557 88.6822 68.5516 89.435 69.1435C90.1926 69.7306 90.7702 70.5829 91.168 71.7003C91.5704 72.813 91.7717 74.1553 91.7717 75.7273C91.7717 77.3087 91.5728 78.6581 91.1751 79.7756C90.7773 80.8883 90.2021 81.7382 89.4492 82.3253C88.6964 82.9077 87.7849 83.1989 86.7148 83.1989ZM86.7148 81.6364C87.7754 81.6364 88.5993 81.125 89.1864 80.1023C89.7736 79.0795 90.0671 77.6212 90.0671 75.7273C90.0671 74.4678 89.9322 73.3954 89.6623 72.5099C89.3971 71.6245 89.0136 70.9498 88.5117 70.4858C88.0146 70.0218 87.4156 69.7898 86.7148 69.7898C85.6637 69.7898 84.8422 70.3082 84.2504 71.3452C83.6585 72.3774 83.3626 73.8381 83.3626 75.7273C83.3626 76.9867 83.4951 78.0568 83.7603 78.9375C84.0254 79.8182 84.4066 80.4882 84.9038 80.9474C85.4057 81.4067 86.0094 81.6364 86.7148 81.6364ZM99.641 67.7727L94.9535 85.1875H93.4194L98.1069 67.7727H99.641ZM106.713 68.4545V83H104.952V70.3011H104.866L101.315 72.6591V70.8693L104.952 68.4545H106.713ZM116.067 67.7727L111.379 85.1875H109.845L114.533 67.7727H116.067ZM118.025 83V81.7216L122.826 76.4659C123.39 75.8504 123.854 75.3153 124.218 74.8608C124.583 74.4015 124.853 73.9706 125.028 73.5682C125.208 73.161 125.298 72.7348 125.298 72.2898C125.298 71.7784 125.175 71.3357 124.929 70.9616C124.687 70.5876 124.356 70.2988 123.934 70.0952C123.513 69.8916 123.039 69.7898 122.514 69.7898C121.955 69.7898 121.467 69.9058 121.051 70.1378C120.639 70.3651 120.319 70.6847 120.092 71.0966C119.869 71.5085 119.758 71.9915 119.758 72.5455H118.082C118.082 71.6932 118.279 70.9451 118.672 70.3011C119.065 69.6572 119.6 69.1553 120.277 68.7955C120.958 68.4356 121.723 68.2557 122.571 68.2557C123.423 68.2557 124.178 68.4356 124.836 68.7955C125.494 69.1553 126.011 69.6406 126.385 70.2514C126.759 70.8622 126.946 71.5417 126.946 72.2898C126.946 72.8248 126.849 73.348 126.654 73.8594C126.465 74.366 126.134 74.9318 125.66 75.5568C125.191 76.1771 124.54 76.9347 123.707 77.8295L120.44 81.3239V81.4375H127.201V83H118.025ZM129.481 80.017V78.5682L135.873 68.4545H136.924V70.6989H136.214L131.385 78.3409V78.4545H139.993V80.017H129.481ZM136.328 83V79.5767V78.902V68.4545H138.004V83H136.328ZM154.558 74.946V76.5085H148.194V74.946H154.558ZM172.024 73.5966L171.37 75.017H162.109L162.62 73.5966H172.024ZM170.802 76.4375L170.149 77.858H162.109L162.62 76.4375H170.802ZM173.7 69.7614L173.018 71.2386C172.715 70.964 172.395 70.7273 172.059 70.5284C171.723 70.3295 171.37 70.1757 171.001 70.0668C170.632 69.9579 170.243 69.9034 169.836 69.9034C169.031 69.9034 168.307 70.1259 167.663 70.571C167.019 71.0161 166.51 71.6719 166.136 72.5384C165.762 73.4048 165.575 74.4678 165.575 75.7273C165.575 76.9867 165.762 78.0497 166.136 78.9162C166.51 79.7827 167.019 80.4384 167.663 80.8835C168.307 81.3286 169.031 81.5511 169.836 81.5511C170.253 81.5511 170.646 81.4967 171.015 81.3878C171.389 81.2789 171.737 81.1297 172.059 80.9403C172.386 80.7509 172.687 80.5379 172.961 80.3011L173.672 81.7784C173.174 82.2472 172.592 82.6023 171.924 82.8438C171.257 83.0805 170.561 83.1989 169.836 83.1989C168.672 83.1989 167.639 82.8958 166.74 82.2898C165.845 81.6837 165.142 80.822 164.63 79.7045C164.124 78.5871 163.87 77.2614 163.87 75.7273C163.87 74.1932 164.124 72.8674 164.63 71.75C165.142 70.6326 165.845 69.7708 166.74 69.1648C167.639 68.5587 168.672 68.2557 169.836 68.2557C170.589 68.2557 171.292 68.3859 171.946 68.6463C172.604 68.9067 173.189 69.2784 173.7 69.7614ZM181.518 68.4545V83H179.756V70.3011H179.671L176.12 72.6591V70.8693L179.756 68.4545H181.518ZM187.37 81.0114L187.256 81.7784C187.176 82.3182 187.053 82.8958 186.887 83.5114C186.726 84.1269 186.558 84.7069 186.383 85.2514C186.208 85.7959 186.063 86.2292 185.95 86.5511H184.671C184.733 86.2481 184.813 85.848 184.913 85.3509C185.012 84.8537 185.112 84.2973 185.211 83.6818C185.315 83.071 185.4 82.446 185.467 81.8068L185.552 81.0114H187.37ZM194.815 83.1989C193.877 83.1989 193.042 83.0379 192.308 82.7159C191.579 82.3939 190.999 81.9465 190.568 81.3736C190.142 80.7959 189.91 80.1259 189.872 79.3636H191.662C191.699 79.8324 191.86 80.2372 192.145 80.5781C192.429 80.9143 192.8 81.1747 193.26 81.3594C193.719 81.544 194.228 81.6364 194.787 81.6364C195.412 81.6364 195.966 81.5275 196.449 81.3097C196.931 81.0919 197.31 80.7888 197.585 80.4006C197.859 80.0123 197.997 79.5625 197.997 79.0511C197.997 78.5161 197.864 78.045 197.599 77.6378C197.334 77.2259 196.946 76.9039 196.434 76.6719C195.923 76.4399 195.298 76.3239 194.559 76.3239H193.395V74.7614H194.559C195.137 74.7614 195.644 74.6572 196.079 74.4489C196.52 74.2405 196.863 73.947 197.109 73.5682C197.36 73.1894 197.485 72.7443 197.485 72.233C197.485 71.7405 197.377 71.312 197.159 70.9474C196.941 70.5829 196.633 70.2988 196.235 70.0952C195.842 69.8916 195.378 69.7898 194.843 69.7898C194.342 69.7898 193.868 69.8821 193.423 70.0668C192.983 70.2467 192.623 70.5095 192.343 70.8551C192.064 71.196 191.913 71.608 191.889 72.0909H190.184C190.213 71.3286 190.442 70.661 190.873 70.0881C191.304 69.5104 191.868 69.0606 192.564 68.7386C193.264 68.4167 194.034 68.2557 194.872 68.2557C195.771 68.2557 196.543 68.438 197.187 68.8026C197.831 69.1624 198.326 69.6383 198.672 70.2301C199.017 70.822 199.19 71.4612 199.19 72.1477C199.19 72.9669 198.975 73.6652 198.544 74.2429C198.118 74.8205 197.538 75.2206 196.804 75.4432V75.5568C197.722 75.7083 198.44 76.099 198.956 76.7287C199.472 77.3537 199.73 78.1278 199.73 79.0511C199.73 79.8419 199.514 80.5521 199.083 81.1818C198.657 81.8068 198.075 82.2992 197.336 82.6591C196.598 83.0189 195.757 83.1989 194.815 83.1989ZM207.379 83.1989C206.309 83.1989 205.397 82.9077 204.645 82.3253C203.892 81.7382 203.316 80.8883 202.919 79.7756C202.521 78.6581 202.322 77.3087 202.322 75.7273C202.322 74.1553 202.521 72.813 202.919 71.7003C203.321 70.5829 203.899 69.7306 204.652 69.1435C205.409 68.5516 206.318 68.2557 207.379 68.2557C208.44 68.2557 209.346 68.5516 210.099 69.1435C210.857 69.7306 211.434 70.5829 211.832 71.7003C212.234 72.813 212.436 74.1553 212.436 75.7273C212.436 77.3087 212.237 78.6581 211.839 79.7756C211.441 80.8883 210.866 81.7382 210.113 82.3253C209.36 82.9077 208.449 83.1989 207.379 83.1989ZM207.379 81.6364C208.44 81.6364 209.263 81.125 209.85 80.1023C210.438 79.0795 210.731 77.6212 210.731 75.7273C210.731 74.4678 210.596 73.3954 210.326 72.5099C210.061 71.6245 209.678 70.9498 209.176 70.4858C208.679 70.0218 208.08 69.7898 207.379 69.7898C206.328 69.7898 205.506 70.3082 204.914 71.3452C204.323 72.3774 204.027 73.8381 204.027 75.7273C204.027 76.9867 204.159 78.0568 204.424 78.9375C204.69 79.8182 205.071 80.4882 205.568 80.9474C206.07 81.4067 206.673 81.6364 207.379 81.6364ZM219.879 83.1989C218.809 83.1989 217.897 82.9077 217.145 82.3253C216.392 81.7382 215.816 80.8883 215.419 79.7756C215.021 78.6581 214.822 77.3087 214.822 75.7273C214.822 74.1553 215.021 72.813 215.419 71.7003C215.821 70.5829 216.399 69.7306 217.152 69.1435C217.909 68.5516 218.818 68.2557 219.879 68.2557C220.94 68.2557 221.846 68.5516 222.599 69.1435C223.357 69.7306 223.934 70.5829 224.332 71.7003C224.734 72.813 224.936 74.1553 224.936 75.7273C224.936 77.3087 224.737 78.6581 224.339 79.7756C223.941 80.8883 223.366 81.7382 222.613 82.3253C221.86 82.9077 220.949 83.1989 219.879 83.1989ZM219.879 81.6364C220.94 81.6364 221.763 81.125 222.35 80.1023C222.938 79.0795 223.231 77.6212 223.231 75.7273C223.231 74.4678 223.096 73.3954 222.826 72.5099C222.561 71.6245 222.178 70.9498 221.676 70.4858C221.179 70.0218 220.58 69.7898 219.879 69.7898C218.828 69.7898 218.006 70.3082 217.414 71.3452C216.823 72.3774 216.527 73.8381 216.527 75.7273C216.527 76.9867 216.659 78.0568 216.924 78.9375C217.19 79.8182 217.571 80.4882 218.068 80.9474C218.57 81.4067 219.173 81.6364 219.879 81.6364ZM228.377 83.1136C228.026 83.1136 227.726 82.9882 227.475 82.7372C227.224 82.4863 227.098 82.1856 227.098 81.8352C227.098 81.4848 227.224 81.1842 227.475 80.9332C227.726 80.6823 228.026 80.5568 228.377 80.5568C228.727 80.5568 229.028 80.6823 229.279 80.9332C229.53 81.1842 229.655 81.4848 229.655 81.8352C229.655 82.0672 229.596 82.2803 229.478 82.4744C229.364 82.6686 229.21 82.8248 229.016 82.9432C228.827 83.0568 228.614 83.1136 228.377 83.1136ZM236.871 83.1989C235.801 83.1989 234.89 82.9077 234.137 82.3253C233.384 81.7382 232.809 80.8883 232.411 79.7756C232.013 78.6581 231.814 77.3087 231.814 75.7273C231.814 74.1553 232.013 72.813 232.411 71.7003C232.813 70.5829 233.391 69.7306 234.144 69.1435C234.901 68.5516 235.81 68.2557 236.871 68.2557C237.932 68.2557 238.838 68.5516 239.591 69.1435C240.349 69.7306 240.926 70.5829 241.324 71.7003C241.727 72.813 241.928 74.1553 241.928 75.7273C241.928 77.3087 241.729 78.6581 241.331 79.7756C240.934 80.8883 240.358 81.7382 239.605 82.3253C238.853 82.9077 237.941 83.1989 236.871 83.1989ZM236.871 81.6364C237.932 81.6364 238.756 81.125 239.343 80.1023C239.93 79.0795 240.223 77.6212 240.223 75.7273C240.223 74.4678 240.088 73.3954 239.819 72.5099C239.553 71.6245 239.17 70.9498 238.668 70.4858C238.171 70.0218 237.572 69.7898 236.871 69.7898C235.82 69.7898 234.998 70.3082 234.407 71.3452C233.815 72.3774 233.519 73.8381 233.519 75.7273C233.519 76.9867 233.651 78.0568 233.917 78.9375C234.182 79.8182 234.563 80.4882 235.06 80.9474C235.562 81.4067 236.166 81.6364 236.871 81.6364ZM249.371 83.1989C248.301 83.1989 247.39 82.9077 246.637 82.3253C245.884 81.7382 245.309 80.8883 244.911 79.7756C244.513 78.6581 244.314 77.3087 244.314 75.7273C244.314 74.1553 244.513 72.813 244.911 71.7003C245.313 70.5829 245.891 69.7306 246.644 69.1435C247.401 68.5516 248.31 68.2557 249.371 68.2557C250.432 68.2557 251.338 68.5516 252.091 69.1435C252.849 69.7306 253.426 70.5829 253.824 71.7003C254.227 72.813 254.428 74.1553 254.428 75.7273C254.428 77.3087 254.229 78.6581 253.831 79.7756C253.434 80.8883 252.858 81.7382 252.105 82.3253C251.353 82.9077 250.441 83.1989 249.371 83.1989ZM249.371 81.6364C250.432 81.6364 251.256 81.125 251.843 80.1023C252.43 79.0795 252.723 77.6212 252.723 75.7273C252.723 74.4678 252.588 73.3954 252.319 72.5099C252.053 71.6245 251.67 70.9498 251.168 70.4858C250.671 70.0218 250.072 69.7898 249.371 69.7898C248.32 69.7898 247.498 70.3082 246.907 71.3452C246.315 72.3774 246.019 73.8381 246.019 75.7273C246.019 76.9867 246.151 78.0568 246.417 78.9375C246.682 79.8182 247.063 80.4882 247.56 80.9474C248.062 81.4067 248.666 81.6364 249.371 81.6364Z" fill="white"/>
</svg>
