<svg width="62" height="66" viewBox="0 0 62 66" fill="none" xmlns="http://www.w3.org/2000/svg">
<path d="M30.1515 0C15.9349 0 4.3031 11.6318 4.3031 25.8484C4.3031 40.0651 15.9349 51.6969 30.1515 51.6969C44.3682 51.6969 56 40.0651 56 25.8484C56 11.6318 44.3682 0 30.1515 0ZM30.1515 46.5272C18.7524 46.5272 9.47279 37.2476 9.47279 25.8484C9.47279 14.4493 18.7524 5.16969 30.1515 5.16969C41.5507 5.16969 50.8303 14.4493 50.8303 25.8484C50.8303 37.2476 41.5507 46.5272 30.1515 46.5272ZM42.016 14.4234L24.9819 31.4576L18.2871 24.7887L14.6425 28.4333L24.9819 38.7727L45.6606 18.0939L42.016 14.4234Z" fill="white"/>
<path d="M9.61207 63V54.2727H12.5609C13.2428 54.2727 13.8024 54.3892 14.2399 54.6222C14.6774 54.8523 15.0013 55.169 15.2115 55.5724C15.4217 55.9759 15.5268 56.4347 15.5268 56.9489C15.5268 57.4631 15.4217 57.919 15.2115 58.3168C15.0013 58.7145 14.6788 59.027 14.2442 59.2543C13.8095 59.4787 13.2541 59.5909 12.578 59.5909H10.1916V58.6364H12.5439C13.0098 58.6364 13.3848 58.5682 13.6689 58.4318C13.9558 58.2955 14.1632 58.1023 14.2911 57.8523C14.4217 57.5994 14.4871 57.2983 14.4871 56.9489C14.4871 56.5994 14.4217 56.294 14.2911 56.0327C14.1604 55.7713 13.9516 55.5696 13.6646 55.4276C13.3777 55.2827 12.9984 55.2102 12.5268 55.2102H10.6689V63H9.61207ZM13.72 59.0795L15.8678 63H14.6405L12.5268 59.0795H13.72ZM19.8255 63.1364C19.1948 63.1364 18.6508 62.9972 18.1934 62.7188C17.7388 62.4375 17.388 62.0455 17.1408 61.5426C16.8965 61.0369 16.7744 60.4489 16.7744 59.7784C16.7744 59.108 16.8965 58.517 17.1408 58.0057C17.388 57.4915 17.7317 57.0909 18.1721 56.804C18.6153 56.5142 19.1323 56.3693 19.7232 56.3693C20.0641 56.3693 20.4008 56.4261 20.7332 56.5398C21.0656 56.6534 21.3681 56.8381 21.6408 57.0938C21.9136 57.3466 22.1309 57.6818 22.2928 58.0994C22.4548 58.517 22.5357 59.0312 22.5357 59.642V60.0682H17.4903V59.1989H21.513C21.513 58.8295 21.4391 58.5 21.2914 58.2102C21.1465 57.9205 20.9391 57.6918 20.6692 57.5241C20.4022 57.3565 20.0869 57.2727 19.7232 57.2727C19.3227 57.2727 18.9761 57.3722 18.6835 57.571C18.3937 57.767 18.1707 58.0227 18.0144 58.3381C17.8582 58.6534 17.78 58.9915 17.78 59.3523V59.9318C17.78 60.4261 17.8653 60.8452 18.0357 61.1889C18.209 61.5298 18.4491 61.7898 18.7559 61.9688C19.0627 62.1449 19.4192 62.233 19.8255 62.233C20.0897 62.233 20.3283 62.196 20.5414 62.1222C20.7573 62.0455 20.9434 61.9318 21.0996 61.7812C21.2559 61.6278 21.3766 61.4375 21.4619 61.2102L22.4335 61.483C22.3312 61.8125 22.1593 62.1023 21.9178 62.3523C21.6763 62.5994 21.3781 62.7926 21.0229 62.9318C20.6678 63.0682 20.2687 63.1364 19.8255 63.1364ZM24.0656 65.4545V56.4545H25.0371V57.4943H25.1565C25.2303 57.3807 25.3326 57.2358 25.4633 57.0597C25.5968 56.8807 25.7871 56.7216 26.0343 56.5824C26.2843 56.4403 26.6224 56.3693 27.0485 56.3693C27.5996 56.3693 28.0854 56.5071 28.5059 56.7827C28.9263 57.0582 29.2545 57.4489 29.4903 57.9545C29.7261 58.4602 29.844 59.0568 29.844 59.7443C29.844 60.4375 29.7261 61.0384 29.4903 61.5469C29.2545 62.0526 28.9278 62.4446 28.5102 62.723C28.0925 62.9986 27.611 63.1364 27.0656 63.1364C26.6451 63.1364 26.3085 63.0668 26.0556 62.9276C25.8028 62.7855 25.6082 62.625 25.4718 62.446C25.3354 62.2642 25.2303 62.1136 25.1565 61.9943H25.0712V65.4545H24.0656ZM25.0542 59.7273C25.0542 60.2216 25.1266 60.6577 25.2715 61.0355C25.4164 61.4105 25.6281 61.7045 25.9065 61.9176C26.1849 62.1278 26.5258 62.233 26.9292 62.233C27.3496 62.233 27.7005 62.1222 27.9817 61.9006C28.2658 61.6761 28.4789 61.375 28.621 60.9972C28.7658 60.6165 28.8383 60.1932 28.8383 59.7273C28.8383 59.267 28.7673 58.8523 28.6252 58.483C28.486 58.1108 28.2744 57.8168 27.9903 57.6009C27.709 57.3821 27.3553 57.2727 26.9292 57.2727C26.5201 57.2727 26.1763 57.3764 25.8979 57.5838C25.6195 57.7884 25.4093 58.0753 25.2673 58.4446C25.1252 58.8111 25.0542 59.2386 25.0542 59.7273ZM34.0371 63.1364C33.4462 63.1364 32.9278 62.9957 32.4817 62.7145C32.0386 62.4332 31.692 62.0398 31.442 61.5341C31.1948 61.0284 31.0712 60.4375 31.0712 59.7614C31.0712 59.0795 31.1948 58.4844 31.442 57.9759C31.692 57.4673 32.0386 57.0724 32.4817 56.7912C32.9278 56.5099 33.4462 56.3693 34.0371 56.3693C34.6281 56.3693 35.1451 56.5099 35.5883 56.7912C36.0343 57.0724 36.3809 57.4673 36.6281 57.9759C36.8781 58.4844 37.0031 59.0795 37.0031 59.7614C37.0031 60.4375 36.8781 61.0284 36.6281 61.5341C36.3809 62.0398 36.0343 62.4332 35.5883 62.7145C35.1451 62.9957 34.6281 63.1364 34.0371 63.1364ZM34.0371 62.233C34.486 62.233 34.8553 62.1179 35.1451 61.8878C35.4349 61.6577 35.6494 61.3551 35.7886 60.9801C35.9278 60.6051 35.9974 60.1989 35.9974 59.7614C35.9974 59.3239 35.9278 58.9162 35.7886 58.5384C35.6494 58.1605 35.4349 57.8551 35.1451 57.6222C34.8553 57.3892 34.486 57.2727 34.0371 57.2727C33.5883 57.2727 33.219 57.3892 32.9292 57.6222C32.6394 57.8551 32.4249 58.1605 32.2857 58.5384C32.1465 58.9162 32.0769 59.3239 32.0769 59.7614C32.0769 60.1989 32.1465 60.6051 32.2857 60.9801C32.4249 61.3551 32.6394 61.6577 32.9292 61.8878C33.219 62.1179 33.5883 62.233 34.0371 62.233ZM38.5382 63V56.4545H39.5098V57.4432H39.578C39.6973 57.1193 39.9132 56.8565 40.2257 56.6548C40.5382 56.4531 40.8905 56.3523 41.2825 56.3523C41.3564 56.3523 41.4487 56.3537 41.5595 56.3565C41.6703 56.3594 41.7541 56.3636 41.8109 56.3693V57.392C41.7768 57.3835 41.6987 57.3707 41.5766 57.3537C41.4572 57.3338 41.3308 57.3239 41.1973 57.3239C40.8791 57.3239 40.595 57.3906 40.345 57.5241C40.0979 57.6548 39.9018 57.8366 39.757 58.0696C39.6149 58.2997 39.5439 58.5625 39.5439 58.858V63H38.5382ZM46.2598 56.4545V57.3068H42.8678V56.4545H46.2598ZM43.8564 54.8864H44.8621V61.125C44.8621 61.4091 44.9033 61.6222 44.9857 61.7642C45.0709 61.9034 45.1788 61.9972 45.3095 62.0455C45.443 62.0909 45.5837 62.1136 45.7314 62.1136C45.8422 62.1136 45.9331 62.108 46.0041 62.0966C46.0751 62.0824 46.132 62.071 46.1746 62.0625L46.3791 62.9659C46.3109 62.9915 46.2158 63.017 46.0936 63.0426C45.9714 63.071 45.8166 63.0852 45.6291 63.0852C45.345 63.0852 45.0666 63.0241 44.7939 62.902C44.524 62.7798 44.2996 62.5938 44.1206 62.3438C43.9445 62.0938 43.8564 61.7784 43.8564 61.3977V54.8864ZM52.2918 57.9205L51.3884 58.1761C51.3315 58.0256 51.2477 57.8793 51.1369 57.7372C51.029 57.5923 50.8813 57.473 50.6938 57.3793C50.5063 57.2855 50.2662 57.2386 49.9736 57.2386C49.573 57.2386 49.2392 57.331 48.9722 57.5156C48.708 57.6974 48.5759 57.929 48.5759 58.2102C48.5759 58.4602 48.6668 58.6577 48.8486 58.8026C49.0304 58.9474 49.3145 59.0682 49.7009 59.1648L50.6724 59.4034C51.2577 59.5455 51.6938 59.7628 51.9807 60.0554C52.2676 60.3452 52.4111 60.7187 52.4111 61.1761C52.4111 61.5511 52.3031 61.8864 52.0872 62.1818C51.8741 62.4773 51.5759 62.7102 51.1923 62.8807C50.8088 63.0511 50.3628 63.1364 49.8543 63.1364C49.1866 63.1364 48.6341 62.9915 48.1966 62.7017C47.7591 62.4119 47.4821 61.9886 47.3656 61.4318L48.3202 61.1932C48.4111 61.5455 48.583 61.8097 48.8358 61.9858C49.0915 62.1619 49.4253 62.25 49.8372 62.25C50.306 62.25 50.6781 62.1506 50.9537 61.9517C51.2321 61.75 51.3713 61.5085 51.3713 61.2273C51.3713 61 51.2918 60.8097 51.1327 60.6562C50.9736 60.5 50.7293 60.3835 50.3997 60.3068L49.3088 60.0511C48.7094 59.9091 48.269 59.6889 47.9878 59.3906C47.7094 59.0895 47.5702 58.7131 47.5702 58.2614C47.5702 57.892 47.6739 57.5653 47.8813 57.2812C48.0915 56.9972 48.377 56.7741 48.7378 56.6122C49.1014 56.4503 49.5134 56.3693 49.9736 56.3693C50.6213 56.3693 51.1298 56.5114 51.4991 56.7955C51.8713 57.0795 52.1355 57.4545 52.2918 57.9205Z" fill="white"/>
</svg>
