<svg width="31" height="35" viewBox="0 0 31 35" fill="none" xmlns="http://www.w3.org/2000/svg">
<path d="M16.9101 6.71863L21.7867 2.94055L23.9504 4.04981L23.6621 10.4031L16.9101 6.71863ZM12.7569 21.7279L22.3751 11.6527L15.5987 7.94438L12.7569 21.7279ZM28.9538 6.61493L25.465 4.82638L25.1746 11.2285L30.9307 14.3696L28.9538 6.61493ZM24.5135 12.6334L14.9683 21.8306L23.5979 17.6754C25.1731 21.8094 24.2812 26.8171 20.4443 30.0485C13.9972 35.478 4.03546 31.8533 2.55619 23.5398C1.50859 17.6518 5.26766 12.5128 10.366 11.0392L11.8303 19.9576L13.8652 6.94866L8.86597 4.09459L9.86223 8.70673C3.58679 10.4422 -1.06744 16.7349 0.216784 23.9524C2.01597 34.0639 14.1319 38.4723 21.9732 31.8686C26.6386 27.9395 27.7266 21.8498 25.8127 16.8225L29.5518 15.3827L24.5135 12.6334ZM20.2641 2.15995L16.051 0L9.74235 2.80718L15.4255 5.90851L20.2641 2.15995Z" fill="black"/>
</svg>
