<svg width="43" height="40" viewBox="0 0 43 40" fill="none" xmlns="http://www.w3.org/2000/svg">
<path d="M16.125 0C14.6385 0 13.4375 1.19167 13.4375 2.66667V5.33333H12.69C9.1627 5.33333 6.04688 7.60833 4.99707 10.95L3.06543 17.075C1.21777 18.2583 0 20.325 0 22.6667V37.3333C0 38.8083 1.20098 40 2.6875 40H5.375C6.86152 40 8.0625 38.8083 8.0625 37.3333V34.6667H34.9375V37.3333C34.9375 38.8083 36.1385 40 37.625 40H40.3125C41.799 40 43 38.8083 43 37.3333V22.6667C43 20.325 41.7822 18.2583 39.943 17.075L38.0113 10.95C36.9615 7.60833 33.8373 5.33333 30.31 5.33333H29.5625V2.66667C29.5625 1.19167 28.3615 0 26.875 0H16.125ZM12.69 10.6667H30.3184C31.4941 10.6667 32.5355 11.425 32.8799 12.5417L33.9717 16H9.03672L10.1285 12.5417C10.4812 11.425 11.5143 10.6667 12.69 10.6667ZM8.0625 22.6667C8.77527 22.6667 9.45885 22.9476 9.96285 23.4477C10.4669 23.9478 10.75 24.6261 10.75 25.3333C10.75 26.0406 10.4669 26.7189 9.96285 27.219C9.45885 27.719 8.77527 28 8.0625 28C7.34973 28 6.66615 27.719 6.16215 27.219C5.65815 26.7189 5.375 26.0406 5.375 25.3333C5.375 24.6261 5.65815 23.9478 6.16215 23.4477C6.66615 22.9476 7.34973 22.6667 8.0625 22.6667ZM32.25 25.3333C32.25 24.6261 32.5331 23.9478 33.0372 23.4477C33.5412 22.9476 34.2247 22.6667 34.9375 22.6667C35.6503 22.6667 36.3338 22.9476 36.8378 23.4477C37.3419 23.9478 37.625 24.6261 37.625 25.3333C37.625 26.0406 37.3419 26.7189 36.8378 27.219C36.3338 27.719 35.6503 28 34.9375 28C34.2247 28 33.5412 27.719 33.0372 27.219C32.5331 26.7189 32.25 26.0406 32.25 25.3333Z" fill="white"/>
</svg>
