<svg width="100" height="66" viewBox="0 0 100 66" fill="none" xmlns="http://www.w3.org/2000/svg">
<path fill-rule="evenodd" clip-rule="evenodd" d="M46.0499 0H57.8972C63.1928 0 67.3878 3.4741e-07 70.6695 0.445886C74.0462 0.906343 76.7804 1.87389 78.9384 4.05377C80.8918 6.02966 81.8628 8.48931 82.367 11.4852C82.7329 13.6709 82.8654 16.2617 82.9144 19.3042C82.9502 19.5259 82.954 19.7517 82.9259 19.9745C82.9336 20.808 82.9394 21.6765 82.9432 22.5799C82.9448 23.1596 82.7186 23.7161 82.3144 24.1271C82.1143 24.3306 81.8765 24.4923 81.6146 24.6028C81.3527 24.7134 81.0719 24.7707 80.7881 24.7714C80.215 24.773 79.6648 24.5442 79.2585 24.1354C78.8521 23.7266 78.623 23.1712 78.6215 22.5915V21.8571H25.3257C25.3199 22.9879 25.318 24.2022 25.3199 25.5C25.3199 31.0575 25.3257 35.0064 25.7233 38.0023C26.1122 40.9311 26.8441 42.6214 28.0628 43.8542C29.2815 45.0869 30.9526 45.8271 33.851 46.2206C36.8129 46.6227 40.714 46.6286 46.2084 46.6286H50.5301C51.1032 46.6286 51.6528 46.8588 52.0581 47.2687C52.4633 47.6787 52.691 48.2346 52.691 48.8143C52.691 49.394 52.4633 49.9499 52.0581 50.3598C51.6528 50.7697 51.1032 51 50.5301 51H46.0499C40.7543 51 36.5593 51 33.2777 50.5541C29.901 50.0937 27.1667 49.1261 25.0087 46.9462C22.8536 44.7634 21.8971 41.9978 21.4419 38.5822C21.001 35.2599 21.001 31.0197 21.001 25.6632V25.3368C20.9972 23.4095 21.0039 21.6221 21.0212 19.9745C20.9922 19.7518 20.9951 19.5261 21.0299 19.3042C21.076 16.661 21.1826 14.3791 21.4419 12.4178C21.8971 9.00223 22.8536 6.23657 25.0087 4.05377C27.1667 1.87389 29.901 0.906343 33.2777 0.445886C36.5622 3.4741e-07 40.7543 0 46.0499 0ZM25.3977 17.4857H78.5494C78.4803 15.402 78.3478 13.6797 78.1057 12.2167C77.6937 9.76286 76.9907 8.26783 75.8815 7.14583C74.6628 5.91309 72.9917 5.17286 70.0932 4.77943C67.1343 4.37726 63.2303 4.37143 57.7359 4.37143H46.2112C40.7169 4.37143 36.8158 4.37726 33.851 4.77943C30.9555 5.17286 29.2844 5.91309 28.0657 7.14583C26.8469 8.37857 26.1151 10.0689 25.7262 12.9977C25.5533 14.2946 25.4553 15.7721 25.3977 17.4828M62.0577 29.1399C62.6308 29.1399 63.1804 29.3702 63.5856 29.7801C63.9909 30.19 64.2185 30.746 64.2185 31.3257V43.5365L66.293 41.4382C66.4908 41.2235 66.7294 41.0512 66.9944 40.9318C67.2595 40.8123 67.5456 40.7481 67.8358 40.7429C68.1259 40.7377 68.4141 40.7917 68.6832 40.9016C68.9522 41.0116 69.1967 41.1752 69.4019 41.3827C69.607 41.5903 69.7688 41.8375 69.8775 42.1097C69.9862 42.3818 70.0395 42.6734 70.0344 42.9668C70.0293 43.2603 69.9658 43.5497 69.8477 43.8179C69.7296 44.086 69.5593 44.3273 69.347 44.5274L63.5847 50.3559C63.1795 50.7653 62.6303 50.9952 62.0577 50.9952C61.485 50.9952 60.9358 50.7653 60.5306 50.3559L54.7683 44.5274C54.556 44.3273 54.3857 44.086 54.2676 43.8179C54.1495 43.5497 54.086 43.2603 54.0809 42.9668C54.0758 42.6734 54.1291 42.3818 54.2378 42.1097C54.3465 41.8375 54.5083 41.5903 54.7135 41.3827C54.9186 41.1752 55.1631 41.0116 55.4321 40.9016C55.7012 40.7917 55.9894 40.7377 56.2795 40.7429C56.5697 40.7481 56.8558 40.8123 57.1209 40.9318C57.386 41.0512 57.6245 41.2235 57.8223 41.4382L59.8968 43.5365V31.3286C59.8968 30.7489 60.1244 30.1929 60.5297 29.783C60.9349 29.3731 61.4846 29.1429 62.0577 29.1429M73.4959 29.784C73.901 29.3747 74.4503 29.1448 75.0229 29.1448C75.5955 29.1448 76.1448 29.3747 76.5499 29.784L82.3122 35.6126C82.5246 35.8127 82.6948 36.054 82.8129 36.3221C82.931 36.5902 82.9945 36.8796 82.9997 37.1731C83.0048 37.4666 82.9514 37.7581 82.8427 38.0303C82.7341 38.3024 82.5723 38.5496 82.3671 38.7572C82.1619 38.9647 81.9175 39.1284 81.6484 39.2383C81.3794 39.3482 81.0912 39.4022 80.801 39.397C80.5109 39.3919 80.2247 39.3276 79.9597 39.2082C79.6946 39.0887 79.456 38.9165 79.2582 38.7017L77.1838 36.6034V48.8143C77.1838 49.394 76.9561 49.9499 76.5509 50.3598C76.1456 50.7697 75.596 51 75.0229 51C74.4498 51 73.9002 50.7697 73.4949 50.3598C73.0897 49.9499 72.862 49.394 72.862 48.8143V36.6034L70.7876 38.7017C70.5898 38.9165 70.3512 39.0887 70.0861 39.2082C69.8211 39.3276 69.5349 39.3919 69.2448 39.397C68.9546 39.4022 68.6664 39.3482 68.3974 39.2383C68.1283 39.1284 67.8839 38.9647 67.6787 38.7572C67.4735 38.5496 67.3117 38.3024 67.2031 38.0303C67.0944 37.7581 67.041 37.4666 67.0461 37.1731C67.0512 36.8796 67.1148 36.5902 67.2329 36.3221C67.351 36.054 67.5212 35.8127 67.7335 35.6126L73.4959 29.784ZM32.5257 37.1571C32.5257 36.5775 32.7534 36.0215 33.1586 35.6116C33.5639 35.2017 34.1135 34.9714 34.6866 34.9714H46.2112C46.7843 34.9714 47.334 35.2017 47.7392 35.6116C48.1445 36.0215 48.3721 36.5775 48.3721 37.1571C48.3721 37.7368 48.1445 38.2928 47.7392 38.7027C47.334 39.1126 46.7843 39.3429 46.2112 39.3429H34.6866C34.1135 39.3429 33.5639 39.1126 33.1586 38.7027C32.7534 38.2928 32.5257 37.7368 32.5257 37.1571Z" fill="white"/>
<path d="M14.1832 55.2102V54.2727H20.7287V55.2102H17.9843V63H16.9275V55.2102H14.1832ZM21.5436 63V56.4545H22.5152V57.4432H22.5834C22.7027 57.1193 22.9186 56.8565 23.2311 56.6548C23.5436 56.4531 23.8959 56.3523 24.288 56.3523C24.3618 56.3523 24.4542 56.3537 24.5649 56.3565C24.6757 56.3594 24.7596 56.3636 24.8164 56.3693V57.392C24.7823 57.3835 24.7042 57.3707 24.582 57.3537C24.4627 57.3338 24.3363 57.3239 24.2027 57.3239C23.8846 57.3239 23.6005 57.3906 23.3505 57.5241C23.1033 57.6548 22.9073 57.8366 22.7624 58.0696C22.6203 58.2997 22.5493 58.5625 22.5493 58.858V63H21.5436ZM27.9346 63.1534C27.5199 63.1534 27.1434 63.0753 26.8054 62.919C26.4673 62.7599 26.1988 62.5312 26 62.233C25.8011 61.9318 25.7017 61.5682 25.7017 61.142C25.7017 60.767 25.7755 60.4631 25.9233 60.2301C26.071 59.9943 26.2684 59.8097 26.5156 59.6761C26.7627 59.5426 27.0355 59.4432 27.3338 59.3778C27.6349 59.3097 27.9375 59.2557 28.2414 59.2159C28.6392 59.1648 28.9616 59.1264 29.2088 59.1009C29.4588 59.0724 29.6406 59.0256 29.7542 58.9602C29.8707 58.8949 29.9289 58.7812 29.9289 58.6193V58.5852C29.9289 58.1648 29.8139 57.8381 29.5838 57.6051C29.3565 57.3722 29.0113 57.2557 28.5483 57.2557C28.0681 57.2557 27.6917 57.3608 27.419 57.571C27.1463 57.7812 26.9545 58.0057 26.8437 58.2443L25.8892 57.9034C26.0596 57.5057 26.2869 57.196 26.571 56.9744C26.8579 56.75 27.1704 56.5937 27.5085 56.5057C27.8494 56.4148 28.1846 56.3693 28.5142 56.3693C28.7244 56.3693 28.9659 56.3949 29.2386 56.446C29.5142 56.4943 29.7798 56.5952 30.0355 56.7486C30.294 56.902 30.5085 57.1335 30.6789 57.4432C30.8494 57.7528 30.9346 58.1676 30.9346 58.6875V63H29.9289V62.1136H29.8778C29.8096 62.2557 29.696 62.4077 29.5369 62.5696C29.3778 62.7315 29.1662 62.8693 28.902 62.983C28.6377 63.0966 28.3153 63.1534 27.9346 63.1534ZM28.088 62.25C28.4858 62.25 28.821 62.1719 29.0937 62.0156C29.3693 61.8594 29.5767 61.6577 29.7159 61.4105C29.8579 61.1634 29.9289 60.9034 29.9289 60.6307V59.7102C29.8863 59.7614 29.7926 59.8082 29.6477 59.8509C29.5056 59.8906 29.3409 59.9261 29.1534 59.9574C28.9687 59.9858 28.7883 60.0114 28.6122 60.0341C28.4389 60.054 28.2983 60.071 28.1903 60.0852C27.9289 60.1193 27.6846 60.1747 27.4574 60.2514C27.2329 60.3253 27.0511 60.4375 26.9119 60.5881C26.7755 60.7358 26.7074 60.9375 26.7074 61.1932C26.7074 61.5426 26.8366 61.8068 27.0951 61.9858C27.3565 62.1619 27.6875 62.25 28.088 62.25ZM33.7759 59.0625V63H32.7702V56.4545H33.7418V57.4773H33.827C33.9804 57.1449 34.2134 56.8778 34.5259 56.6761C34.8384 56.4716 35.2418 56.3693 35.7361 56.3693C36.1793 56.3693 36.5671 56.4602 36.8995 56.642C37.2319 56.821 37.4904 57.0938 37.675 57.4602C37.8597 57.8239 37.952 58.2841 37.952 58.8409V63H36.9463V58.9091C36.9463 58.3949 36.8128 57.9943 36.5458 57.7074C36.2787 57.4176 35.9123 57.2727 35.4463 57.2727C35.1253 57.2727 34.8384 57.3423 34.5855 57.4815C34.3355 57.6207 34.1381 57.8239 33.9932 58.0909C33.8483 58.358 33.7759 58.6818 33.7759 59.0625ZM44.4261 57.9205L43.5227 58.1761C43.4659 58.0256 43.3821 57.8793 43.2713 57.7372C43.1633 57.5923 43.0156 57.473 42.8281 57.3793C42.6406 57.2855 42.4005 57.2386 42.1079 57.2386C41.7074 57.2386 41.3735 57.331 41.1065 57.5156C40.8423 57.6974 40.7102 57.929 40.7102 58.2102C40.7102 58.4602 40.8011 58.6577 40.9829 58.8026C41.1647 58.9474 41.4488 59.0682 41.8352 59.1648L42.8068 59.4034C43.392 59.5455 43.8281 59.7628 44.115 60.0554C44.402 60.3452 44.5454 60.7187 44.5454 61.1761C44.5454 61.5511 44.4375 61.8864 44.2216 62.1818C44.0085 62.4773 43.7102 62.7102 43.3267 62.8807C42.9431 63.0511 42.4971 63.1364 41.9886 63.1364C41.321 63.1364 40.7684 62.9915 40.3309 62.7017C39.8934 62.4119 39.6164 61.9886 39.5 61.4318L40.4545 61.1932C40.5454 61.5455 40.7173 61.8097 40.9701 61.9858C41.2258 62.1619 41.5596 62.25 41.9716 62.25C42.4403 62.25 42.8125 62.1506 43.088 61.9517C43.3664 61.75 43.5056 61.5085 43.5056 61.2273C43.5056 61 43.4261 60.8097 43.267 60.6562C43.1079 60.5 42.8636 60.3835 42.5341 60.3068L41.4431 60.0511C40.8437 59.9091 40.4034 59.6889 40.1221 59.3906C39.8437 59.0895 39.7045 58.7131 39.7045 58.2614C39.7045 57.892 39.8082 57.5653 40.0156 57.2812C40.2258 56.9972 40.5113 56.7741 40.8721 56.6122C41.2358 56.4503 41.6477 56.3693 42.1079 56.3693C42.7556 56.3693 43.2642 56.5114 43.6335 56.7955C44.0056 57.0795 44.2699 57.4545 44.4261 57.9205ZM47.9854 63.1534C47.5706 63.1534 47.1942 63.0753 46.8561 62.919C46.5181 62.7599 46.2496 62.5312 46.0507 62.233C45.8519 61.9318 45.7524 61.5682 45.7524 61.142C45.7524 60.767 45.8263 60.4631 45.974 60.2301C46.1218 59.9943 46.3192 59.8097 46.5664 59.6761C46.8135 59.5426 47.0863 59.4432 47.3846 59.3778C47.6857 59.3097 47.9882 59.2557 48.2922 59.2159C48.6899 59.1648 49.0124 59.1264 49.2596 59.1009C49.5096 59.0724 49.6914 59.0256 49.805 58.9602C49.9215 58.8949 49.9797 58.7812 49.9797 58.6193V58.5852C49.9797 58.1648 49.8647 57.8381 49.6346 57.6051C49.4073 57.3722 49.0621 57.2557 48.599 57.2557C48.1189 57.2557 47.7425 57.3608 47.4698 57.571C47.1971 57.7812 47.0053 58.0057 46.8945 58.2443L45.9399 57.9034C46.1104 57.5057 46.3377 57.196 46.6218 56.9744C46.9087 56.75 47.2212 56.5937 47.5593 56.5057C47.9002 56.4148 48.2354 56.3693 48.5649 56.3693C48.7752 56.3693 49.0167 56.3949 49.2894 56.446C49.5649 56.4943 49.8306 56.5952 50.0863 56.7486C50.3448 56.902 50.5593 57.1335 50.7297 57.4432C50.9002 57.7528 50.9854 58.1676 50.9854 58.6875V63H49.9797V62.1136H49.9286C49.8604 62.2557 49.7468 62.4077 49.5877 62.5696C49.4286 62.7315 49.2169 62.8693 48.9527 62.983C48.6885 63.0966 48.3661 63.1534 47.9854 63.1534ZM48.1388 62.25C48.5365 62.25 48.8718 62.1719 49.1445 62.0156C49.4201 61.8594 49.6274 61.6577 49.7667 61.4105C49.9087 61.1634 49.9797 60.9034 49.9797 60.6307V59.7102C49.9371 59.7614 49.8434 59.8082 49.6985 59.8509C49.5564 59.8906 49.3917 59.9261 49.2042 59.9574C49.0195 59.9858 48.8391 60.0114 48.663 60.0341C48.4897 60.054 48.349 60.071 48.2411 60.0852C47.9797 60.1193 47.7354 60.1747 47.5081 60.2514C47.2837 60.3253 47.1019 60.4375 46.9627 60.5881C46.8263 60.7358 46.7581 60.9375 46.7581 61.1932C46.7581 61.5426 46.8874 61.8068 47.1459 61.9858C47.4073 62.1619 47.7382 62.25 48.1388 62.25ZM55.4801 63.1364C54.8664 63.1364 54.338 62.9915 53.8949 62.7017C53.4517 62.4119 53.1108 62.0128 52.8721 61.5043C52.6335 60.9957 52.5142 60.4148 52.5142 59.7614C52.5142 59.0966 52.6363 58.5099 52.8806 58.0014C53.1278 57.4901 53.4716 57.0909 53.9119 56.804C54.3551 56.5142 54.8721 56.3693 55.463 56.3693C55.9233 56.3693 56.338 56.4545 56.7074 56.625C57.0767 56.7955 57.3792 57.0341 57.615 57.3409C57.8508 57.6477 57.9971 58.0057 58.0539 58.4148H57.0483C56.9716 58.1165 56.8011 57.8523 56.5369 57.6222C56.2755 57.3892 55.9233 57.2727 55.4801 57.2727C55.088 57.2727 54.7443 57.375 54.4488 57.5795C54.1562 57.7812 53.9275 58.0668 53.7627 58.4361C53.6008 58.8026 53.5199 59.233 53.5199 59.7273C53.5199 60.233 53.5994 60.6733 53.7585 61.0483C53.9204 61.4233 54.1477 61.7145 54.4403 61.9219C54.7358 62.1293 55.0824 62.233 55.4801 62.233C55.7414 62.233 55.9787 62.1875 56.1917 62.0966C56.4048 62.0057 56.5852 61.875 56.7329 61.7045C56.8806 61.5341 56.9858 61.3295 57.0483 61.0909H58.0539C57.9971 61.4773 57.8565 61.8253 57.6321 62.1349C57.4105 62.4418 57.1164 62.6861 56.75 62.8679C56.3863 63.0469 55.963 63.1364 55.4801 63.1364ZM62.3707 56.4545V57.3068H58.9787V56.4545H62.3707ZM59.9673 54.8864H60.973V61.125C60.973 61.4091 61.0142 61.6222 61.0966 61.7642C61.1818 61.9034 61.2897 61.9972 61.4204 62.0455C61.5539 62.0909 61.6946 62.1136 61.8423 62.1136C61.9531 62.1136 62.044 62.108 62.115 62.0966C62.186 62.0824 62.2429 62.071 62.2855 62.0625L62.49 62.9659C62.4218 62.9915 62.3267 63.017 62.2045 63.0426C62.0824 63.071 61.9275 63.0852 61.74 63.0852C61.4559 63.0852 61.1775 63.0241 60.9048 62.902C60.6349 62.7798 60.4105 62.5938 60.2315 62.3438C60.0554 62.0938 59.9673 61.7784 59.9673 61.3977V54.8864ZM63.8835 63V56.4545H64.8892V63H63.8835ZM64.3949 55.3636C64.1988 55.3636 64.0298 55.2969 63.8877 55.1634C63.7485 55.0298 63.6789 54.8693 63.6789 54.6818C63.6789 54.4943 63.7485 54.3338 63.8877 54.2003C64.0298 54.0668 64.1988 54 64.3949 54C64.5909 54 64.7585 54.0668 64.8977 54.2003C65.0397 54.3338 65.1108 54.4943 65.1108 54.6818C65.1108 54.8693 65.0397 55.0298 64.8977 55.1634C64.7585 55.2969 64.5909 55.3636 64.3949 55.3636ZM69.3902 63.1364C68.7993 63.1364 68.2809 62.9957 67.8348 62.7145C67.3917 62.4332 67.0451 62.0398 66.7951 61.5341C66.5479 61.0284 66.4243 60.4375 66.4243 59.7614C66.4243 59.0795 66.5479 58.4844 66.7951 57.9759C67.0451 57.4673 67.3917 57.0724 67.8348 56.7912C68.2809 56.5099 68.7993 56.3693 69.3902 56.3693C69.9811 56.3693 70.4982 56.5099 70.9414 56.7912C71.3874 57.0724 71.734 57.4673 71.9811 57.9759C72.2311 58.4844 72.3561 59.0795 72.3561 59.7614C72.3561 60.4375 72.2311 61.0284 71.9811 61.5341C71.734 62.0398 71.3874 62.4332 70.9414 62.7145C70.4982 62.9957 69.9811 63.1364 69.3902 63.1364ZM69.3902 62.233C69.8391 62.233 70.2084 62.1179 70.4982 61.8878C70.788 61.6577 71.0024 61.3551 71.1417 60.9801C71.2809 60.6051 71.3505 60.1989 71.3505 59.7614C71.3505 59.3239 71.2809 58.9162 71.1417 58.5384C71.0024 58.1605 70.788 57.8551 70.4982 57.6222C70.2084 57.3892 69.8391 57.2727 69.3902 57.2727C68.9414 57.2727 68.572 57.3892 68.2823 57.6222C67.9925 57.8551 67.778 58.1605 67.6388 58.5384C67.4996 58.9162 67.43 59.3239 67.43 59.7614C67.43 60.1989 67.4996 60.6051 67.6388 60.9801C67.778 61.3551 67.9925 61.6577 68.2823 61.8878C68.572 62.1179 68.9414 62.233 69.3902 62.233ZM74.897 59.0625V63H73.8913V56.4545H74.8629V57.4773H74.9481C75.1015 57.1449 75.3345 56.8778 75.647 56.6761C75.9595 56.4716 76.3629 56.3693 76.8572 56.3693C77.3004 56.3693 77.6882 56.4602 78.0206 56.642C78.3529 56.821 78.6115 57.0938 78.7961 57.4602C78.9808 57.8239 79.0731 58.2841 79.0731 58.8409V63H78.0674V58.9091C78.0674 58.3949 77.9339 57.9943 77.6669 57.7074C77.3998 57.4176 77.0333 57.2727 76.5674 57.2727C76.2464 57.2727 75.9595 57.3423 75.7066 57.4815C75.4566 57.6207 75.2592 57.8239 75.1143 58.0909C74.9694 58.358 74.897 58.6818 74.897 59.0625ZM85.5472 57.9205L84.6438 58.1761C84.587 58.0256 84.5032 57.8793 84.3924 57.7372C84.2844 57.5923 84.1367 57.473 83.9492 57.3793C83.7617 57.2855 83.5216 57.2386 83.229 57.2386C82.8284 57.2386 82.4946 57.331 82.2276 57.5156C81.9634 57.6974 81.8313 57.929 81.8313 58.2102C81.8313 58.4602 81.9222 58.6577 82.104 58.8026C82.2858 58.9474 82.5699 59.0682 82.9563 59.1648L83.9279 59.4034C84.5131 59.5455 84.9492 59.7628 85.2361 60.0554C85.523 60.3452 85.6665 60.7187 85.6665 61.1761C85.6665 61.5511 85.5586 61.8864 85.3426 62.1818C85.1296 62.4773 84.8313 62.7102 84.4478 62.8807C84.0642 63.0511 83.6182 63.1364 83.1097 63.1364C82.4421 63.1364 81.8895 62.9915 81.452 62.7017C81.0145 62.4119 80.7375 61.9886 80.6211 61.4318L81.5756 61.1932C81.6665 61.5455 81.8384 61.8097 82.0912 61.9858C82.3469 62.1619 82.6807 62.25 83.0926 62.25C83.5614 62.25 83.9336 62.1506 84.2091 61.9517C84.4875 61.75 84.6267 61.5085 84.6267 61.2273C84.6267 61 84.5472 60.8097 84.3881 60.6562C84.229 60.5 83.9847 60.3835 83.6551 60.3068L82.5642 60.0511C81.9648 59.9091 81.5245 59.6889 81.2432 59.3906C80.9648 59.0895 80.8256 58.7131 80.8256 58.2614C80.8256 57.892 80.9293 57.5653 81.1367 57.2812C81.3469 56.9972 81.6324 56.7741 81.9932 56.6122C82.3568 56.4503 82.7688 56.3693 83.229 56.3693C83.8767 56.3693 84.3853 56.5114 84.7546 56.7955C85.1267 57.0795 85.3909 57.4545 85.5472 57.9205Z" fill="white"/>
</svg>
