<svg width="32" height="40" viewBox="0 0 32 40" fill="none" xmlns="http://www.w3.org/2000/svg">
<path d="M8 4C6.93913 4 5.92172 4.42143 5.17157 5.17157C4.42143 5.92172 4 6.93913 4 8V18L28 17.926V8C28 6.93913 27.5786 5.92172 26.8284 5.17157C26.0783 4.42143 25.0609 4 24 4H8ZM22 34H10V38C10 38.5304 9.78929 39.0391 9.41421 39.4142C9.03914 39.7893 8.53043 40 8 40H6C5.46957 40 4.96086 39.7893 4.58579 39.4142C4.21071 39.0391 4 38.5304 4 38V32.93C2.78358 32.2277 1.77351 31.2175 1.07135 30.001C0.369185 28.7845 -0.000315245 27.4046 2.01806e-07 26V8C2.01806e-07 5.87827 0.842855 3.84344 2.34315 2.34315C3.84344 0.842855 5.87827 0 8 0L24 0C26.1217 0 28.1566 0.842855 29.6569 2.34315C31.1571 3.84344 32 5.87827 32 8V26C32 28.96 30.392 31.546 28 32.93V38C28 38.5304 27.7893 39.0391 27.4142 39.4142C27.0391 39.7893 26.5304 40 26 40H24C23.4696 40 22.9609 39.7893 22.5858 39.4142C22.2107 39.0391 22 38.5304 22 38V34ZM8 28C8.53043 28 9.03914 27.7893 9.41421 27.4142C9.78929 27.0391 10 26.5304 10 26C10 25.4696 9.78929 24.9609 9.41421 24.5858C9.03914 24.2107 8.53043 24 8 24C7.46957 24 6.96086 24.2107 6.58579 24.5858C6.21071 24.9609 6 25.4696 6 26C6 26.5304 6.21071 27.0391 6.58579 27.4142C6.96086 27.7893 7.46957 28 8 28ZM24 28C24.5304 28 25.0391 27.7893 25.4142 27.4142C25.7893 27.0391 26 26.5304 26 26C26 25.4696 25.7893 24.9609 25.4142 24.5858C25.0391 24.2107 24.5304 24 24 24C23.4696 24 22.9609 24.2107 22.5858 24.5858C22.2107 24.9609 22 25.4696 22 26C22 26.5304 22.2107 27.0391 22.5858 27.4142C22.9609 27.7893 23.4696 28 24 28ZM8 6C8.53043 6 9.03914 6.21071 9.41421 6.58579C9.78929 6.96086 10 7.46957 10 8V14C10 14.5304 9.78929 15.0391 9.41421 15.4142C9.03914 15.7893 8.53043 16 8 16C7.46957 16 6.96086 15.7893 6.58579 15.4142C6.21071 15.0391 6 14.5304 6 14V8C6 7.46957 6.21071 6.96086 6.58579 6.58579C6.96086 6.21071 7.46957 6 8 6Z" fill="white"/>
</svg>
