<svg width="163.01" height="22" viewBox="0 0 163.01 22" fill="none" xmlns="http://www.w3.org/2000/svg">
<path d="M8.4618 4.00898C8.24898 4.0091 8.03862 4.05451 7.84471 4.1422C7.6508 4.22989 7.47777 4.35785 7.33713 4.51758L1.18955 11.5024C1.04185 11.6828 0.969964 11.9136 0.989042 12.146C1.00812 12.3784 1.11667 12.5943 1.29182 12.7482C1.46697 12.9021 1.69504 12.982 1.92795 12.9711C2.16087 12.9602 2.38045 12.8592 2.54041 12.6896L7.28902 7.29302C7.31002 7.26936 7.33771 7.25263 7.36843 7.24504C7.39914 7.23746 7.43144 7.23938 7.46104 7.25056C7.49064 7.26173 7.51615 7.28164 7.53419 7.30763C7.55223 7.33362 7.56195 7.36448 7.56207 7.39612L7.56207 18.0892C7.56207 18.3279 7.65686 18.5567 7.82559 18.7255C7.99433 18.8942 8.22318 18.989 8.4618 18.989C8.70043 18.989 8.92928 18.8942 9.09801 18.7255C9.26675 18.5567 9.36154 18.3279 9.36154 18.0892V7.39799C9.36184 7.36637 9.3717 7.33557 9.38982 7.30965C9.40794 7.28373 9.43348 7.26389 9.46307 7.25274C9.49267 7.24159 9.52495 7.23965 9.55567 7.24717C9.58639 7.2547 9.61411 7.27133 9.63521 7.2949L14.3838 12.6914C14.4601 12.7858 14.5546 12.8638 14.6617 12.9207C14.7689 12.9776 14.8864 13.0123 15.0073 13.0226C15.1282 13.0329 15.2499 13.0187 15.3651 12.9807C15.4804 12.9428 15.5867 12.8819 15.6779 12.8018C15.769 12.7217 15.8429 12.624 15.8953 12.5146C15.9477 12.4051 15.9774 12.2862 15.9827 12.165C15.9879 12.0438 15.9686 11.9228 15.9259 11.8093C15.8831 11.6957 15.8179 11.592 15.7341 11.5043L9.58647 4.51821C9.44589 4.35837 9.27289 4.23028 9.07897 4.14248C8.88506 4.05468 8.67467 4.00917 8.4618 4.00898Z" fill="#67D38B"/>
<path d="M23.7955 16.4432V7.06818H25.3864V16.4432H23.7955ZM19.9034 12.5511V10.9602H29.2784V12.5511H19.9034ZM41.6097 9.59659L40.9563 11.017H31.695L32.2063 9.59659H41.6097ZM40.3881 12.4375L39.7347 13.858H31.695L32.2063 12.4375H40.3881ZM43.2859 5.76136L42.604 7.23864C42.301 6.96401 41.9814 6.72727 41.6452 6.52841C41.3091 6.32955 40.9563 6.17566 40.587 6.06676C40.2177 5.95786 39.8294 5.90341 39.4222 5.90341C38.6173 5.90341 37.8929 6.12595 37.2489 6.57102C36.605 7.0161 36.096 7.67188 35.7219 8.53835C35.3479 9.40483 35.1609 10.4678 35.1609 11.7273C35.1609 12.9867 35.3479 14.0497 35.7219 14.9162C36.096 15.7827 36.605 16.4384 37.2489 16.8835C37.8929 17.3286 38.6173 17.5511 39.4222 17.5511C39.8389 17.5511 40.2319 17.4967 40.6012 17.3878C40.9753 17.2789 41.3233 17.1297 41.6452 16.9403C41.9719 16.7509 42.2726 16.5379 42.5472 16.3011L43.2575 17.7784C42.7603 18.2472 42.1779 18.6023 41.5103 18.8438C40.8427 19.0805 40.1467 19.1989 39.4222 19.1989C38.2575 19.1989 37.2253 18.8958 36.3256 18.2898C35.4308 17.6837 34.7276 16.822 34.2163 15.7045C33.7096 14.5871 33.4563 13.2614 33.4563 11.7273C33.4563 10.1932 33.7096 8.86742 34.2163 7.75C34.7276 6.63258 35.4308 5.77083 36.3256 5.16477C37.2253 4.55871 38.2575 4.25568 39.4222 4.25568C40.1751 4.25568 40.8782 4.38589 41.5316 4.64631C42.1897 4.90672 42.7745 5.27841 43.2859 5.76136ZM56.5298 19.1989C55.5923 19.1989 54.7566 19.0379 54.0227 18.7159C53.2936 18.3939 52.7135 17.9465 52.2827 17.3736C51.8565 16.7959 51.6245 16.1259 51.5866 15.3636H53.3764C53.4143 15.8324 53.5753 16.2372 53.8594 16.5781C54.1435 16.9143 54.5152 17.1747 54.9744 17.3594C55.4337 17.544 55.9427 17.6364 56.5014 17.6364C57.1264 17.6364 57.6804 17.5275 58.1634 17.3097C58.6463 17.0919 59.0251 16.7888 59.2997 16.4006C59.5743 16.0123 59.7116 15.5625 59.7116 15.0511C59.7116 14.5161 59.5791 14.045 59.3139 13.6378C59.0488 13.2259 58.6605 12.9039 58.1491 12.6719C57.6378 12.4399 57.0128 12.3239 56.2741 12.3239H55.1094V10.7614H56.2741C56.8518 10.7614 57.3584 10.6572 57.794 10.4489C58.2344 10.2405 58.5777 9.94697 58.8239 9.56818C59.0748 9.18939 59.2003 8.74432 59.2003 8.23295C59.2003 7.74053 59.0914 7.31203 58.8736 6.94744C58.6558 6.58286 58.348 6.29877 57.9503 6.09517C57.5573 5.89157 57.0933 5.78977 56.5582 5.78977C56.0563 5.78977 55.5829 5.8821 55.1378 6.06676C54.6974 6.24669 54.3376 6.50947 54.0582 6.85511C53.7789 7.19602 53.6274 7.60795 53.6037 8.09091H51.8991C51.9276 7.3286 52.1572 6.66098 52.5881 6.08807C53.0189 5.51042 53.5824 5.06061 54.2784 4.73864C54.9792 4.41667 55.7486 4.25568 56.5866 4.25568C57.4863 4.25568 58.258 4.43797 58.902 4.80256C59.5459 5.1624 60.0407 5.63826 60.3864 6.23011C60.732 6.82197 60.9048 7.46117 60.9048 8.14773C60.9048 8.96686 60.6894 9.66525 60.2585 10.2429C59.8324 10.8205 59.2524 11.2206 58.5185 11.4432V11.5568C59.437 11.7083 60.1544 12.099 60.6705 12.7287C61.1866 13.3537 61.4446 14.1278 61.4446 15.0511C61.4446 15.8419 61.2292 16.5521 60.7983 17.1818C60.3722 17.8068 59.7898 18.2992 59.0511 18.6591C58.3125 19.0189 57.4721 19.1989 56.5298 19.1989ZM68.8949 19.1989C68.0616 19.1989 67.3111 19.0331 66.6435 18.7017C65.9759 18.3703 65.4408 17.9157 65.0384 17.3381C64.6359 16.7604 64.4157 16.1023 64.3778 15.3636H66.0824C66.1487 16.0218 66.447 16.5663 66.9773 16.9972C67.5123 17.4233 68.1515 17.6364 68.8949 17.6364C69.4915 17.6364 70.0218 17.4967 70.4858 17.2173C70.9545 16.938 71.3215 16.5545 71.5866 16.0668C71.8565 15.5743 71.9915 15.018 71.9915 14.3977C71.9915 13.7633 71.8518 13.1974 71.5724 12.7003C71.2978 12.1984 70.919 11.803 70.4361 11.5142C69.9531 11.2254 69.4015 11.0786 68.7812 11.0739C68.3362 11.0691 67.8793 11.1378 67.4105 11.2798C66.9418 11.4171 66.5559 11.5947 66.2528 11.8125L64.6051 11.6136L65.4858 4.45455H73.0426V6.01705H66.9631L66.4517 10.3068H66.5369C66.8352 10.0701 67.2093 9.87358 67.6591 9.71733C68.1089 9.56108 68.5777 9.48295 69.0653 9.48295C69.9555 9.48295 70.7486 9.69602 71.4446 10.1222C72.1454 10.5436 72.6946 11.1212 73.0923 11.8551C73.4948 12.589 73.696 13.4271 73.696 14.3693C73.696 15.2973 73.4877 16.1259 73.071 16.8551C72.6591 17.5795 72.0909 18.1525 71.3665 18.5739C70.642 18.9905 69.8182 19.1989 68.8949 19.1989ZM77.2205 19.1136C76.8701 19.1136 76.5695 18.9882 76.3185 18.7372C76.0676 18.4863 75.9421 18.1856 75.9421 17.8352C75.9421 17.4848 76.0676 17.1842 76.3185 16.9332C76.5695 16.6823 76.8701 16.5568 77.2205 16.5568C77.5709 16.5568 77.8716 16.6823 78.1225 16.9332C78.3735 17.1842 78.4989 17.4848 78.4989 17.8352C78.4989 18.0672 78.4397 18.2803 78.3214 18.4744C78.2077 18.6686 78.0539 18.8248 77.8597 18.9432C77.6703 19.0568 77.4573 19.1136 77.2205 19.1136ZM81.4783 19V17.7216L86.2795 12.4659C86.8429 11.8504 87.3069 11.3153 87.6715 10.8608C88.0361 10.4015 88.306 9.97064 88.4812 9.56818C88.6611 9.16098 88.7511 8.73485 88.7511 8.28977C88.7511 7.77841 88.628 7.3357 88.3817 6.96165C88.1403 6.58759 87.8088 6.29877 87.3874 6.09517C86.966 5.89157 86.4925 5.78977 85.967 5.78977C85.4083 5.78977 84.9206 5.90578 84.5039 6.13778C84.092 6.36506 83.7724 6.68466 83.5451 7.09659C83.3226 7.50852 83.2113 7.99148 83.2113 8.54545H81.5352C81.5352 7.69318 81.7317 6.94508 82.1246 6.30114C82.5176 5.6572 83.0527 5.1553 83.7298 4.79545C84.4116 4.43561 85.1763 4.25568 86.0238 4.25568C86.8761 4.25568 87.6313 4.43561 88.2894 4.79545C88.9476 5.1553 89.4637 5.64062 89.8377 6.25142C90.2118 6.86222 90.3988 7.54167 90.3988 8.28977C90.3988 8.82481 90.3017 9.34801 90.1076 9.85938C89.9182 10.366 89.5868 10.9318 89.1133 11.5568C88.6445 12.1771 87.9935 12.9347 87.1602 13.8295L83.8931 17.3239V17.4375H90.6545V19H81.4783ZM98.7013 4.45455V19H96.94V6.30114H96.8548L93.3036 8.65909V6.86932L96.94 4.45455H98.7013ZM113.282 8.09091V9.51136H107.629V8.09091H113.282ZM109.277 5.47727H110.953V15.875C110.953 16.3485 111.021 16.7036 111.159 16.9403C111.301 17.1723 111.481 17.3286 111.699 17.4091C111.921 17.4848 112.155 17.5227 112.402 17.5227C112.586 17.5227 112.738 17.5133 112.856 17.4943C112.975 17.4706 113.069 17.4517 113.14 17.4375L113.481 18.9432C113.368 18.9858 113.209 19.0284 113.005 19.071C112.802 19.1184 112.544 19.142 112.231 19.142C111.758 19.142 111.294 19.0402 110.839 18.8366C110.389 18.633 110.015 18.3229 109.717 17.9062C109.423 17.4896 109.277 16.964 109.277 16.3295V5.47727ZM120.118 19.2273C119.133 19.2273 118.269 18.9929 117.526 18.5241C116.787 18.0554 116.21 17.3996 115.793 16.5568C115.381 15.714 115.175 14.7292 115.175 13.6023C115.175 12.4659 115.381 11.474 115.793 10.6264C116.21 9.77888 116.787 9.12074 117.526 8.65199C118.269 8.18324 119.133 7.94886 120.118 7.94886C121.103 7.94886 121.965 8.18324 122.703 8.65199C123.447 9.12074 124.025 9.77888 124.436 10.6264C124.853 11.474 125.061 12.4659 125.061 13.6023C125.061 14.7292 124.853 15.714 124.436 16.5568C124.025 17.3996 123.447 18.0554 122.703 18.5241C121.965 18.9929 121.103 19.2273 120.118 19.2273ZM120.118 17.7216C120.866 17.7216 121.482 17.5298 121.965 17.1463C122.448 16.7628 122.805 16.2585 123.037 15.6335C123.269 15.0085 123.385 14.3314 123.385 13.6023C123.385 12.8731 123.269 12.1937 123.037 11.5639C122.805 10.9342 122.448 10.4252 121.965 10.0369C121.482 9.64867 120.866 9.45455 120.118 9.45455C119.37 9.45455 118.755 9.64867 118.272 10.0369C117.789 10.4252 117.431 10.9342 117.199 11.5639C116.967 12.1937 116.851 12.8731 116.851 13.6023C116.851 14.3314 116.967 15.0085 117.199 15.6335C117.431 16.2585 117.789 16.7628 118.272 17.1463C118.755 17.5298 119.37 17.7216 120.118 17.7216ZM131.739 19.2273C130.83 19.2273 130.028 18.9976 129.332 18.5384C128.636 18.0743 128.091 17.4209 127.698 16.5781C127.305 15.7306 127.109 14.7292 127.109 13.5739C127.109 12.428 127.305 11.4337 127.698 10.5909C128.091 9.74811 128.638 9.09706 129.339 8.63778C130.04 8.1785 130.849 7.94886 131.768 7.94886C132.478 7.94886 133.039 8.06723 133.451 8.30398C133.868 8.53598 134.185 8.80114 134.403 9.09943C134.625 9.39299 134.798 9.63447 134.921 9.82386H135.063V4.45455H136.739V19H135.12V17.3239H134.921C134.798 17.5227 134.623 17.7737 134.396 18.0767C134.168 18.375 133.844 18.6425 133.423 18.8793C133.001 19.1113 132.44 19.2273 131.739 19.2273ZM131.967 17.7216C132.639 17.7216 133.207 17.5464 133.671 17.196C134.135 16.8409 134.488 16.3509 134.729 15.7259C134.971 15.0961 135.092 14.3693 135.092 13.5455C135.092 12.7311 134.973 12.0185 134.737 11.4077C134.5 10.7921 134.149 10.3139 133.685 9.97301C133.221 9.62737 132.648 9.45455 131.967 9.45455C131.256 9.45455 130.665 9.63684 130.191 10.0014C129.722 10.3613 129.37 10.8513 129.133 11.4716C128.901 12.0871 128.785 12.7784 128.785 13.5455C128.785 14.322 128.903 15.0275 129.14 15.6619C129.381 16.2917 129.737 16.7936 130.205 17.1676C130.679 17.5369 131.266 17.7216 131.967 17.7216ZM143.252 19.2557C142.561 19.2557 141.933 19.1255 141.37 18.8651C140.807 18.5999 140.359 18.2188 140.028 17.7216C139.696 17.2197 139.531 16.6136 139.531 15.9034C139.531 15.2784 139.654 14.7718 139.9 14.3835C140.146 13.9905 140.475 13.6828 140.887 13.4602C141.299 13.2377 141.754 13.072 142.251 12.9631C142.753 12.8494 143.257 12.7595 143.763 12.6932C144.426 12.608 144.964 12.544 145.376 12.5014C145.792 12.4541 146.095 12.3759 146.285 12.267C146.479 12.1581 146.576 11.9687 146.576 11.6989V11.642C146.576 10.9413 146.384 10.3968 146.001 10.0085C145.622 9.62027 145.047 9.42614 144.275 9.42614C143.475 9.42614 142.847 9.60133 142.393 9.9517C141.938 10.3021 141.619 10.6761 141.434 11.0739L139.843 10.5057C140.127 9.8428 140.506 9.3267 140.979 8.95739C141.458 8.58333 141.978 8.32292 142.542 8.17614C143.11 8.02462 143.669 7.94886 144.218 7.94886C144.568 7.94886 144.971 7.99148 145.425 8.0767C145.885 8.1572 146.327 8.32528 146.754 8.58097C147.184 8.83665 147.542 9.22254 147.826 9.73864C148.11 10.2547 148.252 10.946 148.252 11.8125V19H146.576V17.5227H146.491C146.377 17.7595 146.188 18.0128 145.923 18.2827C145.657 18.5526 145.305 18.7822 144.864 18.9716C144.424 19.161 143.887 19.2557 143.252 19.2557ZM143.508 17.75C144.171 17.75 144.729 17.6198 145.184 17.3594C145.643 17.099 145.989 16.7628 146.221 16.3509C146.458 15.9389 146.576 15.5057 146.576 15.0511V13.517C146.505 13.6023 146.349 13.6804 146.107 13.7514C145.871 13.8177 145.596 13.8769 145.283 13.929C144.976 13.9763 144.675 14.0189 144.381 14.0568C144.093 14.09 143.858 14.1184 143.678 14.142C143.243 14.1989 142.835 14.2912 142.457 14.419C142.083 14.5421 141.78 14.7292 141.548 14.9801C141.32 15.2263 141.207 15.5625 141.207 15.9886C141.207 16.571 141.422 17.0114 141.853 17.3097C142.289 17.6032 142.84 17.75 143.508 17.75ZM152 23.0909C151.716 23.0909 151.463 23.0672 151.24 23.0199C151.018 22.9773 150.864 22.9347 150.779 22.892L151.205 21.4148C151.612 21.5189 151.972 21.5568 152.284 21.5284C152.597 21.5 152.874 21.3603 153.115 21.1094C153.362 20.8632 153.587 20.4631 153.79 19.9091L154.103 19.0568L150.069 8.09091H151.887L154.898 16.7841H155.012L158.023 8.09091H159.841L155.211 20.5909C155.002 21.1544 154.744 21.6207 154.436 21.9901C154.129 22.3641 153.771 22.6411 153.364 22.821C152.962 23.0009 152.507 23.0909 152 23.0909Z" fill="white"/>
</svg>
