<svg width="177" height="21" viewBox="0 0 177 21" fill="none" xmlns="http://www.w3.org/2000/svg">
<path d="M12.4659 5H10.7045C10.6004 4.49337 10.4181 4.0483 10.1577 3.66477C9.90199 3.28125 9.58949 2.95928 9.22017 2.69886C8.85559 2.43371 8.45076 2.23485 8.00568 2.10227C7.56061 1.9697 7.09659 1.90341 6.61364 1.90341C5.73295 1.90341 4.93513 2.12595 4.22017 2.57102C3.50994 3.0161 2.94413 3.67188 2.52273 4.53835C2.10606 5.40483 1.89773 6.4678 1.89773 7.72727C1.89773 8.98674 2.10606 10.0497 2.52273 10.9162C2.94413 11.7827 3.50994 12.4384 4.22017 12.8835C4.93513 13.3286 5.73295 13.5511 6.61364 13.5511C7.09659 13.5511 7.56061 13.4848 8.00568 13.3523C8.45076 13.2197 8.85559 13.0232 9.22017 12.7628C9.58949 12.4976 9.90199 12.1733 10.1577 11.7898C10.4181 11.4015 10.6004 10.9564 10.7045 10.4545H12.4659C12.3333 11.1979 12.0919 11.8632 11.7415 12.4503C11.3911 13.0374 10.9555 13.5369 10.4347 13.9489C9.91383 14.3561 9.32907 14.6662 8.6804 14.8793C8.03646 15.0923 7.34754 15.1989 6.61364 15.1989C5.37311 15.1989 4.26989 14.8958 3.30398 14.2898C2.33807 13.6837 1.57813 12.822 1.02415 11.7045C0.470171 10.5871 0.193182 9.26136 0.193182 7.72727C0.193182 6.19318 0.470171 4.86742 1.02415 3.75C1.57813 2.63258 2.33807 1.77083 3.30398 1.16477C4.26989 0.558712 5.37311 0.255681 6.61364 0.255681C7.34754 0.255681 8.03646 0.362215 8.6804 0.575284C9.32907 0.788352 9.91383 1.10085 10.4347 1.51278C10.9555 1.91998 11.3911 2.41714 11.7415 3.00426C12.0919 3.58665 12.3333 4.25189 12.4659 5ZM21.9599 10.5398V4.09091H23.636V15H21.9599V13.1534H21.8462C21.5906 13.7074 21.1928 14.1785 20.6531 14.5668C20.1133 14.9503 19.4315 15.142 18.6076 15.142C17.9258 15.142 17.3197 14.9929 16.7894 14.6946C16.2591 14.3916 15.8424 13.937 15.5394 13.331C15.2364 12.7202 15.0849 11.9508 15.0849 11.0227V4.09091H16.761V10.9091C16.761 11.7045 16.9835 12.339 17.4286 12.8125C17.8784 13.286 18.4513 13.5227 19.1474 13.5227C19.564 13.5227 19.9878 13.4162 20.4187 13.2031C20.8543 12.9901 21.2189 12.6634 21.5124 12.223C21.8107 11.7827 21.9599 11.2216 21.9599 10.5398ZM26.706 15V4.09091H28.3253V5.73864H28.4389C28.6378 5.19886 28.9976 4.76089 29.5185 4.42472C30.0393 4.08854 30.6264 3.92045 31.2798 3.92045C31.4029 3.92045 31.5568 3.92282 31.7415 3.92756C31.9261 3.93229 32.0658 3.93939 32.1605 3.94886V5.65341C32.1037 5.6392 31.9735 5.6179 31.7699 5.58949C31.571 5.55634 31.3603 5.53977 31.1378 5.53977C30.6075 5.53977 30.134 5.65104 29.7173 5.87358C29.3054 6.09138 28.9787 6.39441 28.7372 6.78267C28.5005 7.16619 28.3821 7.60417 28.3821 8.09659V15H26.706ZM34.1474 15V4.09091H35.7667V5.73864H35.8803C36.0792 5.19886 36.439 4.76089 36.9599 4.42472C37.4807 4.08854 38.0678 3.92045 38.7212 3.92045C38.8443 3.92045 38.9982 3.92282 39.1829 3.92756C39.3675 3.93229 39.5072 3.93939 39.6019 3.94886V5.65341C39.5451 5.6392 39.4149 5.6179 39.2113 5.58949C39.0124 5.55634 38.8017 5.53977 38.5792 5.53977C38.0489 5.53977 37.5754 5.65104 37.1587 5.87358C36.7468 6.09138 36.4201 6.39441 36.1786 6.78267C35.9419 7.16619 35.8235 7.60417 35.8235 8.09659V15H34.1474ZM45.8306 15.2273C44.7795 15.2273 43.8728 14.9953 43.1104 14.5312C42.3529 14.0625 41.7681 13.4091 41.3562 12.571C40.949 11.7282 40.7454 10.7481 40.7454 9.63068C40.7454 8.51326 40.949 7.52841 41.3562 6.67614C41.7681 5.81913 42.341 5.15152 43.0749 4.6733C43.8136 4.19034 44.6753 3.94886 45.6602 3.94886C46.2283 3.94886 46.7894 4.04356 47.3434 4.23295C47.8974 4.42235 48.4016 4.73011 48.8562 5.15625C49.3107 5.57765 49.6729 6.13636 49.9428 6.83239C50.2127 7.52841 50.3477 8.38542 50.3477 9.40341V10.1136H41.9386V8.66477H48.6431C48.6431 8.04924 48.52 7.5 48.2738 7.01705C48.0323 6.53409 47.6867 6.15294 47.2369 5.87358C46.7918 5.59422 46.2662 5.45455 45.6602 5.45455C44.9925 5.45455 44.4149 5.62026 43.9272 5.9517C43.4442 6.27841 43.0726 6.70455 42.8121 7.23011C42.5517 7.75568 42.4215 8.31913 42.4215 8.92045V9.88636C42.4215 10.7102 42.5636 11.4086 42.8477 11.9815C43.1365 12.5497 43.5366 12.983 44.0479 13.2812C44.5593 13.5748 45.1535 13.7216 45.8306 13.7216C46.271 13.7216 46.6687 13.66 47.0238 13.5369C47.3836 13.4091 47.6938 13.2197 47.9542 12.9688C48.2146 12.7131 48.4158 12.3958 48.5579 12.017L50.1772 12.4716C50.0067 13.0208 49.7203 13.5038 49.3178 13.9205C48.9154 14.3324 48.4182 14.6544 47.8263 14.8864C47.2345 15.1136 46.5692 15.2273 45.8306 15.2273ZM54.5735 8.4375V15H52.8974V4.09091H54.5167V5.79545H54.6587C54.9144 5.24148 55.3027 4.7964 55.8235 4.46023C56.3443 4.11932 57.0167 3.94886 57.8406 3.94886C58.5792 3.94886 59.2255 4.10038 59.7795 4.40341C60.3335 4.7017 60.7643 5.15625 61.0721 5.76705C61.3799 6.37311 61.5337 7.14015 61.5337 8.06818V15H59.8576V8.18182C59.8576 7.32481 59.6351 6.6572 59.19 6.17898C58.7449 5.69602 58.1341 5.45455 57.3576 5.45455C56.8226 5.45455 56.3443 5.57055 55.9229 5.80256C55.5063 6.03456 55.1772 6.37311 54.9357 6.81818C54.6942 7.26326 54.5735 7.80303 54.5735 8.4375ZM69.3409 4.09091V5.51136H63.6875V4.09091H69.3409ZM65.3352 1.47727H67.0114V11.875C67.0114 12.3485 67.08 12.7036 67.2173 12.9403C67.3594 13.1723 67.5393 13.3286 67.7571 13.4091C67.9796 13.4848 68.214 13.5227 68.4602 13.5227C68.6449 13.5227 68.7964 13.5133 68.9148 13.4943C69.0331 13.4706 69.1278 13.4517 69.1989 13.4375L69.5398 14.9432C69.4261 14.9858 69.2675 15.0284 69.0639 15.071C68.8603 15.1184 68.6023 15.142 68.2898 15.142C67.8163 15.142 67.3523 15.0402 66.8977 14.8366C66.4479 14.633 66.0739 14.3229 65.7756 13.9062C65.482 13.4896 65.3352 12.964 65.3352 12.3295V1.47727ZM77.7145 15V0.454545H79.3906V5.82386H79.5327C79.6558 5.63447 79.8262 5.39299 80.044 5.09943C80.2666 4.80114 80.5838 4.53598 80.9957 4.30398C81.4124 4.06723 81.9759 3.94886 82.6861 3.94886C83.6046 3.94886 84.4143 4.1785 85.1151 4.63778C85.8158 5.09706 86.3627 5.74811 86.7557 6.59091C87.1487 7.43371 87.3452 8.42803 87.3452 9.57386C87.3452 10.7292 87.1487 11.7306 86.7557 12.5781C86.3627 13.4209 85.8182 14.0743 85.1222 14.5384C84.4261 14.9976 83.6236 15.2273 82.7145 15.2273C82.0137 15.2273 81.4527 15.1113 81.0312 14.8793C80.6098 14.6425 80.2855 14.375 80.0582 14.0767C79.831 13.7737 79.6558 13.5227 79.5327 13.3239H79.3338V15H77.7145ZM79.3622 9.54545C79.3622 10.3693 79.483 11.0961 79.7244 11.7259C79.9659 12.3509 80.3187 12.8409 80.7827 13.196C81.2467 13.5464 81.8149 13.7216 82.4872 13.7216C83.188 13.7216 83.7727 13.5369 84.2415 13.1676C84.715 12.7936 85.0701 12.2917 85.3068 11.6619C85.5483 11.0275 85.669 10.322 85.669 9.54545C85.669 8.77841 85.5507 8.08712 85.3139 7.47159C85.0819 6.85133 84.7292 6.36127 84.2557 6.00142C83.7869 5.63684 83.1974 5.45455 82.4872 5.45455C81.8054 5.45455 81.2325 5.62737 80.7685 5.97301C80.3045 6.31392 79.9541 6.79214 79.7173 7.40767C79.4806 8.01847 79.3622 8.73106 79.3622 9.54545ZM93.1193 15.2557C92.428 15.2557 91.8007 15.1255 91.2372 14.8651C90.6738 14.5999 90.2263 14.2188 89.8949 13.7216C89.5634 13.2197 89.3977 12.6136 89.3977 11.9034C89.3977 11.2784 89.5208 10.7718 89.767 10.3835C90.0133 9.99053 90.3423 9.68276 90.7543 9.46023C91.1662 9.23769 91.6207 9.07197 92.1179 8.96307C92.6198 8.84943 93.1241 8.75947 93.6307 8.69318C94.2936 8.60795 94.831 8.54403 95.2429 8.50142C95.6596 8.45407 95.9626 8.37595 96.152 8.26705C96.3461 8.15814 96.4432 7.96875 96.4432 7.69886V7.64205C96.4432 6.94129 96.2514 6.39678 95.8679 6.00852C95.4891 5.62027 94.9138 5.42614 94.142 5.42614C93.3419 5.42614 92.7145 5.60133 92.2599 5.9517C91.8054 6.30208 91.4858 6.67614 91.3011 7.07386L89.7102 6.50568C89.9943 5.8428 90.3731 5.3267 90.8466 4.95739C91.3248 4.58333 91.8456 4.32292 92.4091 4.17614C92.9773 4.02462 93.536 3.94886 94.0852 3.94886C94.4356 3.94886 94.8381 3.99148 95.2926 4.0767C95.7519 4.1572 96.1946 4.32528 96.6207 4.58097C97.0516 4.83665 97.4091 5.22254 97.6932 5.73864C97.9773 6.25473 98.1193 6.94602 98.1193 7.8125V15H96.4432V13.5227H96.358C96.2443 13.7595 96.0549 14.0128 95.7898 14.2827C95.5246 14.5526 95.1719 14.7822 94.7315 14.9716C94.2912 15.161 93.7538 15.2557 93.1193 15.2557ZM93.375 13.75C94.0379 13.75 94.5966 13.6198 95.0511 13.3594C95.5104 13.099 95.8561 12.7628 96.0881 12.3509C96.3248 11.9389 96.4432 11.5057 96.4432 11.0511V9.51705C96.3722 9.60227 96.2159 9.6804 95.9744 9.75142C95.7377 9.81771 95.4631 9.87689 95.1506 9.92898C94.8428 9.97633 94.5421 10.0189 94.2486 10.0568C93.9598 10.09 93.7254 10.1184 93.5455 10.142C93.1098 10.1989 92.7027 10.2912 92.3239 10.419C91.9498 10.5421 91.6468 10.7292 91.4148 10.9801C91.1875 11.2263 91.0739 11.5625 91.0739 11.9886C91.0739 12.571 91.2893 13.0114 91.7202 13.3097C92.1558 13.6032 92.7074 13.75 93.375 13.75ZM102.855 0.454545V15H101.179V0.454545H102.855ZM109.135 15.2557C108.444 15.2557 107.816 15.1255 107.253 14.8651C106.689 14.5999 106.242 14.2188 105.911 13.7216C105.579 13.2197 105.413 12.6136 105.413 11.9034C105.413 11.2784 105.536 10.7718 105.783 10.3835C106.029 9.99053 106.358 9.68276 106.77 9.46023C107.182 9.23769 107.636 9.07197 108.134 8.96307C108.635 8.84943 109.14 8.75947 109.646 8.69318C110.309 8.60795 110.847 8.54403 111.259 8.50142C111.675 8.45407 111.978 8.37595 112.168 8.26705C112.362 8.15814 112.459 7.96875 112.459 7.69886V7.64205C112.459 6.94129 112.267 6.39678 111.884 6.00852C111.505 5.62027 110.929 5.42614 110.158 5.42614C109.357 5.42614 108.73 5.60133 108.276 5.9517C107.821 6.30208 107.501 6.67614 107.317 7.07386L105.726 6.50568C106.01 5.8428 106.389 5.3267 106.862 4.95739C107.34 4.58333 107.861 4.32292 108.425 4.17614C108.993 4.02462 109.552 3.94886 110.101 3.94886C110.451 3.94886 110.854 3.99148 111.308 4.0767C111.768 4.1572 112.21 4.32528 112.636 4.58097C113.067 4.83665 113.425 5.22254 113.709 5.73864C113.993 6.25473 114.135 6.94602 114.135 7.8125V15H112.459V13.5227H112.374C112.26 13.7595 112.071 14.0128 111.805 14.2827C111.54 14.5526 111.188 14.7822 110.747 14.9716C110.307 15.161 109.769 15.2557 109.135 15.2557ZM109.391 13.75C110.054 13.75 110.612 13.6198 111.067 13.3594C111.526 13.099 111.872 12.7628 112.104 12.3509C112.34 11.9389 112.459 11.5057 112.459 11.0511V9.51705C112.388 9.60227 112.232 9.6804 111.99 9.75142C111.753 9.81771 111.479 9.87689 111.166 9.92898C110.858 9.97633 110.558 10.0189 110.264 10.0568C109.975 10.09 109.741 10.1184 109.561 10.142C109.125 10.1989 108.718 10.2912 108.339 10.419C107.965 10.5421 107.662 10.7292 107.43 10.9801C107.203 11.2263 107.089 11.5625 107.089 11.9886C107.089 12.571 107.305 13.0114 107.736 13.3097C108.171 13.6032 108.723 13.75 109.391 13.75ZM118.87 8.4375V15H117.194V4.09091H118.814V5.79545H118.956C119.211 5.24148 119.6 4.7964 120.12 4.46023C120.641 4.11932 121.314 3.94886 122.137 3.94886C122.876 3.94886 123.522 4.10038 124.076 4.40341C124.63 4.7017 125.061 5.15625 125.369 5.76705C125.677 6.37311 125.831 7.14015 125.831 8.06818V15H124.154V8.18182C124.154 7.32481 123.932 6.6572 123.487 6.17898C123.042 5.69602 122.431 5.45455 121.654 5.45455C121.119 5.45455 120.641 5.57055 120.22 5.80256C119.803 6.03456 119.474 6.37311 119.233 6.81818C118.991 7.26326 118.87 7.80303 118.87 8.4375ZM133.325 15.2273C132.303 15.2273 131.422 14.9858 130.683 14.5028C129.945 14.0199 129.376 13.3546 128.979 12.5071C128.581 11.6596 128.382 10.6913 128.382 9.60227C128.382 8.49432 128.586 7.51657 128.993 6.66903C129.405 5.81676 129.978 5.15152 130.712 4.6733C131.45 4.19034 132.312 3.94886 133.297 3.94886C134.064 3.94886 134.755 4.09091 135.371 4.375C135.986 4.65909 136.491 5.05682 136.884 5.56818C137.277 6.07955 137.52 6.67614 137.615 7.35795H135.939C135.811 6.8608 135.527 6.42045 135.087 6.03693C134.651 5.64867 134.064 5.45455 133.325 5.45455C132.672 5.45455 132.099 5.625 131.607 5.96591C131.119 6.30208 130.738 6.77794 130.463 7.39347C130.193 8.00426 130.058 8.72159 130.058 9.54545C130.058 10.3883 130.191 11.1222 130.456 11.7472C130.726 12.3722 131.105 12.8575 131.592 13.2031C132.085 13.5488 132.662 13.7216 133.325 13.7216C133.761 13.7216 134.156 13.6458 134.511 13.4943C134.866 13.3428 135.167 13.125 135.413 12.8409C135.66 12.5568 135.835 12.2159 135.939 11.8182H137.615C137.52 12.4621 137.286 13.0421 136.912 13.5582C136.543 14.0696 136.053 14.4768 135.442 14.7798C134.836 15.0781 134.13 15.2273 133.325 15.2273ZM144.639 15.2273C143.588 15.2273 142.681 14.9953 141.919 14.5312C141.161 14.0625 140.577 13.4091 140.165 12.571C139.758 11.7282 139.554 10.7481 139.554 9.63068C139.554 8.51326 139.758 7.52841 140.165 6.67614C140.577 5.81913 141.15 5.15152 141.884 4.6733C142.622 4.19034 143.484 3.94886 144.469 3.94886C145.037 3.94886 145.598 4.04356 146.152 4.23295C146.706 4.42235 147.21 4.73011 147.665 5.15625C148.119 5.57765 148.482 6.13636 148.751 6.83239C149.021 7.52841 149.156 8.38542 149.156 9.40341V10.1136H140.747V8.66477H147.452C147.452 8.04924 147.329 7.5 147.082 7.01705C146.841 6.53409 146.495 6.15294 146.045 5.87358C145.6 5.59422 145.075 5.45455 144.469 5.45455C143.801 5.45455 143.223 5.62026 142.736 5.9517C142.253 6.27841 141.881 6.70455 141.621 7.23011C141.36 7.75568 141.23 8.31913 141.23 8.92045V9.88636C141.23 10.7102 141.372 11.4086 141.656 11.9815C141.945 12.5497 142.345 12.983 142.857 13.2812C143.368 13.5748 143.962 13.7216 144.639 13.7216C145.08 13.7216 145.477 13.66 145.832 13.5369C146.192 13.4091 146.502 13.2197 146.763 12.9688C147.023 12.7131 147.224 12.3958 147.366 12.017L148.986 12.4716C148.815 13.0208 148.529 13.5038 148.126 13.9205C147.724 14.3324 147.227 14.6544 146.635 14.8864C146.043 15.1136 145.378 15.2273 144.639 15.2273Z" fill="white"/>
</svg>
